<svg xmlns="http://www.w3.org/2000/svg" xmlns:xlink="http://www.w3.org/1999/xlink" contentStyleType="text/css" data-diagram-type="STATE" height="707px" preserveAspectRatio="none" style="width:120px;height:707px;background:#FFFFFF;" version="1.1" viewBox="0 0 120 707" width="120px" zoomAndPan="magnify"><?plantuml 1.2026.3beta6?><defs/><g><path d="M19.5,86 L92.6343,86 A12.5,12.5 0 0 1 105.1343,98.5 L105.1343,112.4883 L7,112.4883 L7,98.5 A12.5,12.5 0 0 1 19.5,86" fill="#F1F1F1"/><rect fill="none" height="525.4883" rx="12.5" ry="12.5" style="stroke:#181818;stroke-width:0.5;" width="98.1343" x="7" y="86"/><line style="stroke:#181818;stroke-width:0.5;" x1="7" x2="105.1343" y1="112.4883" y2="112.4883"/><text fill="#000000" font-family="sans-serif" font-size="14" lengthAdjust="spacing" textLength="72.9873" x="19.5735" y="104.5352">Composite</text><g class="start_entity" data-qualified-name="Composite..start.Composite" data-source-line="2" id="ent0002"><ellipse cx="44" cy="133.4883" fill="#222222" rx="10" ry="10" style="stroke:#222222;stroke-width:1;"/></g><g class="entity" data-qualified-name="Composite.I1" id="ent0003"><rect fill="#F1F1F1" height="50" rx="12.5" ry="12.5" style="stroke:#181818;stroke-width:0.5;" width="50" x="19" y="180.4883"/><line style="stroke:#181818;stroke-width:0.5;" x1="19" x2="69" y1="206.9766" y2="206.9766"/><text fill="#000000" font-family="sans-serif" font-size="14" lengthAdjust="spacing" textLength="12.8857" x="37.5571" y="199.0234">I1</text></g><g class="entity" data-qualified-name="Composite.I2" id="ent0005"><rect fill="#F1F1F1" height="50" rx="12.5" ry="12.5" style="stroke:#181818;stroke-width:0.5;" width="50" x="19" y="283.4883"/><line style="stroke:#181818;stroke-width:0.5;" x1="19" x2="69" y1="309.9766" y2="309.9766"/><text fill="#000000" font-family="sans-serif" font-size="14" lengthAdjust="spacing" textLength="12.8857" x="37.5571" y="302.0234">I2</text></g><g class="entity" data-qualified-name="Composite.I3" id="ent0007"><rect fill="#F1F1F1" height="50" rx="12.5" ry="12.5" style="stroke:#181818;stroke-width:0.5;" width="50" x="19" y="386.4883"/><line style="stroke:#181818;stroke-width:0.5;" x1="19" x2="69" y1="412.9766" y2="412.9766"/><text fill="#000000" font-family="sans-serif" font-size="14" lengthAdjust="spacing" textLength="12.8857" x="37.5571" y="405.0234">I3</text></g><g class="entity" data-qualified-name="Composite.I4" id="ent0009"><rect fill="#F1F1F1" height="50" rx="12.5" ry="12.5" style="stroke:#181818;stroke-width:0.5;" width="50" x="19" y="489.4883"/><line style="stroke:#181818;stroke-width:0.5;" x1="19" x2="69" y1="515.9766" y2="515.9766"/><text fill="#000000" font-family="sans-serif" font-size="14" lengthAdjust="spacing" textLength="12.8857" x="37.5571" y="508.0234">I4</text></g><g class="end_entity" data-qualified-name="Composite..end.Composite" data-source-line="6" id="ent0011"><ellipse cx="44" cy="587.4883" fill="none" rx="11" ry="11" style="stroke:#222222;stroke-width:1;"/><ellipse cx="44" cy="587.4883" fill="#222222" rx="6" ry="6" style="stroke:#222222;stroke-width:1;"/></g><!--link *start*Composite to I1--><g class="link" data-entity-1="ent0002" data-entity-2="ent0003" data-link-type="dependency" data-source-line="2" id="lnk4"><path d="M44,143.9283 C44,153.1883 44,161.6783 44,174.1683" fill="none" id="*start*Composite-to-I1" style="stroke:#181818;stroke-width:1;"/><polygon fill="#181818" points="44,180.1683,48,171.1683,44,175.1683,40,171.1683,44,180.1683" style="stroke:#181818;stroke-width:1;"/></g><!--link I1 to I2--><g class="link" data-entity-1="ent0003" data-entity-2="ent0005" data-link-type="dependency" data-source-line="3" id="lnk6"><path d="M44,230.9383 C44,246.8183 44,261.4283 44,277.2683" fill="none" id="I1-to-I2" style="stroke:#181818;stroke-width:1;"/><polygon fill="#181818" points="44,283.2683,48,274.2683,44,278.2683,40,274.2683,44,283.2683" style="stroke:#181818;stroke-width:1;"/><text fill="#000000" font-family="sans-serif" font-size="13" lengthAdjust="spacing" textLength="35.1343" x="45" y="262.0566">step1</text></g><!--link I2 to I3--><g class="link" data-entity-1="ent0005" data-entity-2="ent0007" data-link-type="dependency" data-source-line="4" id="lnk8"><path d="M44,333.9383 C44,349.8183 44,364.4283 44,380.2683" fill="none" id="I2-to-I3" style="stroke:#181818;stroke-width:1;"/><polygon fill="#181818" points="44,386.2683,48,377.2683,44,381.2683,40,377.2683,44,386.2683" style="stroke:#181818;stroke-width:1;"/><text fill="#000000" font-family="sans-serif" font-size="13" lengthAdjust="spacing" textLength="35.1343" x="45" y="365.0566">step2</text></g><!--link I3 to I4--><g class="link" data-entity-1="ent0007" data-entity-2="ent0009" data-link-type="dependency" data-source-line="5" id="lnk10"><path d="M44,436.9383 C44,452.8183 44,467.4283 44,483.2683" fill="none" id="I3-to-I4" style="stroke:#181818;stroke-width:1;"/><polygon fill="#181818" points="44,489.2683,48,480.2683,44,484.2683,40,480.2683,44,489.2683" style="stroke:#181818;stroke-width:1;"/><text fill="#000000" font-family="sans-serif" font-size="13" lengthAdjust="spacing" textLength="35.1343" x="45" y="468.0566">step3</text></g><!--link I4 to *end*Composite--><g class="link" data-entity-1="ent0009" data-entity-2="ent0011" data-link-type="dependency" data-source-line="6" id="lnk12"><path d="M44,539.9183 C44,552.2783 44,560.6183 44,570.0883" fill="none" id="I4-to-*end*Composite" style="stroke:#181818;stroke-width:1;"/><polygon fill="#181818" points="44,576.0883,48,567.0883,44,571.0883,40,567.0883,44,576.0883" style="stroke:#181818;stroke-width:1;"/></g><g class="start_entity" data-qualified-name=".start." data-source-line="8" id="ent0013"><ellipse cx="56.07" cy="16" fill="#222222" rx="10" ry="10" style="stroke:#222222;stroke-width:1;"/></g><g class="end_entity" data-qualified-name=".end." data-source-line="9" id="ent0015"><ellipse cx="56.07" cy="682.49" fill="none" rx="11" ry="11" style="stroke:#222222;stroke-width:1;"/><ellipse cx="56.07" cy="682.49" fill="#222222" rx="6" ry="6" style="stroke:#222222;stroke-width:1;"/></g><!--link *start* to Composite--><g class="link" data-entity-1="ent0013" data-entity-2="ent0002" data-link-type="dependency" data-source-line="8" id="lnk14"><path d="M56.07,26.19 C56.07,37.67 56.07,53.06 56.07,79.57" fill="none" id="*start*-to-Composite" style="stroke:#181818;stroke-width:1;"/><polygon fill="#181818" points="56.07,85.57,60.07,76.57,56.07,80.57,52.07,76.57,56.07,85.57" style="stroke:#181818;stroke-width:1;"/></g><!--link Composite to *end*--><g class="link" data-entity-1="ent0002" data-entity-2="ent0015" data-link-type="dependency" data-source-line="9" id="lnk16"><path d="M56.07,611.95 C56.07,638.01 56.07,653.22 56.07,665.1" fill="none" id="Composite-to-*end*" style="stroke:#181818;stroke-width:1;"/><polygon fill="#181818" points="56.07,671.1,60.07,662.1,56.07,666.1,52.07,662.1,56.07,671.1" style="stroke:#181818;stroke-width:1;"/></g><?plantuml-src Aov9B4bLSCxFBSWlpWIoghaK5AArOXLqTUqKF0s174z32Dj8mKgXk2Ir02nc114pXeePWSIC8M8cK35Za9W9M0ne7bSj5ynKk5rS25kXgW00?></g></svg>