<svg xmlns="http://www.w3.org/2000/svg" xmlns:xlink="http://www.w3.org/1999/xlink" contentStyleType="text/css" data-diagram-type="ACTIVITY" height="421px" preserveAspectRatio="none" style="width:413px;height:421px;background:#FFFFFF;" version="1.1" viewBox="0 0 413 421" width="413px" zoomAndPan="magnify"><?plantuml 1.2026.3beta6?><defs/><g><ellipse cx="297.9287" cy="25" fill="#222222" rx="10" ry="10" style="stroke:#222222;stroke-width:1;"/><polygon fill="#F1F1F1" points="285.9287,55,309.9287,55,321.9287,67,309.9287,79,285.9287,79,273.9287,67,285.9287,55" style="stroke:#181818;stroke-width:0.5;"/><text fill="#000000" font-family="sans-serif" font-size="11" lengthAdjust="spacing" textLength="17.4614" x="289.198" y="71.1572">L1?</text><text fill="#000000" font-family="sans-serif" font-size="11" lengthAdjust="spacing" textLength="17.4829" x="256.4458" y="64.6797">yes</text><text fill="#000000" font-family="sans-serif" font-size="11" lengthAdjust="spacing" textLength="13.5835" x="321.9287" y="64.6797">no</text><polygon fill="#F1F1F1" points="213.332,89,237.332,89,249.332,101,237.332,113,213.332,113,201.332,101,213.332,89" style="stroke:#181818;stroke-width:0.5;"/><text fill="#000000" font-family="sans-serif" font-size="11" lengthAdjust="spacing" textLength="17.4614" x="216.6013" y="105.1572">L2?</text><text fill="#000000" font-family="sans-serif" font-size="11" lengthAdjust="spacing" textLength="17.4829" x="183.8491" y="98.6797">yes</text><text fill="#000000" font-family="sans-serif" font-size="11" lengthAdjust="spacing" textLength="13.5835" x="249.332" y="98.6797">no</text><polygon fill="#F1F1F1" points="145.7598,123,169.7598,123,181.7598,135,169.7598,147,145.7598,147,133.7598,135,145.7598,123" style="stroke:#181818;stroke-width:0.5;"/><text fill="#000000" font-family="sans-serif" font-size="11" lengthAdjust="spacing" textLength="17.4614" x="149.0291" y="139.1572">L3?</text><text fill="#000000" font-family="sans-serif" font-size="11" lengthAdjust="spacing" textLength="17.4829" x="116.2769" y="132.6797">yes</text><text fill="#000000" font-family="sans-serif" font-size="11" lengthAdjust="spacing" textLength="13.5835" x="181.7598" y="132.6797">no</text><rect fill="#F1F1F1" height="34.1328" rx="12.5" ry="12.5" style="stroke:#181818;stroke-width:0.5;" width="118.4727" x="41" y="213.1348"/><text fill="#000000" font-family="sans-serif" font-size="12" lengthAdjust="spacing" textLength="98.4727" x="51" y="234.7363">Innermost action</text><polygon fill="#F1F1F1" points="88.2363,157,112.2363,157,124.2363,169,112.2363,181,88.2363,181,76.2363,169,88.2363,157" style="stroke:#181818;stroke-width:0.5;"/><text fill="#000000" font-family="sans-serif" font-size="11" lengthAdjust="spacing" textLength="17.4829" x="104.2363" y="191.6348">yes</text><text fill="#000000" font-family="sans-serif" font-size="11" lengthAdjust="spacing" textLength="21.0063" x="89.7332" y="173.1572">W1?</text><rect fill="#F1F1F1" height="34.1328" rx="12.5" ry="12.5" style="stroke:#181818;stroke-width:0.5;" width="47.6211" x="191.4727" y="157"/><text fill="#000000" font-family="sans-serif" font-size="12" lengthAdjust="spacing" textLength="27.6211" x="201.4727" y="178.6016">Alt 1</text><polygon fill="#F1F1F1" points="157.7598,275.2676,169.7598,287.2676,157.7598,299.2676,145.7598,287.2676,157.7598,275.2676" style="stroke:#181818;stroke-width:0.5;"/><rect fill="#F1F1F1" height="34.1328" rx="12.5" ry="12.5" style="stroke:#181818;stroke-width:0.5;" width="47.6211" x="269.0938" y="123"/><text fill="#000000" font-family="sans-serif" font-size="12" lengthAdjust="spacing" textLength="27.6211" x="279.0938" y="144.6016">Alt 2</text><polygon fill="#F1F1F1" points="225.332,305.2676,237.332,317.2676,225.332,329.2676,213.332,317.2676,225.332,305.2676" style="stroke:#181818;stroke-width:0.5;"/><rect fill="#F1F1F1" height="34.1328" rx="12.5" ry="12.5" style="stroke:#181818;stroke-width:0.5;" width="47.6211" x="345.5122" y="89"/><text fill="#000000" font-family="sans-serif" font-size="12" lengthAdjust="spacing" textLength="27.6211" x="355.5122" y="110.6016">Alt 3</text><polygon fill="#F1F1F1" points="297.9287,335.2676,309.9287,347.2676,297.9287,359.2676,285.9287,347.2676,297.9287,335.2676" style="stroke:#181818;stroke-width:0.5;"/><ellipse cx="297.9287" cy="390.2676" fill="none" rx="11" ry="11" style="stroke:#222222;stroke-width:1;"/><ellipse cx="297.9287" cy="390.2676" fill="#222222" rx="6" ry="6" style="stroke:#222222;stroke-width:1;"/><line style="stroke:#181818;stroke-width:1;" x1="100.2363" x2="100.2363" y1="181" y2="213.1348"/><polygon fill="#181818" points="96.2363,203.1348,100.2363,213.1348,104.2363,203.1348,100.2363,207.1348" style="stroke:#181818;stroke-width:1;"/><line style="stroke:#181818;stroke-width:1;" x1="100.2363" x2="100.2363" y1="247.2676" y2="257.2676"/><line style="stroke:#181818;stroke-width:1;" x1="100.2363" x2="171.4727" y1="257.2676" y2="257.2676"/><polygon fill="#181818" points="167.4727,221.7236,171.4727,211.7236,175.4727,221.7236,171.4727,217.7236" style="stroke:#181818;stroke-width:1;"/><line style="stroke:#181818;stroke-width:1;" x1="171.4727" x2="171.4727" y1="169" y2="257.2676"/><line style="stroke:#181818;stroke-width:1;" x1="171.4727" x2="124.2363" y1="169" y2="169"/><polygon fill="#181818" points="134.2363,165,124.2363,169,134.2363,173,130.2363,169" style="stroke:#181818;stroke-width:1;"/><line style="stroke:#181818;stroke-width:1;" x1="76.2363" x2="29" y1="169" y2="169"/><polygon fill="#181818" points="25,216.7236,29,226.7236,33,216.7236,29,220.7236" style="stroke:#181818;stroke-width:1;"/><line style="stroke:#181818;stroke-width:1;" x1="29" x2="29" y1="169" y2="287.2676"/><line style="stroke:#181818;stroke-width:1;" x1="29" x2="145.7598" y1="287.2676" y2="287.2676"/><polygon fill="#181818" points="135.7598,283.2676,145.7598,287.2676,135.7598,291.2676,139.7598,287.2676" style="stroke:#181818;stroke-width:1;"/><line style="stroke:#181818;stroke-width:1;" x1="133.7598" x2="100.2363" y1="135" y2="135"/><line style="stroke:#181818;stroke-width:1;" x1="100.2363" x2="100.2363" y1="135" y2="157"/><polygon fill="#181818" points="96.2363,147,100.2363,157,104.2363,147,100.2363,151" style="stroke:#181818;stroke-width:1;"/><line style="stroke:#181818;stroke-width:1;" x1="181.7598" x2="215.2832" y1="135" y2="135"/><line style="stroke:#181818;stroke-width:1;" x1="215.2832" x2="215.2832" y1="135" y2="157"/><polygon fill="#181818" points="211.2832,147,215.2832,157,219.2832,147,215.2832,151" style="stroke:#181818;stroke-width:1;"/><line style="stroke:#181818;stroke-width:1;" x1="215.2832" x2="215.2832" y1="191.1328" y2="287.2676"/><line style="stroke:#181818;stroke-width:1;" x1="215.2832" x2="169.7598" y1="287.2676" y2="287.2676"/><polygon fill="#181818" points="179.7598,283.2676,169.7598,287.2676,179.7598,291.2676,175.7598,287.2676" style="stroke:#181818;stroke-width:1;"/><line style="stroke:#181818;stroke-width:1;" x1="201.332" x2="157.7598" y1="101" y2="101"/><line style="stroke:#181818;stroke-width:1;" x1="157.7598" x2="157.7598" y1="101" y2="123"/><polygon fill="#181818" points="153.7598,113,157.7598,123,161.7598,113,157.7598,117" style="stroke:#181818;stroke-width:1;"/><line style="stroke:#181818;stroke-width:1;" x1="249.332" x2="292.9043" y1="101" y2="101"/><line style="stroke:#181818;stroke-width:1;" x1="292.9043" x2="292.9043" y1="101" y2="123"/><polygon fill="#181818" points="288.9043,113,292.9043,123,296.9043,113,292.9043,117" style="stroke:#181818;stroke-width:1;"/><line style="stroke:#181818;stroke-width:1;" x1="157.7598" x2="157.7598" y1="299.2676" y2="317.2676"/><line style="stroke:#181818;stroke-width:1;" x1="157.7598" x2="213.332" y1="317.2676" y2="317.2676"/><polygon fill="#181818" points="203.332,313.2676,213.332,317.2676,203.332,321.2676,207.332,317.2676" style="stroke:#181818;stroke-width:1;"/><line style="stroke:#181818;stroke-width:1;" x1="292.9043" x2="292.9043" y1="157.1328" y2="317.2676"/><line style="stroke:#181818;stroke-width:1;" x1="292.9043" x2="237.332" y1="317.2676" y2="317.2676"/><polygon fill="#181818" points="247.332,313.2676,237.332,317.2676,247.332,321.2676,243.332,317.2676" style="stroke:#181818;stroke-width:1;"/><line style="stroke:#181818;stroke-width:1;" x1="273.9287" x2="225.332" y1="67" y2="67"/><line style="stroke:#181818;stroke-width:1;" x1="225.332" x2="225.332" y1="67" y2="89"/><polygon fill="#181818" points="221.332,79,225.332,89,229.332,79,225.332,83" style="stroke:#181818;stroke-width:1;"/><line style="stroke:#181818;stroke-width:1;" x1="321.9287" x2="369.3228" y1="67" y2="67"/><line style="stroke:#181818;stroke-width:1;" x1="369.3228" x2="369.3228" y1="67" y2="89"/><polygon fill="#181818" points="365.3228,79,369.3228,89,373.3228,79,369.3228,83" style="stroke:#181818;stroke-width:1;"/><line style="stroke:#181818;stroke-width:1;" x1="225.332" x2="225.332" y1="329.2676" y2="347.2676"/><line style="stroke:#181818;stroke-width:1;" x1="225.332" x2="285.9287" y1="347.2676" y2="347.2676"/><polygon fill="#181818" points="275.9287,343.2676,285.9287,347.2676,275.9287,351.2676,279.9287,347.2676" style="stroke:#181818;stroke-width:1;"/><line style="stroke:#181818;stroke-width:1;" x1="369.3228" x2="369.3228" y1="123.1328" y2="347.2676"/><line style="stroke:#181818;stroke-width:1;" x1="369.3228" x2="309.9287" y1="347.2676" y2="347.2676"/><polygon fill="#181818" points="319.9287,343.2676,309.9287,347.2676,319.9287,351.2676,315.9287,347.2676" style="stroke:#181818;stroke-width:1;"/><line style="stroke:#181818;stroke-width:1;" x1="297.9287" x2="297.9287" y1="35" y2="55"/><polygon fill="#181818" points="293.9287,45,297.9287,55,301.9287,45,297.9287,49" style="stroke:#181818;stroke-width:1;"/><line style="stroke:#181818;stroke-width:1;" x1="297.9287" x2="297.9287" y1="359.2676" y2="379.2676"/><polygon fill="#181818" points="293.9287,369.2676,297.9287,379.2676,301.9287,369.2676,297.9287,373.2676" style="stroke:#181818;stroke-width:1;"/><?plantuml-src POmn3u9034Rt-nNVU8p01eDnD75t9bf2axDdQ1FZlnTwc2YEVUzzLHjc2pmYdkj31Pj845-aLG2SDdkwyVQV0y-94o5UrbUiFmheJY8qtxCQXgjnbdvJ93SV-ab9bm-IFxlkc0nrIPUGnx1ll6ZMelXlwwxjGp5g-V46?></g></svg>