<svg xmlns="http://www.w3.org/2000/svg" xmlns:xlink="http://www.w3.org/1999/xlink" contentStyleType="text/css" data-diagram-type="ACTIVITY" height="205px" preserveAspectRatio="none" style="width:65px;height:205px;background:#FFFFFF;" version="1.1" viewBox="0 0 65 205" width="65px" zoomAndPan="magnify"><?plantuml 1.2026.3beta6?><defs/><g><ellipse cx="30.1396" cy="25" fill="#222222" rx="10" ry="10" style="stroke:#222222;stroke-width:1;"/><rect fill="#F1F1F1" height="34.1328" rx="12.5" ry="12.5" style="stroke:#181818;stroke-width:0.5;" width="28.2793" x="16" y="55"/><text fill="#000000" font-family="sans-serif" font-size="12" lengthAdjust="spacing" textLength="8.2793" x="26" y="76.6016">A</text><rect fill="#F1F1F1" height="34.1328" rx="12.5" ry="12.5" style="stroke:#181818;stroke-width:0.5;" width="26.9023" x="16.6885" y="109.1328"/><text fill="#000000" font-family="sans-serif" font-size="12" lengthAdjust="spacing" textLength="6.9023" x="26.6885" y="130.7344">B</text><ellipse cx="30.1396" cy="174.2656" fill="none" rx="11" ry="11" style="stroke:#222222;stroke-width:1;"/><ellipse cx="30.1396" cy="174.2656" fill="#222222" rx="6" ry="6" style="stroke:#222222;stroke-width:1;"/><line style="stroke:#181818;stroke-width:1;" x1="30.1396" x2="30.1396" y1="35" y2="55"/><polygon fill="#181818" points="26.1396,45,30.1396,55,34.1396,45,30.1396,49" style="stroke:#181818;stroke-width:1;"/><line style="stroke:#181818;stroke-width:2;" x1="30.1396" x2="30.1396" y1="89.1328" y2="109.1328"/><polygon fill="#181818" points="26.1396,99.1328,30.1396,109.1328,34.1396,99.1328,30.1396,103.1328" style="stroke:#181818;stroke-width:1;"/><line style="stroke:#181818;stroke-width:1;" x1="30.1396" x2="30.1396" y1="143.2656" y2="163.2656"/><polygon fill="#181818" points="26.1396,153.2656,30.1396,163.2656,34.1396,153.2656,30.1396,157.2656" style="stroke:#181818;stroke-width:1;"/><?plantuml-src Aov9B2hXidAqvjADJihFIOdLjUEoShBcAYx9Bm00?></g></svg>