<svg xmlns="http://www.w3.org/2000/svg" xmlns:xlink="http://www.w3.org/1999/xlink" contentStyleType="text/css" data-diagram-type="ACTIVITY" height="193px" preserveAspectRatio="none" style="width:226px;height:193px;background:#FFFFFF;" version="1.1" viewBox="0 0 226 193" width="226px" zoomAndPan="magnify"><?plantuml 1.2026.3beta6?><defs/><g><ellipse cx="118.5315" cy="25" fill="#222222" rx="10" ry="10" style="stroke:#222222;stroke-width:1;"/><rect fill="#F1F1F1" height="34.1328" rx="12.5" ry="12.5" style="stroke:#181818;stroke-width:0.5;" width="116.7324" x="60.1653" y="115.9551"/><text fill="#000000" font-family="sans-serif" font-size="12" lengthAdjust="spacing" textLength="96.7324" x="70.1653" y="137.5566">Process iteration</text><polygon fill="#F1F1F1" points="69.7163,55,167.3467,55,179.3467,67,167.3467,79,69.7163,79,57.7163,67,69.7163,55" style="stroke:#181818;stroke-width:0.5;"/><text fill="#000000" font-family="sans-serif" font-size="11" lengthAdjust="spacing" textLength="59.5708" x="122.5315" y="89.6348">keep going</text><text fill="#000000" font-family="sans-serif" font-size="11" lengthAdjust="spacing" textLength="97.6304" x="69.7163" y="71.1572">connection active?</text><text fill="#000000" font-family="sans-serif" font-size="11" lengthAdjust="spacing" textLength="42.7163" x="15" y="64.6797">finished</text><ellipse cx="37.1653" cy="114" fill="none" rx="11" ry="11" style="stroke:#222222;stroke-width:1;"/><ellipse cx="37.1653" cy="114" fill="#222222" rx="6" ry="6" style="stroke:#222222;stroke-width:1;"/><line style="stroke:#181818;stroke-width:1;" x1="118.5315" x2="118.5315" y1="79" y2="115.9551"/><polygon fill="#181818" points="114.5315,105.9551,118.5315,115.9551,122.5315,105.9551,118.5315,109.9551" style="stroke:#181818;stroke-width:1;"/><line style="stroke:#181818;stroke-width:1;" x1="118.5315" x2="118.5315" y1="150.0879" y2="160.0879"/><line style="stroke:#181818;stroke-width:1;" x1="118.5315" x2="191.3467" y1="160.0879" y2="160.0879"/><polygon fill="#181818" points="187.3467,124.5439,191.3467,114.5439,195.3467,124.5439,191.3467,120.5439" style="stroke:#181818;stroke-width:1;"/><line style="stroke:#181818;stroke-width:1;" x1="191.3467" x2="191.3467" y1="67" y2="160.0879"/><line style="stroke:#181818;stroke-width:1;" x1="191.3467" x2="179.3467" y1="67" y2="67"/><polygon fill="#181818" points="189.3467,63,179.3467,67,189.3467,71,185.3467,67" style="stroke:#181818;stroke-width:1;"/><line style="stroke:#181818;stroke-width:1;" x1="57.7163" x2="37.1653" y1="67" y2="67"/><line style="stroke:#181818;stroke-width:1;" x1="37.1653" x2="37.1653" y1="67" y2="103"/><polygon fill="#181818" points="33.1653,93,37.1653,103,41.1653,93,37.1653,97" style="stroke:#181818;stroke-width:1;"/><line style="stroke:#181818;stroke-width:1;" x1="118.5315" x2="118.5315" y1="35" y2="55"/><polygon fill="#181818" points="114.5315,45,118.5315,55,122.5315,45,118.5315,49" style="stroke:#181818;stroke-width:1;"/><?plantuml-src BSon3O0m30NHFbEu92j0mGgi42MVn0BPKMp1-e14TStJcQVXuMvyWgQi8iZEAfJUN5WZiT5q09sgijGOYEPjQ8OPiMEaJoy1Klx7piBMK68mr_u0?></g></svg>