<svg xmlns="http://www.w3.org/2000/svg" xmlns:xlink="http://www.w3.org/1999/xlink" contentStyleType="text/css" data-diagram-type="ACTIVITY" height="203px" preserveAspectRatio="none" style="width:301px;height:203px;background:#FFFFFF;" version="1.1" viewBox="0 0 301 203" width="301px" zoomAndPan="magnify"><?plantuml 1.2026.3beta6?><defs/><g><ellipse cx="69.5908" cy="25" fill="#222222" rx="10" ry="10" style="stroke:#222222;stroke-width:1;"/><path d="M133.1816,85.4111 L133.1816,110.7217 L280.665,110.7217 L280.665,95.4111 L270.665,85.4111 L133.1816,85.4111" fill="#FEFFDD" style="stroke:#181818;stroke-width:0.5;"/><path d="M270.665,85.4111 L270.665,95.4111 L280.665,95.4111 L270.665,85.4111" fill="#FEFFDD" style="stroke:#181818;stroke-width:0.5;"/><text fill="#000000" font-family="sans-serif" font-size="13" lengthAdjust="spacing" textLength="126.4834" x="139.1816" y="102.9795">Note after after fork</text><rect fill="#555555" height="6" rx="2.5" ry="2.5" style="stroke:#555555;stroke-width:1;" width="107.1816" x="16" y="55"/><rect fill="#F1F1F1" height="34.1328" rx="12.5" ry="12.5" style="stroke:#181818;stroke-width:0.5;" width="28.2793" x="28" y="81"/><text fill="#000000" font-family="sans-serif" font-size="12" lengthAdjust="spacing" textLength="8.2793" x="38" y="102.6016">A</text><rect fill="#F1F1F1" height="34.1328" rx="12.5" ry="12.5" style="stroke:#181818;stroke-width:0.5;" width="26.9023" x="84.2793" y="81"/><text fill="#000000" font-family="sans-serif" font-size="12" lengthAdjust="spacing" textLength="6.9023" x="94.2793" y="102.6016">B</text><rect fill="#555555" height="6" rx="2.5" ry="2.5" style="stroke:#555555;stroke-width:1;" width="107.1816" x="16" y="135.1328"/><ellipse cx="69.5908" cy="172.1328" fill="none" rx="11" ry="11" style="stroke:#222222;stroke-width:1;"/><ellipse cx="69.5908" cy="172.1328" fill="#222222" rx="6" ry="6" style="stroke:#222222;stroke-width:1;"/><line style="stroke:#181818;stroke-width:1;" x1="42.1396" x2="42.1396" y1="61" y2="81"/><polygon fill="#181818" points="38.1396,71,42.1396,81,46.1396,71,42.1396,75" style="stroke:#181818;stroke-width:1;"/><line style="stroke:#181818;stroke-width:1;" x1="97.7305" x2="97.7305" y1="61" y2="81"/><polygon fill="#181818" points="93.7305,71,97.7305,81,101.7305,71,97.7305,75" style="stroke:#181818;stroke-width:1;"/><line style="stroke:#181818;stroke-width:1;" x1="42.1396" x2="42.1396" y1="115.1328" y2="135.1328"/><polygon fill="#181818" points="38.1396,125.1328,42.1396,135.1328,46.1396,125.1328,42.1396,129.1328" style="stroke:#181818;stroke-width:1;"/><line style="stroke:#181818;stroke-width:1;" x1="97.7305" x2="97.7305" y1="115.1328" y2="135.1328"/><polygon fill="#181818" points="93.7305,125.1328,97.7305,135.1328,101.7305,125.1328,97.7305,129.1328" style="stroke:#181818;stroke-width:1;"/><line style="stroke:#181818;stroke-width:1;" x1="69.5908" x2="69.5908" y1="35" y2="55"/><polygon fill="#181818" points="65.5908,45,69.5908,55,73.5908,45,69.5908,49" style="stroke:#181818;stroke-width:1;"/><line style="stroke:#181818;stroke-width:1;" x1="69.5908" x2="69.5908" y1="141.1328" y2="161.1328"/><polygon fill="#181818" points="65.5908,151.1328,69.5908,161.1328,73.5908,151.1328,69.5908,155.1328" style="stroke:#181818;stroke-width:1;"/><?plantuml-src Aov9B2hXIiilokPIKB1oj0Op5HBJ4pFpG09ErbofUIaAOFcy_99KXQBCz8mIAmK_43inhIIr24g2LHINv1S00000?></g></svg>