<svg xmlns="http://www.w3.org/2000/svg" xmlns:xlink="http://www.w3.org/1999/xlink" contentStyleType="text/css" data-diagram-type="ACTIVITY" height="618px" preserveAspectRatio="none" style="width:514px;height:618px;background:#FFFFFF;" version="1.1" viewBox="0 0 514 618" width="514px" zoomAndPan="magnify"><?plantuml 1.2026.3beta6?><defs/><g><rect fill="none" height="21.1992" style="stroke:none;stroke-width:1;" width="467.877" x="20" y="17.2969"/><ellipse cx="77.1287" cy="53.4961" fill="#222222" rx="10" ry="10" style="stroke:#222222;stroke-width:1;"/><rect fill="#F1F1F1" height="34.1328" rx="12.5" ry="12.5" style="stroke:#181818;stroke-width:0.5;" width="49.5605" x="52.3484" y="139.6309"/><text fill="#000000" font-family="sans-serif" font-size="12" lengthAdjust="spacing" textLength="29.5605" x="62.3484" y="161.2324">Work</text><polygon fill="#F1F1F1" points="63,83.4961,91.2573,83.4961,103.2573,95.4961,91.2573,107.4961,63,107.4961,51,95.4961,63,83.4961" style="stroke:#181818;stroke-width:0.5;"/><text fill="#000000" font-family="sans-serif" font-size="11" lengthAdjust="spacing" textLength="17.4829" x="81.1287" y="118.1309">yes</text><text fill="#000000" font-family="sans-serif" font-size="11" lengthAdjust="spacing" textLength="28.2573" x="63" y="99.6533">loop?</text><line style="stroke:#000000;stroke-width:1.5;" x1="20" x2="20" y1="17.2969" y2="597.3867"/><rect fill="#F1F1F1" height="34.1328" rx="12.5" ry="12.5" style="stroke:#181818;stroke-width:0.5;" width="49.5605" x="166.6057" y="271.8984"/><text fill="#000000" font-family="sans-serif" font-size="12" lengthAdjust="spacing" textLength="29.5605" x="176.6057" y="293.5">Work</text><polygon fill="#F1F1F1" points="177.2573,215.7637,205.5146,215.7637,217.5146,227.7637,205.5146,239.7637,177.2573,239.7637,165.2573,227.7637,177.2573,215.7637" style="stroke:#181818;stroke-width:0.5;"/><text fill="#000000" font-family="sans-serif" font-size="11" lengthAdjust="spacing" textLength="17.4829" x="195.386" y="250.3984">yes</text><text fill="#000000" font-family="sans-serif" font-size="11" lengthAdjust="spacing" textLength="28.2573" x="177.2573" y="231.9209">loop?</text><line style="stroke:#000000;stroke-width:1.5;" x1="134.2573" x2="134.2573" y1="17.2969" y2="597.3867"/><rect fill="#F1F1F1" height="34.1328" rx="12.5" ry="12.5" style="stroke:#181818;stroke-width:0.5;" width="49.5605" x="280.863" y="404.166"/><text fill="#000000" font-family="sans-serif" font-size="12" lengthAdjust="spacing" textLength="29.5605" x="290.863" y="425.7676">Work</text><polygon fill="#F1F1F1" points="291.5146,348.0313,319.772,348.0313,331.772,360.0313,319.772,372.0313,291.5146,372.0313,279.5146,360.0313,291.5146,348.0313" style="stroke:#181818;stroke-width:0.5;"/><text fill="#000000" font-family="sans-serif" font-size="11" lengthAdjust="spacing" textLength="17.4829" x="309.6433" y="382.666">yes</text><text fill="#000000" font-family="sans-serif" font-size="11" lengthAdjust="spacing" textLength="28.2573" x="291.5146" y="364.1885">loop?</text><line style="stroke:#000000;stroke-width:1.5;" x1="248.5146" x2="248.5146" y1="17.2969" y2="597.3867"/><rect fill="#F1F1F1" height="34.1328" rx="12.5" ry="12.5" style="stroke:#181818;stroke-width:0.5;" width="49.5605" x="404.1204" y="541.2539"/><text fill="#000000" font-family="sans-serif" font-size="12" lengthAdjust="spacing" textLength="29.5605" x="414.1204" y="562.8555">Work</text><polygon fill="#F1F1F1" points="414.772,480.2988,443.0293,480.2988,455.0293,492.2988,443.0293,504.2988,414.772,504.2988,402.772,492.2988,414.772,480.2988" style="stroke:#181818;stroke-width:0.5;"/><text fill="#000000" font-family="sans-serif" font-size="11" lengthAdjust="spacing" textLength="17.4829" x="432.9006" y="514.9336">yes</text><text fill="#000000" font-family="sans-serif" font-size="11" lengthAdjust="spacing" textLength="28.2573" x="414.772" y="496.4561">loop?</text><ellipse cx="381.772" cy="539.2988" fill="none" rx="11" ry="11" style="stroke:#222222;stroke-width:1;"/><ellipse cx="381.772" cy="539.2988" fill="#222222" rx="6" ry="6" style="stroke:#222222;stroke-width:1;"/><line style="stroke:#000000;stroke-width:1.5;" x1="362.772" x2="362.772" y1="17.2969" y2="597.3867"/><line style="stroke:#000000;stroke-width:1.5;" x1="486.0293" x2="486.0293" y1="17.2969" y2="597.3867"/><line style="stroke:#181818;stroke-width:1;" x1="77.1287" x2="77.1287" y1="107.4961" y2="139.6309"/><polygon fill="#181818" points="73.1287,129.6309,77.1287,139.6309,81.1287,129.6309,77.1287,133.6309" style="stroke:#181818;stroke-width:1;"/><line style="stroke:#181818;stroke-width:1;" x1="77.1287" x2="77.1287" y1="173.7637" y2="183.7637"/><line style="stroke:#181818;stroke-width:1;" x1="77.1287" x2="115.2573" y1="183.7637" y2="183.7637"/><polygon fill="#181818" points="111.2573,148.2197,115.2573,138.2197,119.2573,148.2197,115.2573,144.2197" style="stroke:#181818;stroke-width:1;"/><line style="stroke:#181818;stroke-width:1;" x1="115.2573" x2="115.2573" y1="95.4961" y2="183.7637"/><line style="stroke:#181818;stroke-width:1;" x1="115.2573" x2="103.2573" y1="95.4961" y2="95.4961"/><polygon fill="#181818" points="113.2573,91.4961,103.2573,95.4961,113.2573,99.4961,109.2573,95.4961" style="stroke:#181818;stroke-width:1;"/><line style="stroke:#181818;stroke-width:1;" x1="51" x2="39" y1="95.4961" y2="95.4961"/><polygon fill="#181818" points="35,142.9697,39,152.9697,43,142.9697,39,146.9697" style="stroke:#181818;stroke-width:1;"/><line style="stroke:#181818;stroke-width:1;" x1="39" x2="39" y1="95.4961" y2="200.7637"/><line style="stroke:#181818;stroke-width:1;" x1="39" x2="191.386" y1="200.7637" y2="200.7637"/><line style="stroke:#181818;stroke-width:1;" x1="191.386" x2="191.386" y1="200.7637" y2="215.7637"/><polygon fill="#181818" points="187.386,205.7637,191.386,215.7637,195.386,205.7637,191.386,209.7637" style="stroke:#181818;stroke-width:1;"/><line style="stroke:#181818;stroke-width:1;" x1="77.1287" x2="77.1287" y1="63.4961" y2="83.4961"/><polygon fill="#181818" points="73.1287,73.4961,77.1287,83.4961,81.1287,73.4961,77.1287,77.4961" style="stroke:#181818;stroke-width:1;"/><line style="stroke:#181818;stroke-width:1;" x1="191.386" x2="191.386" y1="239.7637" y2="271.8984"/><polygon fill="#181818" points="187.386,261.8984,191.386,271.8984,195.386,261.8984,191.386,265.8984" style="stroke:#181818;stroke-width:1;"/><line style="stroke:#181818;stroke-width:1;" x1="191.386" x2="191.386" y1="306.0313" y2="316.0313"/><line style="stroke:#181818;stroke-width:1;" x1="191.386" x2="229.5146" y1="316.0313" y2="316.0313"/><polygon fill="#181818" points="225.5146,280.4873,229.5146,270.4873,233.5146,280.4873,229.5146,276.4873" style="stroke:#181818;stroke-width:1;"/><line style="stroke:#181818;stroke-width:1;" x1="229.5146" x2="229.5146" y1="227.7637" y2="316.0313"/><line style="stroke:#181818;stroke-width:1;" x1="229.5146" x2="217.5146" y1="227.7637" y2="227.7637"/><polygon fill="#181818" points="227.5146,223.7637,217.5146,227.7637,227.5146,231.7637,223.5146,227.7637" style="stroke:#181818;stroke-width:1;"/><line style="stroke:#181818;stroke-width:1;" x1="165.2573" x2="153.2573" y1="227.7637" y2="227.7637"/><polygon fill="#181818" points="149.2573,275.2373,153.2573,285.2373,157.2573,275.2373,153.2573,279.2373" style="stroke:#181818;stroke-width:1;"/><line style="stroke:#181818;stroke-width:1;" x1="153.2573" x2="153.2573" y1="227.7637" y2="333.0313"/><line style="stroke:#181818;stroke-width:1;" x1="153.2573" x2="305.6433" y1="333.0313" y2="333.0313"/><line style="stroke:#181818;stroke-width:1;" x1="305.6433" x2="305.6433" y1="333.0313" y2="348.0313"/><polygon fill="#181818" points="301.6433,338.0313,305.6433,348.0313,309.6433,338.0313,305.6433,342.0313" style="stroke:#181818;stroke-width:1;"/><line style="stroke:#181818;stroke-width:1;" x1="305.6433" x2="305.6433" y1="372.0313" y2="404.166"/><polygon fill="#181818" points="301.6433,394.166,305.6433,404.166,309.6433,394.166,305.6433,398.166" style="stroke:#181818;stroke-width:1;"/><line style="stroke:#181818;stroke-width:1;" x1="305.6433" x2="305.6433" y1="438.2988" y2="448.2988"/><line style="stroke:#181818;stroke-width:1;" x1="305.6433" x2="343.772" y1="448.2988" y2="448.2988"/><polygon fill="#181818" points="339.772,412.7549,343.772,402.7549,347.772,412.7549,343.772,408.7549" style="stroke:#181818;stroke-width:1;"/><line style="stroke:#181818;stroke-width:1;" x1="343.772" x2="343.772" y1="360.0313" y2="448.2988"/><line style="stroke:#181818;stroke-width:1;" x1="343.772" x2="331.772" y1="360.0313" y2="360.0313"/><polygon fill="#181818" points="341.772,356.0313,331.772,360.0313,341.772,364.0313,337.772,360.0313" style="stroke:#181818;stroke-width:1;"/><line style="stroke:#181818;stroke-width:1;" x1="279.5146" x2="267.5146" y1="360.0313" y2="360.0313"/><polygon fill="#181818" points="263.5146,407.5049,267.5146,417.5049,271.5146,407.5049,267.5146,411.5049" style="stroke:#181818;stroke-width:1;"/><line style="stroke:#181818;stroke-width:1;" x1="267.5146" x2="267.5146" y1="360.0313" y2="465.2988"/><line style="stroke:#181818;stroke-width:1;" x1="267.5146" x2="428.9006" y1="465.2988" y2="465.2988"/><line style="stroke:#181818;stroke-width:1;" x1="428.9006" x2="428.9006" y1="465.2988" y2="480.2988"/><polygon fill="#181818" points="424.9006,470.2988,428.9006,480.2988,432.9006,470.2988,428.9006,474.2988" style="stroke:#181818;stroke-width:1;"/><line style="stroke:#181818;stroke-width:1;" x1="428.9006" x2="428.9006" y1="504.2988" y2="541.2539"/><polygon fill="#181818" points="424.9006,531.2539,428.9006,541.2539,432.9006,531.2539,428.9006,535.2539" style="stroke:#181818;stroke-width:1;"/><line style="stroke:#181818;stroke-width:1;" x1="428.9006" x2="428.9006" y1="575.3867" y2="585.3867"/><line style="stroke:#181818;stroke-width:1;" x1="428.9006" x2="467.0293" y1="585.3867" y2="585.3867"/><polygon fill="#181818" points="463.0293,549.8428,467.0293,539.8428,471.0293,549.8428,467.0293,545.8428" style="stroke:#181818;stroke-width:1;"/><line style="stroke:#181818;stroke-width:1;" x1="467.0293" x2="467.0293" y1="492.2988" y2="585.3867"/><line style="stroke:#181818;stroke-width:1;" x1="467.0293" x2="455.0293" y1="492.2988" y2="492.2988"/><polygon fill="#181818" points="465.0293,488.2988,455.0293,492.2988,465.0293,496.2988,461.0293,492.2988" style="stroke:#181818;stroke-width:1;"/><line style="stroke:#181818;stroke-width:1;" x1="402.772" x2="381.772" y1="492.2988" y2="492.2988"/><line style="stroke:#181818;stroke-width:1;" x1="381.772" x2="381.772" y1="492.2988" y2="528.2988"/><polygon fill="#181818" points="377.772,518.2988,381.772,528.2988,385.772,518.2988,381.772,522.2988" style="stroke:#181818;stroke-width:1;"/><text fill="#000000" font-family="sans-serif" font-size="18" lengthAdjust="spacing" textLength="20.9795" x="66.6389" y="34.6992">L1</text><text fill="#000000" font-family="sans-serif" font-size="18" lengthAdjust="spacing" textLength="20.9795" x="180.8962" y="34.6992">L2</text><text fill="#000000" font-family="sans-serif" font-size="18" lengthAdjust="spacing" textLength="20.9795" x="295.1536" y="34.6992">L3</text><text fill="#000000" font-family="sans-serif" font-size="18" lengthAdjust="spacing" textLength="20.9795" x="413.9109" y="34.6992">L4</text><?plantuml-src g_4nhE4gBaaiAk4gpyZCILNGoCdFBx3NLCWiLj2eJ2tMv59Gi0hFBygsvahDIm4huQhnCQeXHRKnIQfDI51TN99V0000?></g></svg>