<svg xmlns="http://www.w3.org/2000/svg" xmlns:xlink="http://www.w3.org/1999/xlink" contentStyleType="text/css" data-diagram-type="ACTIVITY" height="665px" preserveAspectRatio="none" style="width:1109px;height:665px;background:#FFFFFF;" version="1.1" viewBox="0 0 1109 665" width="1109px" zoomAndPan="magnify"><?plantuml 1.2026.3beta6?><defs/><g><g class="title" data-source-line="1"><text fill="#000000" font-family="sans-serif" font-size="14" font-weight="700" lengthAdjust="spacing" textLength="215.5781" x="445.7902" y="33.5352">End-to-End Order Processing</text></g><rect fill="none" height="21.1992" style="stroke:none;stroke-width:1;" width="1062.1584" x="20" y="54.7852"/><ellipse cx="272.6494" cy="90.9844" fill="#222222" rx="10" ry="10" style="stroke:#222222;stroke-width:1;"/><rect fill="#F1F1F1" height="34.1328" rx="12.5" ry="12.5" style="stroke:#181818;stroke-width:0.5;" width="84.7871" x="230.2559" y="120.9844"/><text fill="#000000" font-family="sans-serif" font-size="12" lengthAdjust="spacing" textLength="64.7871" x="240.2559" y="142.5859">Place order</text><rect fill="#F1F1F1" height="34.1328" rx="12.5" ry="12.5" style="stroke:#181818;stroke-width:0.5;" width="141.6289" x="26" y="536.6484"/><text fill="#000000" font-family="sans-serif" font-size="12" lengthAdjust="spacing" textLength="121.6289" x="36" y="558.25">Receive confirmation</text><ellipse cx="96.8145" cy="601.7813" fill="none" rx="11" ry="11" style="stroke:#222222;stroke-width:1;"/><ellipse cx="96.8145" cy="601.7813" fill="#222222" rx="6" ry="6" style="stroke:#222222;stroke-width:1;"/><rect fill="#F1F1F1" height="34.1328" rx="12.5" ry="12.5" style="stroke:#181818;stroke-width:0.5;" width="95.6914" x="177.6289" y="482.5156"/><text fill="#000000" font-family="sans-serif" font-size="12" lengthAdjust="spacing" textLength="75.6914" x="187.6289" y="504.1172">Notify failure</text><ellipse cx="225.4746" cy="547.6484" fill="none" rx="11" ry="11" style="stroke:#222222;stroke-width:1;"/><ellipse cx="225.4746" cy="547.6484" fill="#222222" rx="6" ry="6" style="stroke:#222222;stroke-width:1;"/><rect fill="#F1F1F1" height="34.1328" rx="12.5" ry="12.5" style="stroke:#181818;stroke-width:0.5;" width="149.7559" x="314.2764" y="273.25"/><text fill="#000000" font-family="sans-serif" font-size="12" lengthAdjust="spacing" textLength="129.7559" x="324.2764" y="294.8516">Show validation errors</text><ellipse cx="389.1543" cy="353.3828" fill="none" rx="11" ry="11" style="stroke:#222222;stroke-width:1;"/><ellipse cx="389.1543" cy="353.3828" fill="#222222" rx="6" ry="6" style="stroke:#222222;stroke-width:1;"/><line style="stroke:#000000;stroke-width:1.5;" x1="20" x2="20" y1="54.7852" y2="644.7813"/><rect fill="#F1F1F1" height="34.1328" rx="12.5" ry="12.5" style="stroke:#181818;stroke-width:0.5;" width="101.9902" x="534.8301" y="175.1172"/><text fill="#000000" font-family="sans-serif" font-size="12" lengthAdjust="spacing" textLength="81.9902" x="544.8301" y="196.7188">Validate order</text><polygon fill="#F1F1F1" points="570.9795,229.25,600.6709,229.25,612.6709,241.25,600.6709,253.25,570.9795,253.25,558.9795,241.25,570.9795,229.25" style="stroke:#181818;stroke-width:0.5;"/><text fill="#000000" font-family="sans-serif" font-size="11" lengthAdjust="spacing" textLength="29.6914" x="570.9795" y="245.4072">valid?</text><text fill="#000000" font-family="sans-serif" font-size="11" lengthAdjust="spacing" textLength="17.4829" x="541.4966" y="238.9297">yes</text><text fill="#000000" font-family="sans-serif" font-size="11" lengthAdjust="spacing" textLength="13.5835" x="612.6709" y="238.9297">no</text><rect fill="#555555" height="6" rx="2.5" ry="2.5" style="stroke:#555555;stroke-width:1;" width="133.4199" x="474.0322" y="273.25"/><rect fill="#F1F1F1" height="34.1328" rx="12.5" ry="12.5" style="stroke:#181818;stroke-width:0.5;" width="69.2363" x="504.0322" y="428.3828"/><text fill="#000000" font-family="sans-serif" font-size="12" lengthAdjust="spacing" textLength="49.2363" x="514.0322" y="449.9844">Rollback</text><line style="stroke:#000000;stroke-width:1.5;" x1="468.0322" x2="468.0322" y1="54.7852" y2="644.7813"/><rect fill="#F1F1F1" height="34.1328" rx="12.5" ry="12.5" style="stroke:#181818;stroke-width:0.5;" width="100.6426" x="646.8203" y="299.25"/><text fill="#000000" font-family="sans-serif" font-size="12" lengthAdjust="spacing" textLength="80.6426" x="656.8203" y="320.8516">Reserve items</text><line style="stroke:#000000;stroke-width:1.5;" x1="640.8203" x2="640.8203" y1="54.7852" y2="644.7813"/><rect fill="#F1F1F1" height="34.1328" rx="12.5" ry="12.5" style="stroke:#181818;stroke-width:0.5;" width="119.6211" x="841.7014" y="299.25"/><text fill="#000000" font-family="sans-serif" font-size="12" lengthAdjust="spacing" textLength="99.6211" x="851.7014" y="320.8516">Charge customer</text><rect fill="#555555" height="6" rx="2.5" ry="2.5" style="stroke:#555555;stroke-width:1;" width="215.8596" x="757.4629" y="353.3828"/><polygon fill="#F1F1F1" points="798.9458,384.3828,875.4355,384.3828,887.4355,396.3828,875.4355,408.3828,798.9458,408.3828,786.9458,396.3828,798.9458,384.3828" style="stroke:#181818;stroke-width:0.5;"/><text fill="#000000" font-family="sans-serif" font-size="11" lengthAdjust="spacing" textLength="76.4897" x="798.9458" y="400.54">all succeeded?</text><text fill="#000000" font-family="sans-serif" font-size="11" lengthAdjust="spacing" textLength="17.4829" x="769.4629" y="394.0625">yes</text><text fill="#000000" font-family="sans-serif" font-size="11" lengthAdjust="spacing" textLength="13.5835" x="887.4355" y="394.0625">no</text><line style="stroke:#000000;stroke-width:1.5;" x1="751.4629" x2="751.4629" y1="54.7852" y2="644.7813"/><rect fill="#F1F1F1" height="34.1328" rx="12.5" ry="12.5" style="stroke:#181818;stroke-width:0.5;" width="81.6465" x="988.9934" y="428.3828"/><text fill="#000000" font-family="sans-serif" font-size="12" lengthAdjust="spacing" textLength="61.6465" x="998.9934" y="449.9844">Pack order</text><rect fill="#F1F1F1" height="34.1328" rx="12.5" ry="12.5" style="stroke:#181818;stroke-width:0.5;" width="80.1582" x="989.7375" y="482.5156"/><text fill="#000000" font-family="sans-serif" font-size="12" lengthAdjust="spacing" textLength="60.1582" x="999.7375" y="504.1172">Ship order</text><line style="stroke:#000000;stroke-width:1.5;" x1="977.3225" x2="977.3225" y1="54.7852" y2="644.7813"/><line style="stroke:#000000;stroke-width:1.5;" x1="1080.3108" x2="1080.3108" y1="54.7852" y2="644.7813"/><line style="stroke:#181818;stroke-width:1;" x1="272.6494" x2="272.6494" y1="100.9844" y2="120.9844"/><polygon fill="#181818" points="268.6494,110.9844,272.6494,120.9844,276.6494,110.9844,272.6494,114.9844" style="stroke:#181818;stroke-width:1;"/><line style="stroke:#181818;stroke-width:1;" x1="96.8145" x2="96.8145" y1="570.7813" y2="590.7813"/><polygon fill="#181818" points="92.8145,580.7813,96.8145,590.7813,100.8145,580.7813,96.8145,584.7813" style="stroke:#181818;stroke-width:1;"/><line style="stroke:#181818;stroke-width:1;" x1="225.4746" x2="225.4746" y1="516.6484" y2="536.6484"/><polygon fill="#181818" points="221.4746,526.6484,225.4746,536.6484,229.4746,526.6484,225.4746,530.6484" style="stroke:#181818;stroke-width:1;"/><line style="stroke:#181818;stroke-width:1;" x1="389.1543" x2="389.1543" y1="307.3828" y2="342.3828"/><polygon fill="#181818" points="385.1543,332.3828,389.1543,342.3828,393.1543,332.3828,389.1543,336.3828" style="stroke:#181818;stroke-width:1;"/><line style="stroke:#181818;stroke-width:1;" x1="558.9795" x2="490.0322" y1="241.25" y2="241.25"/><line style="stroke:#181818;stroke-width:1;" x1="490.0322" x2="490.0322" y1="241.25" y2="273.25"/><polygon fill="#181818" points="486.0322,263.25,490.0322,273.25,494.0322,263.25,490.0322,267.25" style="stroke:#181818;stroke-width:1;"/><line style="stroke:#181818;stroke-width:1;" x1="585.8252" x2="585.8252" y1="209.25" y2="229.25"/><polygon fill="#181818" points="581.8252,219.25,585.8252,229.25,589.8252,219.25,585.8252,223.25" style="stroke:#181818;stroke-width:1;"/><line style="stroke:#181818;stroke-width:1;" x1="901.512" x2="901.512" y1="333.3828" y2="353.3828"/><polygon fill="#181818" points="897.512,343.3828,901.512,353.3828,905.512,343.3828,901.512,347.3828" style="stroke:#181818;stroke-width:1;"/><line style="stroke:#181818;stroke-width:1;" x1="837.1907" x2="837.1907" y1="359.3828" y2="384.3828"/><polygon fill="#181818" points="833.1907,374.3828,837.1907,384.3828,841.1907,374.3828,837.1907,378.3828" style="stroke:#181818;stroke-width:1;"/><line style="stroke:#181818;stroke-width:1;" x1="1029.8167" x2="1029.8167" y1="462.5156" y2="482.5156"/><polygon fill="#181818" points="1025.8167,472.5156,1029.8167,482.5156,1033.8167,472.5156,1029.8167,476.5156" style="stroke:#181818;stroke-width:1;"/><line style="stroke:#181818;stroke-width:1;" x1="272.6494" x2="272.6494" y1="155.1172" y2="160.1172"/><line style="stroke:#181818;stroke-width:1;" x1="272.6494" x2="585.8252" y1="160.1172" y2="160.1172"/><line style="stroke:#181818;stroke-width:1;" x1="585.8252" x2="585.8252" y1="160.1172" y2="175.1172"/><polygon fill="#181818" points="581.8252,165.1172,585.8252,175.1172,589.8252,165.1172,585.8252,169.1172" style="stroke:#181818;stroke-width:1;"/><line style="stroke:#181818;stroke-width:1;" x1="481.0322" x2="481.0322" y1="279.25" y2="283.25"/><line style="stroke:#181818;stroke-width:1;" x1="481.0322" x2="697.1416" y1="283.25" y2="283.25"/><line style="stroke:#181818;stroke-width:1;" x1="697.1416" x2="697.1416" y1="283.25" y2="299.25"/><polygon fill="#181818" points="693.1416,289.25,697.1416,299.25,701.1416,289.25,697.1416,293.25" style="stroke:#181818;stroke-width:1;"/><line style="stroke:#181818;stroke-width:1;" x1="533.6416" x2="533.6416" y1="279.25" y2="283.25"/><line style="stroke:#181818;stroke-width:1;" x1="533.6416" x2="901.512" y1="283.25" y2="283.25"/><line style="stroke:#181818;stroke-width:1;" x1="901.512" x2="901.512" y1="283.25" y2="299.25"/><polygon fill="#181818" points="897.512,289.25,901.512,299.25,905.512,289.25,901.512,293.25" style="stroke:#181818;stroke-width:1;"/><line style="stroke:#181818;stroke-width:1;" x1="697.1416" x2="697.1416" y1="333.3828" y2="339.3828"/><line style="stroke:#181818;stroke-width:1;" x1="697.1416" x2="764.4629" y1="339.3828" y2="339.3828"/><line style="stroke:#181818;stroke-width:1;" x1="764.4629" x2="764.4629" y1="339.3828" y2="353.3828"/><polygon fill="#181818" points="760.4629,343.3828,764.4629,353.3828,768.4629,343.3828,764.4629,347.3828" style="stroke:#181818;stroke-width:1;"/><line style="stroke:#181818;stroke-width:1;" x1="1029.8167" x2="1029.8167" y1="516.6484" y2="521.6484"/><line style="stroke:#181818;stroke-width:1;" x1="1029.8167" x2="96.8145" y1="521.6484" y2="521.6484"/><line style="stroke:#181818;stroke-width:1;" x1="96.8145" x2="96.8145" y1="521.6484" y2="536.6484"/><polygon fill="#181818" points="92.8145,526.6484,96.8145,536.6484,100.8145,526.6484,96.8145,530.6484" style="stroke:#181818;stroke-width:1;"/><line style="stroke:#181818;stroke-width:1;" x1="538.6504" x2="538.6504" y1="462.5156" y2="467.5156"/><line style="stroke:#181818;stroke-width:1;" x1="538.6504" x2="225.4746" y1="467.5156" y2="467.5156"/><line style="stroke:#181818;stroke-width:1;" x1="225.4746" x2="225.4746" y1="467.5156" y2="482.5156"/><polygon fill="#181818" points="221.4746,472.5156,225.4746,482.5156,229.4746,472.5156,225.4746,476.5156" style="stroke:#181818;stroke-width:1;"/><line style="stroke:#181818;stroke-width:1;" x1="786.9458" x2="774.9458" y1="396.3828" y2="396.3828"/><line style="stroke:#181818;stroke-width:1;" x1="774.9458" x2="774.9458" y1="396.3828" y2="414.3828"/><line style="stroke:#181818;stroke-width:1;" x1="774.9458" x2="1029.8167" y1="414.3828" y2="414.3828"/><line style="stroke:#181818;stroke-width:1;" x1="1029.8167" x2="1029.8167" y1="414.3828" y2="428.3828"/><polygon fill="#181818" points="1025.8167,418.3828,1029.8167,428.3828,1033.8167,418.3828,1029.8167,422.3828" style="stroke:#181818;stroke-width:1;"/><line style="stroke:#181818;stroke-width:1;" x1="887.4355" x2="899.4355" y1="396.3828" y2="396.3828"/><line style="stroke:#181818;stroke-width:1;" x1="899.4355" x2="899.4355" y1="396.3828" y2="414.3828"/><line style="stroke:#181818;stroke-width:1;" x1="899.4355" x2="538.6504" y1="414.3828" y2="414.3828"/><line style="stroke:#181818;stroke-width:1;" x1="538.6504" x2="538.6504" y1="414.3828" y2="428.3828"/><polygon fill="#181818" points="534.6504,418.3828,538.6504,428.3828,542.6504,418.3828,538.6504,422.3828" style="stroke:#181818;stroke-width:1;"/><line style="stroke:#181818;stroke-width:1;" x1="612.6709" x2="624.6709" y1="241.25" y2="241.25"/><line style="stroke:#181818;stroke-width:1;" x1="624.6709" x2="624.6709" y1="241.25" y2="259.25"/><line style="stroke:#181818;stroke-width:1;" x1="624.6709" x2="389.1543" y1="259.25" y2="259.25"/><line style="stroke:#181818;stroke-width:1;" x1="389.1543" x2="389.1543" y1="259.25" y2="273.25"/><polygon fill="#181818" points="385.1543,263.25,389.1543,273.25,393.1543,263.25,389.1543,267.25" style="stroke:#181818;stroke-width:1;"/><text fill="#000000" font-family="sans-serif" font-size="18" lengthAdjust="spacing" textLength="84.7881" x="201.6221" y="72.1875">Customer</text><text fill="#000000" font-family="sans-serif" font-size="18" lengthAdjust="spacing" textLength="116.6221" x="496.1152" y="72.1875">Order Service</text><text fill="#000000" font-family="sans-serif" font-size="18" lengthAdjust="spacing" textLength="81.4307" x="655.4263" y="72.1875">Inventory</text><text fill="#000000" font-family="sans-serif" font-size="18" lengthAdjust="spacing" textLength="74.0303" x="827.3776" y="72.1875">Payment</text><text fill="#000000" font-family="sans-serif" font-size="18" lengthAdjust="spacing" textLength="92.9883" x="982.3225" y="72.1875">Fulfillment</text><?plantuml-src RL6zJiCm4Dxz53UcGryW7HWga5WWeXAxSSx9gOwlEZj1aVpms4b0AJ2T_EdxktEaw10UVNkCVCm3NgL5WKROO0ZaEwNIUGoH1vIaGjGILTquRH2uC4yghOeBoaG6awhVjQDMnny2MQYcWZqS8FReePen71I0PRdc0P2U_OG-iinfUTTl6B8T0aKSmcd12XbqfyclaaRFGzPiWdElfKCmMzCYmRpCbb0QQESWZCOWjlYdIVPx6fqbvtQUZJRNxnqMuDBJRG_i3hErDaYvjM5lIGOTYVtApBHRgUG2GkLvY_nrkDM3dVl8mVydl70aEuFLv4R1Us_VabNxX3jnBi-VCArVati1Yh0ijrqC5laN?></g></svg>