<svg xmlns="http://www.w3.org/2000/svg" xmlns:xlink="http://www.w3.org/1999/xlink" contentStyleType="text/css" data-diagram-type="ACTIVITY" height="439px" preserveAspectRatio="none" style="width:136px;height:439px;background:#FFFFFF;" version="1.1" viewBox="0 0 136 439" width="136px" zoomAndPan="magnify"><?plantuml 1.2026.3beta6?><defs/><g><ellipse cx="51.0212" cy="25" fill="#222222" rx="10" ry="10" style="stroke:#222222;stroke-width:1;"/><rect fill="#F1F1F1" height="34.1328" rx="12.5" ry="12.5" style="stroke:#181818;stroke-width:0.5;" width="49.5605" x="26.241" y="99"/><text fill="#000000" font-family="sans-serif" font-size="12" lengthAdjust="spacing" textLength="29.5605" x="36.241" y="120.6016">Work</text><rect fill="#F1F1F1" height="34.1328" rx="12.5" ry="12.5" style="stroke:#181818;stroke-width:0.5;" width="49.3027" x="26.3699" y="153.1328"/><text fill="#000000" font-family="sans-serif" font-size="12" lengthAdjust="spacing" textLength="29.3027" x="36.3699" y="174.7344">More</text><polygon fill="#F1F1F1" points="37,222.2656,65.0425,222.2656,77.0425,234.2656,65.0425,246.2656,37,246.2656,25,234.2656,37,222.2656" style="stroke:#181818;stroke-width:0.5;"/><text fill="#000000" font-family="sans-serif" font-size="11" lengthAdjust="spacing" textLength="17.4829" x="55.0212" y="256.9004">yes</text><text fill="#000000" font-family="sans-serif" font-size="11" lengthAdjust="spacing" textLength="28.0425" x="37" y="238.4229">stop?</text><polygon fill="#F1F1F1" points="51.0212,55,63.0212,67,51.0212,79,39.0212,67,51.0212,55" style="stroke:#181818;stroke-width:0.5;"/><polygon fill="#F1F1F1" points="37.0349,309.7432,65.0076,309.7432,77.0076,321.7432,65.0076,333.7432,37.0349,333.7432,25.0349,321.7432,37.0349,309.7432" style="stroke:#181818;stroke-width:0.5;"/><text fill="#000000" font-family="sans-serif" font-size="11" lengthAdjust="spacing" textLength="27.9727" x="37.0349" y="325.9004">cont?</text><text fill="#000000" font-family="sans-serif" font-size="11" lengthAdjust="spacing" textLength="17.4829" x="77.0076" y="319.4229">yes</text><polygon fill="#F1F1F1" points="51.0212,353.7432,63.0212,365.7432,51.0212,377.7432,39.0212,365.7432,51.0212,353.7432" style="stroke:#181818;stroke-width:0.5;"/><ellipse cx="51.0212" cy="408.7432" fill="none" rx="11" ry="11" style="stroke:#222222;stroke-width:1;"/><ellipse cx="51.0212" cy="408.7432" fill="#222222" rx="6" ry="6" style="stroke:#222222;stroke-width:1;"/><line style="stroke:#181818;stroke-width:1;" x1="51.0212" x2="51.0212" y1="133.1328" y2="153.1328"/><polygon fill="#181818" points="47.0212,143.1328,51.0212,153.1328,55.0212,143.1328,51.0212,147.1328" style="stroke:#181818;stroke-width:1;"/><line style="stroke:#181818;stroke-width:1;" x1="51.0212" x2="51.0212" y1="246.2656" y2="270.7432"/><line style="stroke:#181818;stroke-width:1;" x1="51.0212" x2="15" y1="270.7432" y2="270.7432"/><line style="stroke:#181818;stroke-width:1;" x1="15" x2="15" y1="270.7432" y2="365.7432"/><line style="stroke:#181818;stroke-width:1;" x1="15" x2="39.0212" y1="365.7432" y2="365.7432"/><polygon fill="#181818" points="29.0212,361.7432,39.0212,365.7432,29.0212,369.7432,33.0212,365.7432" style="stroke:#181818;stroke-width:1;"/><line style="stroke:#181818;stroke-width:1;" x1="77.0425" x2="89.0425" y1="234.2656" y2="234.2656"/><polygon fill="#181818" points="85.0425,257.7432,89.0425,267.7432,93.0425,257.7432,89.0425,261.7432" style="stroke:#181818;stroke-width:1;"/><line style="stroke:#181818;stroke-width:1;" x1="89.0425" x2="89.0425" y1="234.2656" y2="289.7432"/><line style="stroke:#181818;stroke-width:1;" x1="89.0425" x2="51.0212" y1="289.7432" y2="289.7432"/><line style="stroke:#181818;stroke-width:1;" x1="51.0212" x2="51.0212" y1="289.7432" y2="309.7432"/><polygon fill="#181818" points="47.0212,299.7432,51.0212,309.7432,55.0212,299.7432,51.0212,303.7432" style="stroke:#181818;stroke-width:1;"/><line style="stroke:#181818;stroke-width:1;" x1="51.0212" x2="51.0212" y1="187.2656" y2="222.2656"/><polygon fill="#181818" points="47.0212,212.2656,51.0212,222.2656,55.0212,212.2656,51.0212,216.2656" style="stroke:#181818;stroke-width:1;"/><line style="stroke:#181818;stroke-width:1;" x1="51.0212" x2="51.0212" y1="79" y2="99"/><polygon fill="#181818" points="47.0212,89,51.0212,99,55.0212,89,51.0212,93" style="stroke:#181818;stroke-width:1;"/><line style="stroke:#181818;stroke-width:1;" x1="77.0076" x2="101.0425" y1="321.7432" y2="321.7432"/><polygon fill="#181818" points="97.0425,202.6104,101.0425,192.6104,105.0425,202.6104,101.0425,198.6104" style="stroke:#181818;stroke-width:1;"/><line style="stroke:#181818;stroke-width:1;" x1="101.0425" x2="101.0425" y1="67" y2="321.7432"/><line style="stroke:#181818;stroke-width:1;" x1="101.0425" x2="63.0212" y1="67" y2="67"/><polygon fill="#181818" points="73.0212,63,63.0212,67,73.0212,71,69.0212,67" style="stroke:#181818;stroke-width:1;"/><line style="stroke:#181818;stroke-width:1;" x1="51.0212" x2="51.0212" y1="333.7432" y2="353.7432"/><polygon fill="#181818" points="47.0212,343.7432,51.0212,353.7432,55.0212,343.7432,51.0212,347.7432" style="stroke:#181818;stroke-width:1;"/><line style="stroke:#181818;stroke-width:1;" x1="51.0212" x2="51.0212" y1="35" y2="55"/><polygon fill="#181818" points="47.0212,45,51.0212,55,55.0212,45,51.0212,49" style="stroke:#181818;stroke-width:1;"/><line style="stroke:#181818;stroke-width:1;" x1="51.0212" x2="51.0212" y1="377.7432" y2="397.7432"/><polygon fill="#181818" points="47.0212,387.7432,51.0212,397.7432,55.0212,387.7432,51.0212,391.7432" style="stroke:#181818;stroke-width:1;"/><?plantuml-src BOmn3e0W34LtJj4Hhg239t1sHYsXmL3IDZ7UNaZONdx-UsfHp0asZEO0beEbh0Ds5Xn02RmQjos0PQpWFzJGTu1JC9PEM6zAC_5cUX3ynTMwG3hl8_03?></g></svg>