<svg xmlns="http://www.w3.org/2000/svg" xmlns:xlink="http://www.w3.org/1999/xlink" contentStyleType="text/css" data-diagram-type="ACTIVITY" height="259px" preserveAspectRatio="none" style="width:126px;height:259px;background:#FFFFFF;" version="1.1" viewBox="0 0 126 259" width="126px" zoomAndPan="magnify"><?plantuml 1.2026.3beta6?><defs/><g><ellipse cx="61.1943" cy="25" fill="#222222" rx="10" ry="10" style="stroke:#222222;stroke-width:1;"/><rect fill="#F1F1F1" height="34.1328" rx="12.5" ry="12.5" style="stroke:#181818;stroke-width:0.5;" width="90.3887" x="16" y="55"/><text fill="#000000" font-family="sans-serif" font-size="12" lengthAdjust="spacing" textLength="70.3887" x="26" y="76.6016">&#1055;&#1088;&#1080;&#1074;&#1077;&#1090; &#1084;&#1080;&#1088;</text><rect fill="#F1F1F1" height="34.1328" rx="12.5" ry="12.5" style="stroke:#181818;stroke-width:0.5;" width="68" x="27.1943" y="109.1328"/><text fill="#000000" font-family="sans-serif" font-size="12" lengthAdjust="spacing" textLength="48" x="37.1943" y="130.7344">&#20320;&#22909;&#19990;&#30028;</text><rect fill="#F1F1F1" height="34.1328" rx="12.5" ry="12.5" style="stroke:#181818;stroke-width:0.5;" width="80" x="21.1943" y="163.2656"/><text fill="#000000" font-family="sans-serif" font-size="12" lengthAdjust="spacing" textLength="60" x="31.1943" y="184.8672">&#12371;&#12435;&#12395;&#12385;&#12399;</text><ellipse cx="61.1943" cy="228.3984" fill="none" rx="11" ry="11" style="stroke:#222222;stroke-width:1;"/><ellipse cx="61.1943" cy="228.3984" fill="#222222" rx="6" ry="6" style="stroke:#222222;stroke-width:1;"/><line style="stroke:#181818;stroke-width:1;" x1="61.1943" x2="61.1943" y1="35" y2="55"/><polygon fill="#181818" points="57.1943,45,61.1943,55,65.1943,45,61.1943,49" style="stroke:#181818;stroke-width:1;"/><line style="stroke:#181818;stroke-width:1;" x1="61.1943" x2="61.1943" y1="89.1328" y2="109.1328"/><polygon fill="#181818" points="57.1943,99.1328,61.1943,109.1328,65.1943,99.1328,61.1943,103.1328" style="stroke:#181818;stroke-width:1;"/><line style="stroke:#181818;stroke-width:1;" x1="61.1943" x2="61.1943" y1="143.2656" y2="163.2656"/><polygon fill="#181818" points="57.1943,153.2656,61.1943,163.2656,65.1943,153.2656,61.1943,157.2656" style="stroke:#181818;stroke-width:1;"/><line style="stroke:#181818;stroke-width:1;" x1="61.1943" x2="61.1943" y1="197.3984" y2="217.3984"/><polygon fill="#181818" points="57.1943,207.3984,61.1943,217.3984,65.1943,207.3984,61.1943,211.3984" style="stroke:#181818;stroke-width:1;"/><?plantuml-src 0K40llzpT65oT0ewq9_HWD2uqBBGjT628D2yqBZHW3iAEkIzeEMblUIubkULZ3iAEkE1a-E2a-E1g-E1eUE1hpiAStHlS000?></g></svg>