<svg xmlns="http://www.w3.org/2000/svg" xmlns:xlink="http://www.w3.org/1999/xlink" contentStyleType="text/css" data-diagram-type="ACTIVITY" height="830px" preserveAspectRatio="none" style="width:162px;height:830px;background:#FFFFFF;" version="1.1" viewBox="0 0 162 830" width="162px" zoomAndPan="magnify"><?plantuml 1.2026.3beta6?><defs/><g><ellipse cx="79.2129" cy="25" fill="#222222" rx="10" ry="10" style="stroke:#222222;stroke-width:1;"/><rect fill="none" height="136.7539" style="stroke:#000000;stroke-width:1.5;" width="126.4258" x="16" y="45"/><path d="M96.335,45 L96.335,54.4883 L86.335,64.4883 L16,64.4883" fill="none" style="stroke:#000000;stroke-width:1.5;"/><text fill="#000000" font-family="sans-serif" font-size="14" lengthAdjust="spacing" textLength="70.335" x="19" y="59.5352">Partition 1</text><rect fill="#F1F1F1" height="34.1328" rx="12.5" ry="12.5" style="stroke:#181818;stroke-width:0.5;" width="106.4258" x="26" y="81.4883"/><text fill="#000000" font-family="sans-serif" font-size="12" lengthAdjust="spacing" textLength="86.4258" x="36" y="103.0898">Part 1 Action 1</text><rect fill="#F1F1F1" height="34.1328" rx="12.5" ry="12.5" style="stroke:#181818;stroke-width:0.5;" width="106.4258" x="26" y="135.6211"/><text fill="#000000" font-family="sans-serif" font-size="12" lengthAdjust="spacing" textLength="86.4258" x="36" y="157.2227">Part 1 Action 2</text><rect fill="none" height="136.7539" style="stroke:#000000;stroke-width:1.5;" width="126.4258" x="16" y="191.7539"/><path d="M96.335,191.7539 L96.335,201.2422 L86.335,211.2422 L16,211.2422" fill="none" style="stroke:#000000;stroke-width:1.5;"/><text fill="#000000" font-family="sans-serif" font-size="14" lengthAdjust="spacing" textLength="70.335" x="19" y="206.2891">Partition 2</text><rect fill="#F1F1F1" height="34.1328" rx="12.5" ry="12.5" style="stroke:#181818;stroke-width:0.5;" width="106.4258" x="26" y="228.2422"/><text fill="#000000" font-family="sans-serif" font-size="12" lengthAdjust="spacing" textLength="86.4258" x="36" y="249.8438">Part 2 Action 1</text><rect fill="#F1F1F1" height="34.1328" rx="12.5" ry="12.5" style="stroke:#181818;stroke-width:0.5;" width="106.4258" x="26" y="282.375"/><text fill="#000000" font-family="sans-serif" font-size="12" lengthAdjust="spacing" textLength="86.4258" x="36" y="303.9766">Part 2 Action 2</text><rect fill="none" height="136.7539" style="stroke:#000000;stroke-width:1.5;" width="126.4258" x="16" y="338.5078"/><path d="M96.335,338.5078 L96.335,347.9961 L86.335,357.9961 L16,357.9961" fill="none" style="stroke:#000000;stroke-width:1.5;"/><text fill="#000000" font-family="sans-serif" font-size="14" lengthAdjust="spacing" textLength="70.335" x="19" y="353.043">Partition 3</text><rect fill="#F1F1F1" height="34.1328" rx="12.5" ry="12.5" style="stroke:#181818;stroke-width:0.5;" width="106.4258" x="26" y="374.9961"/><text fill="#000000" font-family="sans-serif" font-size="12" lengthAdjust="spacing" textLength="86.4258" x="36" y="396.5977">Part 3 Action 1</text><rect fill="#F1F1F1" height="34.1328" rx="12.5" ry="12.5" style="stroke:#181818;stroke-width:0.5;" width="106.4258" x="26" y="429.1289"/><text fill="#000000" font-family="sans-serif" font-size="12" lengthAdjust="spacing" textLength="86.4258" x="36" y="450.7305">Part 3 Action 2</text><rect fill="none" height="136.7539" style="stroke:#000000;stroke-width:1.5;" width="126.4258" x="16" y="485.2617"/><path d="M96.335,485.2617 L96.335,494.75 L86.335,504.75 L16,504.75" fill="none" style="stroke:#000000;stroke-width:1.5;"/><text fill="#000000" font-family="sans-serif" font-size="14" lengthAdjust="spacing" textLength="70.335" x="19" y="499.7969">Partition 4</text><rect fill="#F1F1F1" height="34.1328" rx="12.5" ry="12.5" style="stroke:#181818;stroke-width:0.5;" width="106.4258" x="26" y="521.75"/><text fill="#000000" font-family="sans-serif" font-size="12" lengthAdjust="spacing" textLength="86.4258" x="36" y="543.3516">Part 4 Action 1</text><rect fill="#F1F1F1" height="34.1328" rx="12.5" ry="12.5" style="stroke:#181818;stroke-width:0.5;" width="106.4258" x="26" y="575.8828"/><text fill="#000000" font-family="sans-serif" font-size="12" lengthAdjust="spacing" textLength="86.4258" x="36" y="597.4844">Part 4 Action 2</text><rect fill="none" height="136.7539" style="stroke:#000000;stroke-width:1.5;" width="126.4258" x="16" y="632.0156"/><path d="M96.335,632.0156 L96.335,641.5039 L86.335,651.5039 L16,651.5039" fill="none" style="stroke:#000000;stroke-width:1.5;"/><text fill="#000000" font-family="sans-serif" font-size="14" lengthAdjust="spacing" textLength="70.335" x="19" y="646.5508">Partition 5</text><rect fill="#F1F1F1" height="34.1328" rx="12.5" ry="12.5" style="stroke:#181818;stroke-width:0.5;" width="106.4258" x="26" y="668.5039"/><text fill="#000000" font-family="sans-serif" font-size="12" lengthAdjust="spacing" textLength="86.4258" x="36" y="690.1055">Part 5 Action 1</text><rect fill="#F1F1F1" height="34.1328" rx="12.5" ry="12.5" style="stroke:#181818;stroke-width:0.5;" width="106.4258" x="26" y="722.6367"/><text fill="#000000" font-family="sans-serif" font-size="12" lengthAdjust="spacing" textLength="86.4258" x="36" y="744.2383">Part 5 Action 2</text><ellipse cx="79.2129" cy="799.7695" fill="none" rx="11" ry="11" style="stroke:#222222;stroke-width:1;"/><ellipse cx="79.2129" cy="799.7695" fill="#222222" rx="6" ry="6" style="stroke:#222222;stroke-width:1;"/><line style="stroke:#181818;stroke-width:1;" x1="79.2129" x2="79.2129" y1="115.6211" y2="135.6211"/><polygon fill="#181818" points="75.2129,125.6211,79.2129,135.6211,83.2129,125.6211,79.2129,129.6211" style="stroke:#181818;stroke-width:1;"/><line style="stroke:#181818;stroke-width:1;" x1="79.2129" x2="79.2129" y1="35" y2="81.4883"/><polygon fill="#181818" points="75.2129,71.4883,79.2129,81.4883,83.2129,71.4883,79.2129,75.4883" style="stroke:#181818;stroke-width:1;"/><line style="stroke:#181818;stroke-width:1;" x1="79.2129" x2="79.2129" y1="262.375" y2="282.375"/><polygon fill="#181818" points="75.2129,272.375,79.2129,282.375,83.2129,272.375,79.2129,276.375" style="stroke:#181818;stroke-width:1;"/><line style="stroke:#181818;stroke-width:1;" x1="79.2129" x2="79.2129" y1="169.7539" y2="228.2422"/><polygon fill="#181818" points="75.2129,218.2422,79.2129,228.2422,83.2129,218.2422,79.2129,222.2422" style="stroke:#181818;stroke-width:1;"/><line style="stroke:#181818;stroke-width:1;" x1="79.2129" x2="79.2129" y1="409.1289" y2="429.1289"/><polygon fill="#181818" points="75.2129,419.1289,79.2129,429.1289,83.2129,419.1289,79.2129,423.1289" style="stroke:#181818;stroke-width:1;"/><line style="stroke:#181818;stroke-width:1;" x1="79.2129" x2="79.2129" y1="316.5078" y2="374.9961"/><polygon fill="#181818" points="75.2129,364.9961,79.2129,374.9961,83.2129,364.9961,79.2129,368.9961" style="stroke:#181818;stroke-width:1;"/><line style="stroke:#181818;stroke-width:1;" x1="79.2129" x2="79.2129" y1="555.8828" y2="575.8828"/><polygon fill="#181818" points="75.2129,565.8828,79.2129,575.8828,83.2129,565.8828,79.2129,569.8828" style="stroke:#181818;stroke-width:1;"/><line style="stroke:#181818;stroke-width:1;" x1="79.2129" x2="79.2129" y1="463.2617" y2="521.75"/><polygon fill="#181818" points="75.2129,511.75,79.2129,521.75,83.2129,511.75,79.2129,515.75" style="stroke:#181818;stroke-width:1;"/><line style="stroke:#181818;stroke-width:1;" x1="79.2129" x2="79.2129" y1="702.6367" y2="722.6367"/><polygon fill="#181818" points="75.2129,712.6367,79.2129,722.6367,83.2129,712.6367,79.2129,716.6367" style="stroke:#181818;stroke-width:1;"/><line style="stroke:#181818;stroke-width:1;" x1="79.2129" x2="79.2129" y1="610.0156" y2="668.5039"/><polygon fill="#181818" points="75.2129,658.5039,79.2129,668.5039,83.2129,658.5039,79.2129,662.5039" style="stroke:#181818;stroke-width:1;"/><line style="stroke:#181818;stroke-width:1;" x1="79.2129" x2="79.2129" y1="756.7695" y2="788.7695"/><polygon fill="#181818" points="75.2129,778.7695,79.2129,788.7695,83.2129,778.7695,79.2129,782.7695" style="stroke:#181818;stroke-width:1;"/><?plantuml-src Aov9B2hXAW0IcIMP-NaAIW5mfg6IGZMNWe8LI4J1KC4n6I9gZIbcPCrLYzqC8sGpZB2OOKJO36DaCuonc65Cs0mJP3DCi9XXGjWCKsGpJB6OOOfYHd59VW40?></g></svg>