<svg xmlns="http://www.w3.org/2000/svg" xmlns:xlink="http://www.w3.org/1999/xlink" contentStyleType="text/css" data-diagram-type="STATE" height="278px" preserveAspectRatio="none" style="width:83px;height:278px;background:#FFFFFF;" version="1.1" viewBox="0 0 83 278" width="83px" zoomAndPan="magnify"><?plantuml 1.2026.3beta6?><defs/><g><g class="entity" data-qualified-name="Active" id="ent0002"><rect fill="#90EE90" height="50" rx="12.5" ry="12.5" style="stroke:#181818;stroke-width:0.5;" width="61.1592" x="7" y="87"/><line style="stroke:#181818;stroke-width:0.5;" x1="7" x2="68.1592" y1="113.4883" y2="113.4883"/><text fill="#000000" font-family="sans-serif" font-size="14" lengthAdjust="spacing" textLength="41.1592" x="17" y="105.5352">Active</text></g><g class="entity" data-qualified-name="Error" id="ent0003"><rect fill="#FF0000" height="50" rx="12.5" ry="12.5" style="stroke:#181818;stroke-width:0.5;" width="53.373" x="10.89" y="214"/><line style="stroke:#181818;stroke-width:0.5;" x1="10.89" x2="64.263" y1="240.4883" y2="240.4883"/><text fill="#000000" font-family="sans-serif" font-size="14" lengthAdjust="spacing" textLength="33.373" x="20.89" y="232.5352">Error</text></g><g class="start_entity" data-qualified-name=".start." data-source-line="3" id="ent0002"><ellipse cx="37.58" cy="16" fill="#222222" rx="10" ry="10" style="stroke:#222222;stroke-width:1;"/></g><!--link *start* to Active--><g class="link" data-entity-1="ent0002" data-entity-2="ent0002" data-link-type="dependency" data-source-line="3" id="lnk3"><path d="M37.58,26.36 C37.58,40.29 37.58,60.95 37.58,80.65" fill="none" id="*start*-to-Active" style="stroke:#181818;stroke-width:1;"/><polygon fill="#181818" points="37.58,86.65,41.58,77.65,37.58,81.65,33.58,77.65,37.58,86.65" style="stroke:#181818;stroke-width:1;"/></g><!--link Active to Error--><g class="link" data-entity-1="ent0002" data-entity-2="ent0003" data-link-type="dependency" data-source-line="4" id="lnk4"><path d="M37.58,137.4 C37.58,159.42 37.58,185.66 37.58,207.66" fill="none" id="Active-to-Error" style="stroke:#181818;stroke-width:1;"/><polygon fill="#181818" points="37.58,213.66,41.58,204.66,37.58,208.66,33.58,204.66,37.58,213.66" style="stroke:#181818;stroke-width:1;"/><text fill="#000000" font-family="sans-serif" font-size="13" lengthAdjust="spacing" textLength="19.4746" x="38.58" y="180.5684">fail</text></g><?plantuml-src Aov9B4bLS4mkoInBLL3soKpFA74lIatDuoe6IxWM5UKNAIYxkHa00LUqLgo2hguTL3aNL1T81ABEIY4jCJC70000?></g></svg>