<svg xmlns="http://www.w3.org/2000/svg" xmlns:xlink="http://www.w3.org/1999/xlink" contentStyleType="text/css" data-diagram-type="DESCRIPTION" height="367px" preserveAspectRatio="none" style="width:183px;height:367px;background:#FFFFFF;" version="1.1" viewBox="0 0 183 367" width="183px" zoomAndPan="magnify"><?plantuml 1.2026.3beta6?><defs/><g><!--cluster Pkg1--><g class="cluster" data-qualified-name="Pkg1" data-source-line="5" id="ent0005"><path d="M79,6 L115.916,6 A3.75,3.75 0 0 1 118.416,8.5 L125.416,28.4883 L165.6,28.4883 A2.5,2.5 0 0 1 168.1,30.9883 L168.1,148.5 A2.5,2.5 0 0 1 165.6,151 L79,151 A2.5,2.5 0 0 1 76.5,148.5 L76.5,8.5 A2.5,2.5 0 0 1 79,6" fill="none" style="stroke:#000000;stroke-width:1.5;"/><line style="stroke:#000000;stroke-width:1.5;" x1="76.5" x2="125.416" y1="28.4883" y2="28.4883"/><text fill="#000000" font-family="sans-serif" font-size="14" font-weight="700" lengthAdjust="spacing" textLength="35.916" x="80.5" y="21.5352">Pkg1</text></g><!--cluster Pkg2--><g class="cluster" data-qualified-name="Pkg2" data-source-line="9" id="ent0008"><path d="M79,175 L115.916,175 A3.75,3.75 0 0 1 118.416,177.5 L125.416,197.4883 L165.6,197.4883 A2.5,2.5 0 0 1 168.1,199.9883 L168.1,317.5 A2.5,2.5 0 0 1 165.6,320 L79,320 A2.5,2.5 0 0 1 76.5,317.5 L76.5,177.5 A2.5,2.5 0 0 1 79,175" fill="none" style="stroke:#000000;stroke-width:1.5;"/><line style="stroke:#000000;stroke-width:1.5;" x1="76.5" x2="125.416" y1="197.4883" y2="197.4883"/><text fill="#000000" font-family="sans-serif" font-size="14" font-weight="700" lengthAdjust="spacing" textLength="35.916" x="80.5" y="190.5352">Pkg2</text></g><!--entity UC1A--><g class="entity" data-qualified-name="Pkg1.UC1A" data-source-line="6" id="ent0006"><ellipse cx="122.2982" cy="119.999" fill="#F1F1F1" rx="29.7982" ry="14.659" style="stroke:#181818;stroke-width:0.5;"/><text fill="#000000" font-family="sans-serif" font-size="14" lengthAdjust="spacing" textLength="37.8984" x="103.349" y="124.7431">UC1A</text></g><!--entity UC1B--><g class="entity" data-qualified-name="Pkg1.UC1B" data-source-line="7" id="ent0007"><ellipse cx="122.3023" cy="55.999" fill="#F1F1F1" rx="28.6623" ry="14.659" style="stroke:#181818;stroke-width:0.5;"/><text fill="#000000" font-family="sans-serif" font-size="14" lengthAdjust="spacing" textLength="36.292" x="104.1563" y="60.7431">UC1B</text></g><!--entity UC2A--><g class="entity" data-qualified-name="Pkg2.UC2A" data-source-line="10" id="ent0009"><ellipse cx="122.2982" cy="288.999" fill="#F1F1F1" rx="29.7982" ry="14.659" style="stroke:#181818;stroke-width:0.5;"/><text fill="#000000" font-family="sans-serif" font-size="14" lengthAdjust="spacing" textLength="37.8984" x="103.349" y="293.7431">UC2A</text></g><!--entity UC2B--><g class="entity" data-qualified-name="Pkg2.UC2B" data-source-line="11" id="ent0010"><ellipse cx="122.3023" cy="224.999" fill="#F1F1F1" rx="28.6623" ry="14.659" style="stroke:#181818;stroke-width:0.5;"/><text fill="#000000" font-family="sans-serif" font-size="14" lengthAdjust="spacing" textLength="36.292" x="104.1563" y="229.7431">UC2B</text></g><!--entity A1--><g class="entity" data-qualified-name="A1" data-source-line="2" id="ent0002"><ellipse cx="19" cy="175.25" fill="#F1F1F1" rx="8" ry="8" style="stroke:#181818;stroke-width:0.5;"/><path d="M19,183.25 L19,210.25 M6,191.25 L32,191.25 M19,210.25 L6,225.25 M19,210.25 L32,225.25" fill="none" style="stroke:#181818;stroke-width:0.5;"/><text fill="#000000" font-family="sans-serif" font-size="14" lengthAdjust="spacing" textLength="18.5117" x="9.7441" y="240.2852">A1</text></g><!--entity A2--><g class="entity" data-qualified-name="A2" data-source-line="3" id="ent0003"><ellipse cx="19" cy="286.25" fill="#F1F1F1" rx="8" ry="8" style="stroke:#181818;stroke-width:0.5;"/><path d="M19,294.25 L19,321.25 M6,302.25 L32,302.25 M19,321.25 L6,336.25 M19,321.25 L32,336.25" fill="none" style="stroke:#181818;stroke-width:0.5;"/><text fill="#000000" font-family="sans-serif" font-size="14" lengthAdjust="spacing" textLength="18.5117" x="9.7441" y="351.2852">A2</text></g><!--entity A3--><g class="entity" data-qualified-name="A3" data-source-line="4" id="ent0004"><ellipse cx="19" cy="64.25" fill="#F1F1F1" rx="8" ry="8" style="stroke:#181818;stroke-width:0.5;"/><path d="M19,72.25 L19,99.25 M6,80.25 L32,80.25 M19,99.25 L6,114.25 M19,99.25 L32,114.25" fill="none" style="stroke:#181818;stroke-width:0.5;"/><text fill="#000000" font-family="sans-serif" font-size="14" lengthAdjust="spacing" textLength="18.5117" x="9.7441" y="129.2852">A3</text></g><!--link A1 to UC1A--><g class="link" data-entity-1="ent0002" data-entity-2="ent0006" data-link-type="dependency" data-source-line="13" id="lnk11"><path d="M32.83,194.23 C51.57,178.51 81.7641,153.1772 101.6741,136.4672" fill="none" id="A1-to-UC1A" style="stroke:#181818;stroke-width:1;"/><polygon fill="#181818" points="106.27,132.61,96.8047,135.3319,102.4401,135.8243,101.9477,141.4597,106.27,132.61" style="stroke:#181818;stroke-width:1;"/></g><!--link A2 to UC1A--><g class="link" data-entity-1="ent0003" data-entity-2="ent0006" data-link-type="dependency" data-source-line="14" id="lnk12"><path d="M32.68,277.28 C41.37,252.74 53.94,220.71 68.5,194 C80.66,171.69 94.6626,152.8558 106.1626,138.4758" fill="none" id="A2-to-UC1A" style="stroke:#181818;stroke-width:1;"/><polygon fill="#181818" points="109.91,133.79,101.165,138.3205,106.7872,137.6949,107.4128,143.317,109.91,133.79" style="stroke:#181818;stroke-width:1;"/></g><!--link A3 to UC1A--><g class="link" data-entity-1="ent0004" data-entity-2="ent0006" data-link-type="dependency" data-source-line="15" id="lnk13"><path d="M32.83,97.29 C48.48,101.31 69.5185,106.7079 89.5385,111.8479" fill="none" id="A3-to-UC1A" style="stroke:#181818;stroke-width:1;"/><polygon fill="#181818" points="95.35,113.34,87.6274,107.2276,90.5071,112.0966,85.638,114.9762,95.35,113.34" style="stroke:#181818;stroke-width:1;"/></g><!--link A1 to UC2A--><g class="link" data-entity-1="ent0002" data-entity-2="ent0009" data-link-type="dependency" data-source-line="16" id="lnk14"><path d="M32.99,221.11 C42.22,231.98 55.28,246.25 68.5,257 C78.48,265.11 85.4804,269.7087 95.6504,275.4287" fill="none" id="A1-to-UC2A" style="stroke:#181818;stroke-width:1;"/><polygon fill="#181818" points="100.88,278.37,94.9965,270.4716,96.522,275.9189,91.0747,277.4444,100.88,278.37" style="stroke:#181818;stroke-width:1;"/></g><!--link A2 to UC2A--><g class="link" data-entity-1="ent0003" data-entity-2="ent0009" data-link-type="dependency" data-source-line="17" id="lnk15"><path d="M32.83,312.58 C48.48,308.4 69.5327,302.7963 89.5527,297.4563" fill="none" id="A2-to-UC2A" style="stroke:#181818;stroke-width:1;"/><polygon fill="#181818" points="95.35,295.91,85.6231,294.3646,90.5189,297.1986,87.6849,302.0944,95.35,295.91" style="stroke:#181818;stroke-width:1;"/></g><!--link A3 to UC2A--><g class="link" data-entity-1="ent0004" data-entity-2="ent0009" data-link-type="dependency" data-source-line="18" id="lnk16"><path d="M29.94,132.67 C41.74,177.63 60.79,247.01 68.5,257 C76.23,267.01 82.6855,271.9026 93.1855,277.1626" fill="none" id="A3-to-UC2A" style="stroke:#181818;stroke-width:1;"/><polygon fill="#181818" points="98.55,279.85,92.2948,272.2426,94.0796,277.6105,88.7116,279.3953,98.55,279.85" style="stroke:#181818;stroke-width:1;"/></g><?plantuml-src oqbDAr4eoLSeoapFA558oInAJIx9pC_ZIamkoIzIS3I4COnW36EkWiJaxCJqL0MbWEnqGoM5QYu5XTBYrEJ4Og1GgBEXenAQW9CILosA9YCCJKRecep0cXmD5NHrxHGqGAPgSZaQeV2CKNXmbKOeAerGL09v0000?></g></svg>