<svg xmlns="http://www.w3.org/2000/svg" xmlns:xlink="http://www.w3.org/1999/xlink" contentStyleType="text/css" data-diagram-type="EBNF" height="437px" preserveAspectRatio="none" style="width:363px;height:437px;background:#FFFFFF;" version="1.1" viewBox="0 0 363 437" width="363px" zoomAndPan="magnify"><?plantuml 1.2026.3beta6?><defs/><g><text fill="#000000" font-family="sans-serif" font-size="14" font-weight="700" lengthAdjust="spacing" textLength="33.8174" x="10" y="23.5352">term</text><line style="stroke:#181818;stroke-width:1.5;" x1="40" x2="40" y1="49.7324" y2="49.7324"/><rect fill="#F1F1F1" height="26.4883" rx="5" ry="5" style="stroke:#181818;stroke-width:1.5;" width="49.6143" x="40" y="36.4883"/><text fill="#000000" font-family="sans-serif" font-size="14" lengthAdjust="spacing" textLength="39.6143" x="45" y="55.0234">factor</text><line style="stroke:#181818;stroke-width:1.5;" x1="89.6143" x2="109.6143" y1="49.7324" y2="49.7324"/><line style="stroke:#181818;stroke-width:1.5;" x1="109.6143" x2="322.5703" y1="49.7324" y2="49.7324"/><path d="M192.7967,49.7324 L192.7967,46.7324 L198.7967,49.7324 L192.7967,52.7324 L192.7967,49.7324" fill="#181818"/><path d="M109.6143,49.7324 C118.6143,49.7324 121.6143,58.3545 121.6143,67.3545 C121.6143,76.3545 124.6143,84.9766 133.6143,84.9766" fill="none" style="stroke:#181818;stroke-width:1.5;"/><path d="M298.5703,84.9766 C307.5703,84.9766 310.5703,76.3545 310.5703,67.3545 C310.5703,58.3545 313.5703,49.7324 322.5703,49.7324" fill="none" style="stroke:#181818;stroke-width:1.5;"/><path d="M141.6143,76.9766 C141.6143,82.9766 143.6143,84.9766 149.6143,84.9766" fill="none" style="stroke:#181818;stroke-width:1.5;"/><line style="stroke:#181818;stroke-width:1.5;" x1="141.6143" x2="141.6143" y1="72.7324" y2="76.9766"/><path d="M141.6143,72.7324 C141.6143,66.7324 143.6143,64.7324 149.6143,64.7324" fill="none" style="stroke:#181818;stroke-width:1.5;"/><line style="stroke:#181818;stroke-width:1.5;" x1="148.6143" x2="283.5703" y1="64.7324" y2="64.7324"/><path d="M227.5879,64.7324 L227.5879,61.7324 L221.5879,64.7324 L227.5879,67.7324 L227.5879,64.7324" fill="#181818"/><path d="M290.5703,76.9766 C290.5703,82.9766 288.5703,84.9766 282.5703,84.9766" fill="none" style="stroke:#181818;stroke-width:1.5;"/><line style="stroke:#181818;stroke-width:1.5;" x1="290.5703" x2="290.5703" y1="72.7324" y2="76.9766"/><path d="M282.5703,64.7324 C288.5703,64.7324 290.5703,66.7324 290.5703,72.7324" fill="none" style="stroke:#181818;stroke-width:1.5;"/><line style="stroke:#181818;stroke-width:1.5;" x1="133.6143" x2="148.6143" y1="84.9766" y2="84.9766"/><line style="stroke:#181818;stroke-width:1.5;" x1="283.5703" x2="298.5703" y1="84.9766" y2="84.9766"/><line style="stroke:#181818;stroke-width:1.5;" x1="148.6143" x2="148.6143" y1="84.9766" y2="84.9766"/><rect fill="none" height="26.4883" style="stroke:#181818;stroke-width:0.5;" width="16.7471" x="172.6143" y="71.7324"/><text fill="#000000" font-family="sans-serif" font-size="14" lengthAdjust="spacing" textLength="6.7471" x="177.6143" y="90.2676">*</text><line style="stroke:#181818;stroke-width:1.5;" x1="148.6143" x2="172.6143" y1="84.9766" y2="84.9766"/><line style="stroke:#181818;stroke-width:1.5;" x1="189.3613" x2="213.9561" y1="84.9766" y2="84.9766"/><rect fill="none" height="26.4883" style="stroke:#181818;stroke-width:0.5;" width="17.3418" x="172.6143" y="108.2207"/><text fill="#000000" font-family="sans-serif" font-size="14" lengthAdjust="spacing" textLength="7.3418" x="177.6143" y="126.7559">/</text><line style="stroke:#181818;stroke-width:1.5;" x1="189.9561" x2="189.9561" y1="121.4648" y2="121.4648"/><path d="M160.6143,109.4648 C160.6143,118.4648 163.6143,121.4648 172.6143,121.4648" fill="none" style="stroke:#181818;stroke-width:1.5;"/><line style="stroke:#181818;stroke-width:1.5;" x1="160.6143" x2="160.6143" y1="96.9766" y2="109.4648"/><path d="M148.6143,84.9766 C157.6143,84.9766 160.6143,87.9766 160.6143,96.9766" fill="none" style="stroke:#181818;stroke-width:1.5;"/><path d="M201.9561,109.4648 C201.9561,118.4648 198.9561,121.4648 189.9561,121.4648" fill="none" style="stroke:#181818;stroke-width:1.5;"/><line style="stroke:#181818;stroke-width:1.5;" x1="201.9561" x2="201.9561" y1="96.9766" y2="109.4648"/><path d="M201.9561,96.9766 C201.9561,87.9766 204.9561,84.9766 213.9561,84.9766" fill="none" style="stroke:#181818;stroke-width:1.5;"/><line style="stroke:#181818;stroke-width:1.5;" x1="213.9561" x2="233.9561" y1="84.9766" y2="84.9766"/><rect fill="#F1F1F1" height="26.4883" rx="5" ry="5" style="stroke:#181818;stroke-width:1.5;" width="49.6143" x="233.9561" y="71.7324"/><text fill="#000000" font-family="sans-serif" font-size="14" lengthAdjust="spacing" textLength="39.6143" x="238.9561" y="90.2676">factor</text><ellipse cx="14" cy="49.7324" fill="none" rx="4" ry="4" style="stroke:#181818;stroke-width:2;"/><ellipse cx="352.5703" cy="49.7324" fill="#181818" rx="4" ry="4" style="stroke:#181818;stroke-width:1;"/><line style="stroke:#181818;stroke-width:1.5;" x1="18" x2="40" y1="49.7324" y2="49.7324"/><line style="stroke:#181818;stroke-width:1.5;" x1="322.5703" x2="348.5703" y1="49.7324" y2="49.7324"/><path d="M333.5703,49.7324 L333.5703,46.7324 L339.5703,49.7324 L333.5703,52.7324 L333.5703,49.7324" fill="#181818"/><text fill="#000000" font-family="sans-serif" font-size="14" font-weight="700" lengthAdjust="spacing" textLength="42.4648" x="10" y="163.2441">factor</text><rect fill="#F1F1F1" height="26.4883" rx="5" ry="5" style="stroke:#181818;stroke-width:1.5;" width="40.8711" x="64" y="176.1973"/><text fill="#000000" font-family="sans-serif" font-size="14" lengthAdjust="spacing" textLength="30.8711" x="69" y="194.7324">digit</text><line style="stroke:#181818;stroke-width:1.5;" x1="40" x2="64" y1="189.4414" y2="189.4414"/><line style="stroke:#181818;stroke-width:1.5;" x1="104.8711" x2="198.0313" y1="189.4414" y2="189.4414"/><line style="stroke:#181818;stroke-width:1.5;" x1="64" x2="64" y1="225.9297" y2="225.9297"/><rect fill="none" height="26.4883" style="stroke:#181818;stroke-width:0.5;" width="14.5527" x="64" y="212.6855"/><text fill="#000000" font-family="sans-serif" font-size="14" lengthAdjust="spacing" textLength="4.5527" x="69" y="231.2207">(</text><line style="stroke:#181818;stroke-width:1.5;" x1="78.5527" x2="98.5527" y1="225.9297" y2="225.9297"/><rect fill="#F1F1F1" height="26.4883" rx="5" ry="5" style="stroke:#181818;stroke-width:1.5;" width="40.9258" x="98.5527" y="212.6855"/><text fill="#000000" font-family="sans-serif" font-size="14" lengthAdjust="spacing" textLength="30.9258" x="103.5527" y="231.2207">expr</text><line style="stroke:#181818;stroke-width:1.5;" x1="139.4785" x2="159.4785" y1="225.9297" y2="225.9297"/><rect fill="none" height="26.4883" style="stroke:#181818;stroke-width:0.5;" width="14.5527" x="159.4785" y="212.6855"/><text fill="#000000" font-family="sans-serif" font-size="14" lengthAdjust="spacing" textLength="4.5527" x="164.4785" y="231.2207">)</text><line style="stroke:#181818;stroke-width:1.5;" x1="174.0313" x2="174.0313" y1="225.9297" y2="225.9297"/><path d="M52,213.9297 C52,222.9297 55,225.9297 64,225.9297" fill="none" style="stroke:#181818;stroke-width:1.5;"/><line style="stroke:#181818;stroke-width:1.5;" x1="52" x2="52" y1="201.4414" y2="213.9297"/><path d="M40,189.4414 C49,189.4414 52,192.4414 52,201.4414" fill="none" style="stroke:#181818;stroke-width:1.5;"/><path d="M186.0313,213.9297 C186.0313,222.9297 183.0313,225.9297 174.0313,225.9297" fill="none" style="stroke:#181818;stroke-width:1.5;"/><line style="stroke:#181818;stroke-width:1.5;" x1="186.0313" x2="186.0313" y1="201.4414" y2="213.9297"/><path d="M186.0313,201.4414 C186.0313,192.4414 189.0313,189.4414 198.0313,189.4414" fill="none" style="stroke:#181818;stroke-width:1.5;"/><ellipse cx="14" cy="189.4414" fill="none" rx="4" ry="4" style="stroke:#181818;stroke-width:2;"/><ellipse cx="228.0313" cy="189.4414" fill="#181818" rx="4" ry="4" style="stroke:#181818;stroke-width:1;"/><line style="stroke:#181818;stroke-width:1.5;" x1="18" x2="40" y1="189.4414" y2="189.4414"/><line style="stroke:#181818;stroke-width:1.5;" x1="198.0313" x2="224.0313" y1="189.4414" y2="189.4414"/><path d="M209.0313,189.4414 L209.0313,186.4414 L215.0313,189.4414 L209.0313,192.4414 L209.0313,189.4414" fill="#181818"/><text fill="#000000" font-family="sans-serif" font-size="14" font-weight="700" lengthAdjust="spacing" textLength="32.1152" x="10" y="267.709">expr</text><rect fill="#F1F1F1" height="26.4883" rx="5" ry="5" style="stroke:#181818;stroke-width:1.5;" width="41.835" x="40" y="280.6621"/><text fill="#000000" font-family="sans-serif" font-size="14" lengthAdjust="spacing" textLength="31.835" x="45" y="299.1973">term</text><ellipse cx="14" cy="293.9063" fill="none" rx="4" ry="4" style="stroke:#181818;stroke-width:2;"/><ellipse cx="111.835" cy="293.9063" fill="#181818" rx="4" ry="4" style="stroke:#181818;stroke-width:1;"/><line style="stroke:#181818;stroke-width:1.5;" x1="18" x2="40" y1="293.9063" y2="293.9063"/><line style="stroke:#181818;stroke-width:1.5;" x1="81.835" x2="107.835" y1="293.9063" y2="293.9063"/><path d="M92.835,293.9063 L92.835,290.9063 L98.835,293.9063 L92.835,296.9063 L92.835,293.9063" fill="#181818"/><text fill="#000000" font-family="sans-serif" font-size="14" font-weight="700" lengthAdjust="spacing" textLength="33.291" x="10" y="335.6855">digit</text><rect fill="none" height="26.4883" style="stroke:#181818;stroke-width:0.5;" width="18.8525" x="64" y="348.6387"/><text fill="#000000" font-family="sans-serif" font-size="14" lengthAdjust="spacing" textLength="8.8525" x="69" y="367.1738">0</text><line style="stroke:#181818;stroke-width:1.5;" x1="40" x2="64" y1="361.8828" y2="361.8828"/><line style="stroke:#181818;stroke-width:1.5;" x1="82.8525" x2="106.8525" y1="361.8828" y2="361.8828"/><rect fill="none" height="26.4883" style="stroke:#181818;stroke-width:0.5;" width="18.8525" x="64" y="385.127"/><text fill="#000000" font-family="sans-serif" font-size="14" lengthAdjust="spacing" textLength="8.8525" x="69" y="403.6621">1</text><line style="stroke:#181818;stroke-width:1.5;" x1="82.8525" x2="82.8525" y1="398.3711" y2="398.3711"/><path d="M52,386.3711 C52,395.3711 55,398.3711 64,398.3711" fill="none" style="stroke:#181818;stroke-width:1.5;"/><line style="stroke:#181818;stroke-width:1.5;" x1="52" x2="52" y1="373.8828" y2="386.3711"/><path d="M40,361.8828 C49,361.8828 52,364.8828 52,373.8828" fill="none" style="stroke:#181818;stroke-width:1.5;"/><path d="M94.8525,386.3711 C94.8525,395.3711 91.8525,398.3711 82.8525,398.3711" fill="none" style="stroke:#181818;stroke-width:1.5;"/><line style="stroke:#181818;stroke-width:1.5;" x1="94.8525" x2="94.8525" y1="373.8828" y2="386.3711"/><path d="M94.8525,373.8828 C94.8525,364.8828 97.8525,361.8828 106.8525,361.8828" fill="none" style="stroke:#181818;stroke-width:1.5;"/><ellipse cx="14" cy="361.8828" fill="none" rx="4" ry="4" style="stroke:#181818;stroke-width:2;"/><ellipse cx="136.8525" cy="361.8828" fill="#181818" rx="4" ry="4" style="stroke:#181818;stroke-width:1;"/><line style="stroke:#181818;stroke-width:1.5;" x1="18" x2="40" y1="361.8828" y2="361.8828"/><line style="stroke:#181818;stroke-width:1.5;" x1="106.8525" x2="132.8525" y1="361.8828" y2="361.8828"/><path d="M117.8525,361.8828 L117.8525,358.8828 L123.8525,361.8828 L117.8525,364.8828 L117.8525,361.8828" fill="#181818"/><?plantuml-src BOsz3eCm48FtUmhh9gWGVvLOeaYyIYX7nL1QXHkGW7SdITai-xFTh-gyoh1CfE8_i9ZSIxyU1NPau0VZ05UCF3XtT1gwbSKulsUDICO1aEqNcvopeQGjuggXFsR1TTfhGjxBCgPVQigsRhloEOYwxW80?></g></svg>