<svg xmlns="http://www.w3.org/2000/svg" xmlns:xlink="http://www.w3.org/1999/xlink" contentStyleType="text/css" data-diagram-type="CLASS" height="312px" preserveAspectRatio="none" style="width:194px;height:312px;background:#FFFFFF;" version="1.1" viewBox="0 0 194 312" width="194px" zoomAndPan="magnify"><?plantuml 1.2026.3beta6?><defs/><g><g class="header" data-source-line="2"><text fill="#888888" font-family="sans-serif" font-size="10" lengthAdjust="spacing" textLength="56.748" x="131.1152" y="9.668">Header text</text></g><g class="title" data-source-line="1"><text fill="#000000" font-family="sans-serif" font-size="14" font-weight="700" lengthAdjust="spacing" textLength="167.8633" x="10" y="36.3125">All Metadata Combined</text></g><!--class Foo--><g class="entity" data-qualified-name="Foo" data-source-line="12" id="ent0002"><rect fill="#F1F1F1" height="48" rx="2.5" ry="2.5" style="stroke:#181818;stroke-width:0.5;" width="56.7051" x="65.0791" y="57.2656"/><ellipse cx="80.0791" cy="73.2656" fill="#ADD1B2" rx="11" ry="11" style="stroke:#181818;stroke-width:1;"/><path d="M82.5522,79.4087 Q81.9712,79.7075 81.332,79.8569 Q80.6929,80.0063 79.9873,80.0063 Q77.4805,80.0063 76.1606,78.3545 Q74.8408,76.7026 74.8408,73.5815 Q74.8408,70.4521 76.1606,68.8003 Q77.4805,67.1484 79.9873,67.1484 Q80.6929,67.1484 81.3403,67.2979 Q81.9878,67.4473 82.5522,67.7461 L82.5522,70.4688 Q81.9214,69.8877 81.3279,69.6179 Q80.7344,69.3481 80.1035,69.3481 Q78.7588,69.3481 78.074,70.4148 Q77.3892,71.4814 77.3892,73.5815 Q77.3892,75.6733 78.074,76.74 Q78.7588,77.8066 80.1035,77.8066 Q80.7344,77.8066 81.3279,77.5369 Q81.9214,77.2671 82.5522,76.686 Z " fill="#000000"/><text fill="#000000" font-family="sans-serif" font-size="14" lengthAdjust="spacing" textLength="24.7051" x="94.0791" y="78.5566">Foo</text><line style="stroke:#181818;stroke-width:0.5;" x1="66.0791" x2="120.7842" y1="89.2656" y2="89.2656"/><line style="stroke:#181818;stroke-width:0.5;" x1="66.0791" x2="120.7842" y1="97.2656" y2="97.2656"/></g><!--class Bar--><g class="entity" data-qualified-name="Bar" data-source-line="13" id="ent0003"><rect fill="#F1F1F1" height="48" rx="2.5" ry="2.5" style="stroke:#181818;stroke-width:0.5;" width="53.5127" x="66.6791" y="165.2656"/><ellipse cx="81.6791" cy="181.2656" fill="#ADD1B2" rx="11" ry="11" style="stroke:#181818;stroke-width:1;"/><path d="M84.1522,187.4087 Q83.5712,187.7075 82.932,187.8569 Q82.2929,188.0063 81.5873,188.0063 Q79.0805,188.0063 77.7606,186.3545 Q76.4408,184.7026 76.4408,181.5815 Q76.4408,178.4521 77.7606,176.8003 Q79.0805,175.1484 81.5873,175.1484 Q82.2929,175.1484 82.9403,175.2979 Q83.5878,175.4473 84.1522,175.7461 L84.1522,178.4688 Q83.5214,177.8877 82.9279,177.6179 Q82.3344,177.3481 81.7035,177.3481 Q80.3588,177.3481 79.674,178.4148 Q78.9892,179.4814 78.9892,181.5815 Q78.9892,183.6733 79.674,184.74 Q80.3588,185.8066 81.7035,185.8066 Q82.3344,185.8066 82.9279,185.5369 Q83.5214,185.2671 84.1522,184.686 Z " fill="#000000"/><text fill="#000000" font-family="sans-serif" font-size="14" lengthAdjust="spacing" textLength="21.5127" x="95.6791" y="186.5566">Bar</text><line style="stroke:#181818;stroke-width:0.5;" x1="67.6791" x2="119.1918" y1="197.2656" y2="197.2656"/><line style="stroke:#181818;stroke-width:0.5;" x1="67.6791" x2="119.1918" y1="205.2656" y2="205.2656"/></g><!--link Foo to Bar--><g class="link" data-entity-1="ent0002" data-entity-2="ent0003" data-link-type="dependency" data-source-line="14" id="lnk4"><path codeLine="14" d="M93.4291,105.5256 C93.4291,123.2056 93.4291,141.3956 93.4291,159.0556" fill="none" id="Foo-to-Bar" style="stroke:#181818;stroke-width:1;"/><polygon fill="#181818" points="93.4291,165.0556,97.4291,156.0556,93.4291,160.0556,89.4291,156.0556,93.4291,165.0556" style="stroke:#181818;stroke-width:1;"/></g><g class="legend" data-source-line="9"><rect fill="#DDDDDD" height="26.4883" rx="7.5" ry="7.5" style="stroke:#000000;stroke-width:1;" width="90.582" x="48.6406" y="234.2656"/><text fill="#000000" font-family="sans-serif" font-size="14" lengthAdjust="spacing" textLength="80.582" x="53.6406" y="252.8008">Legend text</text></g><g class="caption" data-source-line="8"><text fill="#000000" font-family="sans-serif" font-size="14" lengthAdjust="spacing" textLength="84.0889" x="51.8872" y="288.2891">Caption text</text></g><g class="footer" data-source-line="5"><text fill="#888888" font-family="sans-serif" font-size="10" lengthAdjust="spacing" textLength="53.3984" x="67.2324" y="302.9102">Footer text</text></g><?plantuml-src FOn13i8m30JlViL-e5z0Wag80pp2D6uRoIGetGFF9qq39y_ks6Qa6yxkU1WrA1LZVZrZiY2hQR0YmAq1Q1-AfT3xEMSsVMtmrxsVzCsO4yO-ctPRwWPAN5RMo_iHVvU7bSbrs_QldIvQf2OCmsddBm00?></g></svg>