<svg xmlns="http://www.w3.org/2000/svg" xmlns:xlink="http://www.w3.org/1999/xlink" contentStyleType="text/css" data-diagram-type="CLASS" height="80px" preserveAspectRatio="none" style="width:84px;height:80px;background:#FFFFFF;" version="1.1" viewBox="0 0 84 80" width="84px" zoomAndPan="magnify"><?plantuml 1.2026.3beta6?><defs/><g><g class="header" data-source-line="1"><text fill="#888888" font-family="sans-serif" font-size="10" lengthAdjust="spacing" textLength="77.7588" x="0" y="9.668">Left side header</text></g><!--class Foo--><g class="entity" data-qualified-name="Foo" data-source-line="4" id="ent0002"><rect fill="#F1F1F1" height="48" rx="2.5" ry="2.5" style="stroke:#181818;stroke-width:0.5;" width="56.7051" x="11.0269" y="19.7773"/><ellipse cx="26.0269" cy="35.7773" fill="#ADD1B2" rx="11" ry="11" style="stroke:#181818;stroke-width:1;"/><path d="M28.5,41.9204 Q27.9189,42.2192 27.2798,42.3687 Q26.6406,42.5181 25.9351,42.5181 Q23.4282,42.5181 22.1084,40.8662 Q20.7886,39.2144 20.7886,36.0933 Q20.7886,32.9639 22.1084,31.312 Q23.4282,29.6602 25.9351,29.6602 Q26.6406,29.6602 27.2881,29.8096 Q27.9355,29.959 28.5,30.2578 L28.5,32.9805 Q27.8691,32.3994 27.2756,32.1296 Q26.6821,31.8599 26.0513,31.8599 Q24.7065,31.8599 24.0217,32.9265 Q23.3369,33.9932 23.3369,36.0933 Q23.3369,38.1851 24.0217,39.2517 Q24.7065,40.3184 26.0513,40.3184 Q26.6821,40.3184 27.2756,40.0486 Q27.8691,39.7788 28.5,39.1978 Z " fill="#000000"/><text fill="#000000" font-family="sans-serif" font-size="14" lengthAdjust="spacing" textLength="24.7051" x="40.0269" y="41.0684">Foo</text><line style="stroke:#181818;stroke-width:0.5;" x1="12.0269" x2="66.7319" y1="51.7773" y2="51.7773"/><line style="stroke:#181818;stroke-width:0.5;" x1="12.0269" x2="66.7319" y1="59.7773" y2="59.7773"/></g><?plantuml-src oqbDAr78I4rCIItYyW6nYpDJKc42gNafC6PoJc9niO9RVZu0?></g></svg>