<svg xmlns="http://www.w3.org/2000/svg" xmlns:xlink="http://www.w3.org/1999/xlink" contentStyleType="text/css" data-diagram-type="DESCRIPTION" height="113px" preserveAspectRatio="none" style="width:156px;height:113px;background:#FFFFFF;" version="1.1" viewBox="0 0 156 113" width="156px" zoomAndPan="magnify"><?plantuml 1.2026.3beta6?><defs/><g><!--entity User--><g class="entity" data-qualified-name="User" data-source-line="2" id="ent0002"><ellipse cx="21.1826" cy="22.92" fill="#F1F1F1" rx="8" ry="8" style="stroke:#181818;stroke-width:0.5;"/><path d="M21.1826,30.92 L21.1826,57.92 M8.1826,38.92 L34.1826,38.92 M21.1826,57.92 L8.1826,72.92 M21.1826,57.92 L34.1826,72.92" fill="none" style="stroke:#181818;stroke-width:0.5;"/><text fill="#000000" font-family="sans-serif" font-size="14" lengthAdjust="spacing" textLength="30.3652" x="6" y="87.9552">User</text></g><!--entity UC1--><g class="entity" data-qualified-name="UC1" data-source-line="3" id="ent0003"><ellipse cx="119.3282" cy="20.659" fill="#F1F1F1" rx="22.9682" ry="14.659" style="stroke:#181818;stroke-width:0.5;"/><text fill="#000000" font-family="sans-serif" font-size="14" lengthAdjust="spacing" textLength="28.2393" x="105.2085" y="25.4031">UC1</text></g><!--entity UC2--><g class="entity" data-qualified-name="UC2" data-source-line="4" id="ent0004"><ellipse cx="119.3282" cy="84.659" fill="#F1F1F1" rx="22.9682" ry="14.659" style="stroke:#181818;stroke-width:0.5;"/><text fill="#000000" font-family="sans-serif" font-size="14" lengthAdjust="spacing" textLength="28.2393" x="105.2085" y="89.4031">UC2</text></g><!--link User to UC1--><g class="link" data-entity-1="ent0002" data-entity-2="ent0003" data-link-type="dependency" data-source-line="5" id="lnk5"><path d="M36.79,47.8 C53.28,42.31 74.527,35.2446 92.887,29.1346" fill="none" id="User-to-UC1" style="stroke:#181818;stroke-width:1;"/><polygon fill="#181818" points="98.58,27.24,88.7774,26.2865,93.8358,28.8188,91.3035,33.8772,98.58,27.24" style="stroke:#181818;stroke-width:1;"/></g><!--link User to UC2--><g class="link" data-entity-1="ent0002" data-entity-2="ent0004" data-link-type="dependency" data-source-line="6" id="lnk6"><path d="M36.79,57.52 C53.28,63.01 74.527,70.0854 92.887,76.1954" fill="none" id="User-to-UC2" style="stroke:#181818;stroke-width:1;"/><polygon fill="#181818" points="98.58,78.09,91.3035,71.4528,93.8358,76.5112,88.7774,79.0435,98.58,78.09" style="stroke:#181818;stroke-width:1;"/></g><?plantuml-src oqbDAr4eoLSeoapFA558oInAJIx9pC_ZIamkoIzI22rEBU8gBKvDJYnELGXrDaHY6t6191LqTUt04aWS8m00?></g></svg>