<svg xmlns="http://www.w3.org/2000/svg" xmlns:xlink="http://www.w3.org/1999/xlink" contentStyleType="text/css" data-diagram-type="CLASS" height="260px" preserveAspectRatio="none" style="width:186px;height:260px;background:#FFFFFF;" version="1.1" viewBox="0 0 186 260" width="186px" zoomAndPan="magnify"><?plantuml 1.2026.3beta6?><defs/><g><!--class Left--><g class="entity" data-qualified-name="Left" data-source-line="1" id="ent0002"><rect fill="#F1F1F1" height="80.9766" rx="2.5" ry="2.5" style="stroke:#181818;stroke-width:0.5;" width="164.3936" x="7" y="7"/><ellipse cx="72.1226" cy="23" fill="#ADD1B2" rx="11" ry="11" style="stroke:#181818;stroke-width:1;"/><path d="M75.7368,29.5 L68.0171,29.5 L68.0171,17.1069 L75.7368,17.1069 L75.7368,19.2651 L70.4658,19.2651 L70.4658,21.938 L75.2388,21.938 L75.2388,24.0962 L70.4658,24.0962 L70.4658,27.3418 L75.7368,27.3418 Z " fill="#000000"/><text fill="#000000" font-family="sans-serif" font-size="14" lengthAdjust="spacing" textLength="25.6484" x="92.6226" y="28.291">Left</text><line style="stroke:#181818;stroke-width:0.5;" x1="8" x2="170.3936" y1="39" y2="39"/><g data-visibility-modifier="IE_MANDATORY"><ellipse cx="18" cy="52.7441" fill="#000000" rx="3" ry="3" style="stroke:#000000;stroke-width:1;"/></g><text fill="#000000" font-family="sans-serif" font-size="14" lengthAdjust="spacing" textLength="85.3535" x="27" y="56.5352">id : INT &#171;PK&#187;</text><line style="stroke:#181818;stroke-width:1;" x1="8" x2="170.3936" y1="63.4883" y2="63.4883"/><text fill="#000000" font-family="sans-serif" font-size="14" lengthAdjust="spacing" textLength="152.3936" x="13" y="81.0234">name : VARCHAR(100)</text></g><!--class Right--><g class="entity" data-qualified-name="Right" data-source-line="6" id="ent0003"><rect fill="#F1F1F1" height="80.9766" rx="2.5" ry="2.5" style="stroke:#181818;stroke-width:0.5;" width="164.3936" x="7" y="164.97"/><ellipse cx="67.1699" cy="180.97" fill="#ADD1B2" rx="11" ry="11" style="stroke:#181818;stroke-width:1;"/><path d="M70.7842,187.47 L63.0645,187.47 L63.0645,175.0769 L70.7842,175.0769 L70.7842,177.2351 L65.5132,177.2351 L65.5132,179.908 L70.2861,179.908 L70.2861,182.0662 L65.5132,182.0662 L65.5132,185.3118 L70.7842,185.3118 Z " fill="#000000"/><text fill="#000000" font-family="sans-serif" font-size="14" lengthAdjust="spacing" textLength="35.5537" x="87.6699" y="186.261">Right</text><line style="stroke:#181818;stroke-width:0.5;" x1="8" x2="170.3936" y1="196.97" y2="196.97"/><g data-visibility-modifier="IE_MANDATORY"><ellipse cx="18" cy="210.7141" fill="#000000" rx="3" ry="3" style="stroke:#000000;stroke-width:1;"/></g><text fill="#000000" font-family="sans-serif" font-size="14" lengthAdjust="spacing" textLength="85.3535" x="27" y="214.5052">id : INT &#171;PK&#187;</text><line style="stroke:#181818;stroke-width:1;" x1="8" x2="170.3936" y1="221.4583" y2="221.4583"/><text fill="#000000" font-family="sans-serif" font-size="14" lengthAdjust="spacing" textLength="152.3936" x="13" y="238.9934">name : VARCHAR(100)</text></g><!--link Left to Right--><g class="link" data-entity-1="ent0002" data-entity-2="ent0003" data-link-type="crowfoot" data-source-line="11" id="lnk4"><path codeLine="11" d="M89.2,96.25 C89.2,119.62 89.2,123.09 89.2,146.5" fill="none" id="Left-Right" style="stroke:#181818;stroke-width:1;"/><line style="stroke:#181818;stroke-width:1;" x1="85.2" x2="93.2" y1="92.25" y2="92.25"/><line style="stroke:#181818;stroke-width:1;" x1="85.2" x2="93.2" y1="95.25" y2="95.25"/><line style="stroke:#181818;stroke-width:1;" x1="89.2" x2="89.2" y1="96.25" y2="88.25"/><line style="stroke:#181818;stroke-width:1;" x1="89.2" x2="95.2" y1="156.5" y2="164.5"/><line style="stroke:#181818;stroke-width:1;" x1="89.2" x2="83.2" y1="156.5" y2="164.5"/><line style="stroke:#181818;stroke-width:1;" x1="89.2" x2="89.2" y1="156.5" y2="164.5"/><ellipse cx="89.2" cy="150.5" fill="none" rx="4" ry="4" style="stroke:#181818;stroke-width:1;"/><text fill="#000000" font-family="sans-serif" font-size="13" lengthAdjust="spacing" textLength="74.8071" x="90.2" y="131.5384">relationship</text></g><?plantuml-src IyqhoIofLF19JIjHgEPIKD1Io4nHi5Bmz0jHiB49yBQp0uhfwWA9lCJSLA14c6EGiuTZa8QXWO4cLorNAaHxK6Pw1bdwmVRMrEZgvbT33R5IK2fApKaioSpFAyx8B5020000?></g></svg>