<svg xmlns="http://www.w3.org/2000/svg" xmlns:xlink="http://www.w3.org/1999/xlink" contentStyleType="text/css" data-diagram-type="CLASS" height="293px" preserveAspectRatio="none" style="width:186px;height:293px;background:#FFFFFF;" version="1.1" viewBox="0 0 186 293" width="186px" zoomAndPan="magnify"><?plantuml 1.2026.3beta6?><defs/><g><!--class Parent--><g class="entity" data-qualified-name="Parent" data-source-line="1" id="ent0002"><rect fill="#F1F1F1" height="80.9766" rx="2.5" ry="2.5" style="stroke:#181818;stroke-width:0.5;" width="164.3936" x="7" y="7"/><ellipse cx="63.4854" cy="23" fill="#ADD1B2" rx="11" ry="11" style="stroke:#181818;stroke-width:1;"/><path d="M67.0996,29.5 L59.3799,29.5 L59.3799,17.1069 L67.0996,17.1069 L67.0996,19.2651 L61.8286,19.2651 L61.8286,21.938 L66.6016,21.938 L66.6016,24.0962 L61.8286,24.0962 L61.8286,27.3418 L67.0996,27.3418 Z " fill="#000000"/><text fill="#000000" font-family="sans-serif" font-size="14" lengthAdjust="spacing" textLength="42.9229" x="83.9854" y="28.291">Parent</text><line style="stroke:#181818;stroke-width:0.5;" x1="8" x2="170.3936" y1="39" y2="39"/><g data-visibility-modifier="IE_MANDATORY"><ellipse cx="18" cy="52.7441" fill="#000000" rx="3" ry="3" style="stroke:#000000;stroke-width:1;"/></g><text fill="#000000" font-family="sans-serif" font-size="14" lengthAdjust="spacing" textLength="85.3535" x="27" y="56.5352">id : INT &#171;PK&#187;</text><line style="stroke:#181818;stroke-width:1;" x1="8" x2="170.3936" y1="63.4883" y2="63.4883"/><text fill="#000000" font-family="sans-serif" font-size="14" lengthAdjust="spacing" textLength="152.3936" x="13" y="81.0234">name : VARCHAR(100)</text></g><!--class Child--><g class="entity" data-qualified-name="Child" data-source-line="6" id="ent0003"><rect fill="#F1F1F1" height="113.9531" rx="2.5" ry="2.5" style="stroke:#181818;stroke-width:0.5;" width="164.3936" x="7" y="164.98"/><ellipse cx="67.3066" cy="180.98" fill="#ADD1B2" rx="11" ry="11" style="stroke:#181818;stroke-width:1;"/><path d="M70.9209,187.48 L63.2012,187.48 L63.2012,175.0869 L70.9209,175.0869 L70.9209,177.2451 L65.6499,177.2451 L65.6499,179.918 L70.4229,179.918 L70.4229,182.0762 L65.6499,182.0762 L65.6499,185.3218 L70.9209,185.3218 Z " fill="#000000"/><text fill="#000000" font-family="sans-serif" font-size="14" lengthAdjust="spacing" textLength="35.2803" x="87.8066" y="186.271">Child</text><line style="stroke:#181818;stroke-width:0.5;" x1="8" x2="170.3936" y1="196.98" y2="196.98"/><g data-visibility-modifier="IE_MANDATORY"><ellipse cx="18" cy="210.7241" fill="#000000" rx="3" ry="3" style="stroke:#000000;stroke-width:1;"/></g><text fill="#000000" font-family="sans-serif" font-size="14" lengthAdjust="spacing" textLength="85.3535" x="27" y="214.5152">id : INT &#171;PK&#187;</text><g data-visibility-modifier="IE_MANDATORY"><ellipse cx="18" cy="227.2124" fill="#000000" rx="3" ry="3" style="stroke:#000000;stroke-width:1;"/></g><text fill="#000000" font-family="sans-serif" font-size="14" lengthAdjust="spacing" textLength="136.1172" x="27" y="231.0034">parent_id : INT &#171;FK&#187;</text><line style="stroke:#181818;stroke-width:1;" x1="8" x2="170.3936" y1="237.9566" y2="237.9566"/><text fill="#000000" font-family="sans-serif" font-size="14" lengthAdjust="spacing" textLength="152.3936" x="13" y="255.4917">name : VARCHAR(100)</text><text fill="#000000" font-family="sans-serif" font-size="14" lengthAdjust="spacing" textLength="60.7783" x="13" y="271.98">age : INT</text></g><!--link Parent to Child--><g class="link" data-entity-1="ent0002" data-entity-2="ent0003" data-link-type="crowfoot" data-source-line="13" id="lnk4"><path codeLine="13" d="M89.2,96.06 C89.2,118.73 89.2,121.56 89.2,146.58" fill="none" id="Parent-Child" style="stroke:#181818;stroke-width:1;"/><line style="stroke:#181818;stroke-width:1;" x1="85.2" x2="93.2" y1="92.06" y2="92.06"/><line style="stroke:#181818;stroke-width:1;" x1="85.2" x2="93.2" y1="95.06" y2="95.06"/><line style="stroke:#181818;stroke-width:1;" x1="89.2" x2="89.2" y1="96.06" y2="88.06"/><line style="stroke:#181818;stroke-width:1;" x1="89.2" x2="95.2" y1="156.58" y2="164.58"/><line style="stroke:#181818;stroke-width:1;" x1="89.2" x2="83.2" y1="156.58" y2="164.58"/><line style="stroke:#181818;stroke-width:1;" x1="89.2" x2="89.2" y1="156.58" y2="164.58"/><ellipse cx="89.2" cy="150.58" fill="none" rx="4" ry="4" style="stroke:#181818;stroke-width:1;"/><text fill="#000000" font-family="sans-serif" font-size="13" lengthAdjust="spacing" textLength="21.874" x="90.2" y="131.5484">has</text></g><?plantuml-src IyqhoIofL0X8B4hDAr6evb9Gq5B8J56mKl3q2r6miGdmjhC3Ykdg0ecynDnKe4IOOv2pXsEGXg61WIPNBLSgn03dZCoS59pwjHGAm1R48qcv4J1QGI4nFHMY6cWDr84rDRgw-TLGswmKb38IYvK0?></g></svg>