<svg xmlns="http://www.w3.org/2000/svg" xmlns:xlink="http://www.w3.org/1999/xlink" contentStyleType="text/css" data-diagram-type="CLASS" height="133px" preserveAspectRatio="none" style="width:137px;height:133px;background:#FFFFFF;" version="1.1" viewBox="0 0 137 133" width="137px" zoomAndPan="magnify"><?plantuml 1.2026.3beta6?><defs/><g><!--class Pair--><g class="entity" data-qualified-name="Pair" data-source-line="1" id="ent0002"><rect fill="#F1F1F1" height="113.9531" rx="2.5" ry="2.5" style="stroke:#181818;stroke-width:0.5;" width="117.9639" x="7" y="7"/><ellipse cx="37.2745" cy="23" fill="#ADD1B2" rx="11" ry="11" style="stroke:#181818;stroke-width:1;"/><path d="M39.7477,29.1431 Q39.1666,29.4419 38.5274,29.5913 Q37.8883,29.7407 37.1827,29.7407 Q34.6759,29.7407 33.3561,28.0889 Q32.0362,26.437 32.0362,23.3159 Q32.0362,20.1865 33.3561,18.5347 Q34.6759,16.8828 37.1827,16.8828 Q37.8883,16.8828 38.5357,17.0322 Q39.1832,17.1816 39.7477,17.4805 L39.7477,20.2031 Q39.1168,19.6221 38.5233,19.3523 Q37.9298,19.0825 37.2989,19.0825 Q35.9542,19.0825 35.2694,20.1492 Q34.5846,21.2158 34.5846,23.3159 Q34.5846,25.4077 35.2694,26.4744 Q35.9542,27.541 37.2989,27.541 Q37.9298,27.541 38.5233,27.2712 Q39.1168,27.0015 39.7477,26.4204 Z " fill="#000000"/><text fill="#000000" font-family="sans-serif" font-size="14" lengthAdjust="spacing" textLength="25.2451" x="54.6688" y="28.291">Pair</text><rect fill="#FFFFFF" height="16.1328" style="stroke:#181818;stroke-width:1;stroke-dasharray:2,2;" width="24.7754" x="103.1885" y="4"/><text fill="#000000" font-family="sans-serif" font-size="12" font-style="italic" lengthAdjust="spacing" textLength="22.7754" x="104.1885" y="16.6016">A, B</text><line style="stroke:#181818;stroke-width:0.5;" x1="8" x2="123.9639" y1="39" y2="39"/><g data-visibility-modifier="PUBLIC_FIELD"><ellipse cx="18" cy="52.7441" fill="none" rx="3" ry="3" style="stroke:#038048;stroke-width:1;"/></g><text fill="#000000" font-family="sans-serif" font-size="14" lengthAdjust="spacing" textLength="41.3848" x="27" y="56.5352">A first</text><g data-visibility-modifier="PUBLIC_FIELD"><ellipse cx="18" cy="69.2324" fill="none" rx="3" ry="3" style="stroke:#038048;stroke-width:1;"/></g><text fill="#000000" font-family="sans-serif" font-size="14" lengthAdjust="spacing" textLength="60.6895" x="27" y="73.0234">B second</text><line style="stroke:#181818;stroke-width:1;" x1="8" x2="123.9639" y1="79.9766" y2="79.9766"/><g data-visibility-modifier="PUBLIC_METHOD"><ellipse cx="18" cy="93.7207" fill="#84BE84" rx="3" ry="3" style="stroke:#038048;stroke-width:1;"/></g><text fill="#000000" font-family="sans-serif" font-size="14" lengthAdjust="spacing" textLength="74.6143" x="27" y="97.5117">A getFirst()</text><g data-visibility-modifier="PUBLIC_METHOD"><ellipse cx="18" cy="110.209" fill="#84BE84" rx="3" ry="3" style="stroke:#038048;stroke-width:1;"/></g><text fill="#000000" font-family="sans-serif" font-size="14" lengthAdjust="spacing" textLength="91.9639" x="27" y="114">B getSecond()</text></g><?plantuml-src Iyv9B2vM24ZCBB9nr55mibEevb9Gq7PKICiiAYu1CPqKYbEJy_DIW6nTNOXSUcg96qXQGnEY0CWF1gi12jG20000?></g></svg>