<svg xmlns="http://www.w3.org/2000/svg" xmlns:xlink="http://www.w3.org/1999/xlink" contentStyleType="text/css" data-diagram-type="CLASS" height="562px" preserveAspectRatio="none" style="width:144px;height:562px;background:#FFFFFF;" version="1.1" viewBox="0 0 144 562" width="144px" zoomAndPan="magnify"><?plantuml 1.2026.3beta6?><defs/><g><!--class ManyFields30--><g class="entity" data-qualified-name="ManyFields30" data-source-line="1" id="ent0002"><rect fill="#F1F1F1" height="542.6484" rx="2.5" ry="2.5" style="stroke:#181818;stroke-width:0.5;" width="124.8457" x="7" y="7"/><ellipse cx="22" cy="23" fill="#ADD1B2" rx="11" ry="11" style="stroke:#181818;stroke-width:1;"/><path d="M24.4731,29.1431 Q23.8921,29.4419 23.2529,29.5913 Q22.6138,29.7407 21.9082,29.7407 Q19.4014,29.7407 18.0815,28.0889 Q16.7617,26.437 16.7617,23.3159 Q16.7617,20.1865 18.0815,18.5347 Q19.4014,16.8828 21.9082,16.8828 Q22.6138,16.8828 23.2612,17.0322 Q23.9087,17.1816 24.4731,17.4805 L24.4731,20.2031 Q23.8423,19.6221 23.2488,19.3523 Q22.6553,19.0825 22.0244,19.0825 Q20.6797,19.0825 19.9949,20.1492 Q19.3101,21.2158 19.3101,23.3159 Q19.3101,25.4077 19.9949,26.4744 Q20.6797,27.541 22.0244,27.541 Q22.6553,27.541 23.2488,27.2712 Q23.8423,27.0015 24.4731,26.4204 Z " fill="#000000"/><text fill="#000000" font-family="sans-serif" font-size="14" lengthAdjust="spacing" textLength="92.8457" x="36" y="28.291">ManyFields30</text><line style="stroke:#181818;stroke-width:0.5;" x1="8" x2="130.8457" y1="39" y2="39"/><g data-visibility-modifier="PUBLIC_FIELD"><ellipse cx="18" cy="52.7441" fill="none" rx="3" ry="3" style="stroke:#038048;stroke-width:1;"/></g><text fill="#000000" font-family="sans-serif" font-size="14" lengthAdjust="spacing" textLength="91.957" x="27" y="56.5352">String field01</text><g data-visibility-modifier="PUBLIC_FIELD"><ellipse cx="18" cy="69.2324" fill="none" rx="3" ry="3" style="stroke:#038048;stroke-width:1;"/></g><text fill="#000000" font-family="sans-serif" font-size="14" lengthAdjust="spacing" textLength="91.957" x="27" y="73.0234">String field02</text><g data-visibility-modifier="PUBLIC_FIELD"><ellipse cx="18" cy="85.7207" fill="none" rx="3" ry="3" style="stroke:#038048;stroke-width:1;"/></g><text fill="#000000" font-family="sans-serif" font-size="14" lengthAdjust="spacing" textLength="91.957" x="27" y="89.5117">String field03</text><g data-visibility-modifier="PUBLIC_FIELD"><ellipse cx="18" cy="102.209" fill="none" rx="3" ry="3" style="stroke:#038048;stroke-width:1;"/></g><text fill="#000000" font-family="sans-serif" font-size="14" lengthAdjust="spacing" textLength="91.957" x="27" y="106">String field04</text><g data-visibility-modifier="PUBLIC_FIELD"><ellipse cx="18" cy="118.6973" fill="none" rx="3" ry="3" style="stroke:#038048;stroke-width:1;"/></g><text fill="#000000" font-family="sans-serif" font-size="14" lengthAdjust="spacing" textLength="91.957" x="27" y="122.4883">String field05</text><g data-visibility-modifier="PUBLIC_FIELD"><ellipse cx="18" cy="135.1855" fill="none" rx="3" ry="3" style="stroke:#038048;stroke-width:1;"/></g><text fill="#000000" font-family="sans-serif" font-size="14" lengthAdjust="spacing" textLength="91.957" x="27" y="138.9766">String field06</text><g data-visibility-modifier="PUBLIC_FIELD"><ellipse cx="18" cy="151.6738" fill="none" rx="3" ry="3" style="stroke:#038048;stroke-width:1;"/></g><text fill="#000000" font-family="sans-serif" font-size="14" lengthAdjust="spacing" textLength="91.957" x="27" y="155.4648">String field07</text><g data-visibility-modifier="PUBLIC_FIELD"><ellipse cx="18" cy="168.1621" fill="none" rx="3" ry="3" style="stroke:#038048;stroke-width:1;"/></g><text fill="#000000" font-family="sans-serif" font-size="14" lengthAdjust="spacing" textLength="91.957" x="27" y="171.9531">String field08</text><g data-visibility-modifier="PUBLIC_FIELD"><ellipse cx="18" cy="184.6504" fill="none" rx="3" ry="3" style="stroke:#038048;stroke-width:1;"/></g><text fill="#000000" font-family="sans-serif" font-size="14" lengthAdjust="spacing" textLength="91.957" x="27" y="188.4414">String field09</text><g data-visibility-modifier="PUBLIC_FIELD"><ellipse cx="18" cy="201.1387" fill="none" rx="3" ry="3" style="stroke:#038048;stroke-width:1;"/></g><text fill="#000000" font-family="sans-serif" font-size="14" lengthAdjust="spacing" textLength="91.957" x="27" y="204.9297">String field10</text><g data-visibility-modifier="PUBLIC_FIELD"><ellipse cx="18" cy="217.627" fill="none" rx="3" ry="3" style="stroke:#038048;stroke-width:1;"/></g><text fill="#000000" font-family="sans-serif" font-size="14" lengthAdjust="spacing" textLength="91.957" x="27" y="221.418">String field11</text><g data-visibility-modifier="PUBLIC_FIELD"><ellipse cx="18" cy="234.1152" fill="none" rx="3" ry="3" style="stroke:#038048;stroke-width:1;"/></g><text fill="#000000" font-family="sans-serif" font-size="14" lengthAdjust="spacing" textLength="91.957" x="27" y="237.9063">String field12</text><g data-visibility-modifier="PUBLIC_FIELD"><ellipse cx="18" cy="250.6035" fill="none" rx="3" ry="3" style="stroke:#038048;stroke-width:1;"/></g><text fill="#000000" font-family="sans-serif" font-size="14" lengthAdjust="spacing" textLength="91.957" x="27" y="254.3945">String field13</text><g data-visibility-modifier="PUBLIC_FIELD"><ellipse cx="18" cy="267.0918" fill="none" rx="3" ry="3" style="stroke:#038048;stroke-width:1;"/></g><text fill="#000000" font-family="sans-serif" font-size="14" lengthAdjust="spacing" textLength="91.957" x="27" y="270.8828">String field14</text><g data-visibility-modifier="PUBLIC_FIELD"><ellipse cx="18" cy="283.5801" fill="none" rx="3" ry="3" style="stroke:#038048;stroke-width:1;"/></g><text fill="#000000" font-family="sans-serif" font-size="14" lengthAdjust="spacing" textLength="91.957" x="27" y="287.3711">String field15</text><g data-visibility-modifier="PUBLIC_FIELD"><ellipse cx="18" cy="300.0684" fill="none" rx="3" ry="3" style="stroke:#038048;stroke-width:1;"/></g><text fill="#000000" font-family="sans-serif" font-size="14" lengthAdjust="spacing" textLength="91.957" x="27" y="303.8594">String field16</text><g data-visibility-modifier="PUBLIC_FIELD"><ellipse cx="18" cy="316.5566" fill="none" rx="3" ry="3" style="stroke:#038048;stroke-width:1;"/></g><text fill="#000000" font-family="sans-serif" font-size="14" lengthAdjust="spacing" textLength="91.957" x="27" y="320.3477">String field17</text><g data-visibility-modifier="PUBLIC_FIELD"><ellipse cx="18" cy="333.0449" fill="none" rx="3" ry="3" style="stroke:#038048;stroke-width:1;"/></g><text fill="#000000" font-family="sans-serif" font-size="14" lengthAdjust="spacing" textLength="91.957" x="27" y="336.8359">String field18</text><g data-visibility-modifier="PUBLIC_FIELD"><ellipse cx="18" cy="349.5332" fill="none" rx="3" ry="3" style="stroke:#038048;stroke-width:1;"/></g><text fill="#000000" font-family="sans-serif" font-size="14" lengthAdjust="spacing" textLength="91.957" x="27" y="353.3242">String field19</text><g data-visibility-modifier="PUBLIC_FIELD"><ellipse cx="18" cy="366.0215" fill="none" rx="3" ry="3" style="stroke:#038048;stroke-width:1;"/></g><text fill="#000000" font-family="sans-serif" font-size="14" lengthAdjust="spacing" textLength="91.957" x="27" y="369.8125">String field20</text><g data-visibility-modifier="PUBLIC_FIELD"><ellipse cx="18" cy="382.5098" fill="none" rx="3" ry="3" style="stroke:#038048;stroke-width:1;"/></g><text fill="#000000" font-family="sans-serif" font-size="14" lengthAdjust="spacing" textLength="91.957" x="27" y="386.3008">String field21</text><g data-visibility-modifier="PUBLIC_FIELD"><ellipse cx="18" cy="398.998" fill="none" rx="3" ry="3" style="stroke:#038048;stroke-width:1;"/></g><text fill="#000000" font-family="sans-serif" font-size="14" lengthAdjust="spacing" textLength="91.957" x="27" y="402.7891">String field22</text><g data-visibility-modifier="PUBLIC_FIELD"><ellipse cx="18" cy="415.4863" fill="none" rx="3" ry="3" style="stroke:#038048;stroke-width:1;"/></g><text fill="#000000" font-family="sans-serif" font-size="14" lengthAdjust="spacing" textLength="91.957" x="27" y="419.2773">String field23</text><g data-visibility-modifier="PUBLIC_FIELD"><ellipse cx="18" cy="431.9746" fill="none" rx="3" ry="3" style="stroke:#038048;stroke-width:1;"/></g><text fill="#000000" font-family="sans-serif" font-size="14" lengthAdjust="spacing" textLength="91.957" x="27" y="435.7656">String field24</text><g data-visibility-modifier="PUBLIC_FIELD"><ellipse cx="18" cy="448.4629" fill="none" rx="3" ry="3" style="stroke:#038048;stroke-width:1;"/></g><text fill="#000000" font-family="sans-serif" font-size="14" lengthAdjust="spacing" textLength="91.957" x="27" y="452.2539">String field25</text><g data-visibility-modifier="PUBLIC_FIELD"><ellipse cx="18" cy="464.9512" fill="none" rx="3" ry="3" style="stroke:#038048;stroke-width:1;"/></g><text fill="#000000" font-family="sans-serif" font-size="14" lengthAdjust="spacing" textLength="91.957" x="27" y="468.7422">String field26</text><g data-visibility-modifier="PUBLIC_FIELD"><ellipse cx="18" cy="481.4395" fill="none" rx="3" ry="3" style="stroke:#038048;stroke-width:1;"/></g><text fill="#000000" font-family="sans-serif" font-size="14" lengthAdjust="spacing" textLength="91.957" x="27" y="485.2305">String field27</text><g data-visibility-modifier="PUBLIC_FIELD"><ellipse cx="18" cy="497.9277" fill="none" rx="3" ry="3" style="stroke:#038048;stroke-width:1;"/></g><text fill="#000000" font-family="sans-serif" font-size="14" lengthAdjust="spacing" textLength="91.957" x="27" y="501.7188">String field28</text><g data-visibility-modifier="PUBLIC_FIELD"><ellipse cx="18" cy="514.416" fill="none" rx="3" ry="3" style="stroke:#038048;stroke-width:1;"/></g><text fill="#000000" font-family="sans-serif" font-size="14" lengthAdjust="spacing" textLength="91.957" x="27" y="518.207">String field29</text><g data-visibility-modifier="PUBLIC_FIELD"><ellipse cx="18" cy="530.9043" fill="none" rx="3" ry="3" style="stroke:#038048;stroke-width:1;"/></g><text fill="#000000" font-family="sans-serif" font-size="14" lengthAdjust="spacing" textLength="91.957" x="27" y="534.6953">String field30</text><line style="stroke:#181818;stroke-width:0.5;" x1="8" x2="130.8457" y1="541.6484" y2="541.6484"/></g><?plantuml-src PSuh3eD068LHpof-Zvbx1_hO00x52aXB6nA2wDIGfdidM3vxr7aiOodHZ-lMpTFoB3d5hugeX-zdNj_nEZ09OaY6D90MSe5S8JV8_InA49o5it0Mpi9PE0jduIoSZRDnDix6sJWRP-Did8spSSwf-ky0?></g></svg>