<svg xmlns="http://www.w3.org/2000/svg" xmlns:xlink="http://www.w3.org/1999/xlink" contentStyleType="text/css" data-diagram-type="CLASS" height="84px" preserveAspectRatio="none" style="width:140px;height:84px;background:#FFFFFF;" version="1.1" viewBox="0 0 140 84" width="140px" zoomAndPan="magnify"><?plantuml 1.2026.3beta6?><defs/><g><!--class ColorTest--><g class="entity" data-qualified-name="ColorTest" data-source-line="1" id="ent0002"><rect fill="#7B68EE" height="64.4883" rx="2.5" ry="2.5" style="stroke:#181818;stroke-width:0.5;" width="120.4453" x="7" y="7"/><ellipse cx="32.2415" cy="23" fill="#ADD1B2" rx="11" ry="11" style="stroke:#181818;stroke-width:1;"/><path d="M34.7146,29.1431 Q34.1335,29.4419 33.4944,29.5913 Q32.8552,29.7407 32.1497,29.7407 Q29.6428,29.7407 28.323,28.0889 Q27.0032,26.437 27.0032,23.3159 Q27.0032,20.1865 28.323,18.5347 Q29.6428,16.8828 32.1497,16.8828 Q32.8552,16.8828 33.5027,17.0322 Q34.1501,17.1816 34.7146,17.4805 L34.7146,20.2031 Q34.0837,19.6221 33.4902,19.3523 Q32.8967,19.0825 32.2659,19.0825 Q30.9211,19.0825 30.2363,20.1492 Q29.5515,21.2158 29.5515,23.3159 Q29.5515,25.4077 30.2363,26.4744 Q30.9211,27.541 32.2659,27.541 Q32.8967,27.541 33.4902,27.2712 Q34.0837,27.0015 34.7146,26.4204 Z " fill="#000000"/><text fill="#000000" font-family="sans-serif" font-size="14" lengthAdjust="spacing" textLength="65.6865" x="48.5173" y="28.291">ColorTest</text><line style="stroke:#181818;stroke-width:0.5;" x1="8" x2="126.4453" y1="39" y2="39"/><line style="stroke:#181818;stroke-width:0.5;" x1="8" x2="126.4453" y1="47" y2="47"/><g data-visibility-modifier="PUBLIC_METHOD"><ellipse cx="18" cy="60.7441" fill="#84BE84" rx="3" ry="3" style="stroke:#038048;stroke-width:1;"/></g><text fill="#000000" font-family="sans-serif" font-size="14" lengthAdjust="spacing" textLength="94.4453" x="27" y="64.5352">void method()</text></g><?plantuml-src Iyv9B2vMSCxFoIyAIIqkKL3sJKt9BCqDpaaiINNAAKrLgEPIKD0koyzCKSXDBSd8Jz7GvAe50000?></g></svg>