<svg xmlns="http://www.w3.org/2000/svg" xmlns:xlink="http://www.w3.org/1999/xlink" contentStyleType="text/css" data-diagram-type="CLASS" height="109px" preserveAspectRatio="none" style="width:197px;height:109px;background:#FFFFFF;" version="1.1" viewBox="0 0 197 109" width="197px" zoomAndPan="magnify"><?plantuml 1.2026.3beta6?><defs/><g><!--class MyClass--><g class="entity" data-qualified-name="MyClass" data-source-line="1" id="ent0002"><rect fill="#F1F1F1" height="89.5977" rx="2.5" ry="2.5" style="stroke:#181818;stroke-width:0.5;" width="177.3271" x="7" y="7"/><ellipse cx="59.9653" cy="27.3105" fill="#FF7700" rx="11" ry="11" style="stroke:#181818;stroke-width:1;"/><path d="M59.6987,28.3735 Q57.8477,27.668 57.1919,26.8918 Q56.5361,26.1157 56.5361,24.8042 Q56.5361,23.1191 57.6152,22.1563 Q58.6943,21.1934 60.5786,21.1934 Q61.4336,21.1934 62.2886,21.3884 Q63.1436,21.5835 63.9819,21.9653 L63.9819,24.356 Q63.1934,23.7998 62.3799,23.5093 Q61.5664,23.2188 60.7695,23.2188 Q59.8813,23.2188 59.4082,23.5757 Q58.9351,23.9326 58.9351,24.5967 Q58.9351,25.1113 59.2795,25.4475 Q59.624,25.7837 60.7197,26.1904 L61.7739,26.5889 Q63.2681,27.1367 63.9736,28.0415 Q64.6792,28.9463 64.6792,30.3242 Q64.6792,32.2002 63.571,33.1257 Q62.4629,34.0513 60.2217,34.0513 Q59.3003,34.0513 58.3748,33.8313 Q57.4492,33.6113 56.5859,33.1797 L56.5859,30.6479 Q57.5654,31.3452 58.4827,31.6855 Q59.3999,32.0259 60.2964,32.0259 Q61.2012,32.0259 61.6992,31.615 Q62.1973,31.2041 62.1973,30.4653 Q62.1973,29.9092 61.8652,29.49 Q61.5332,29.0708 60.9023,28.8301 Z " fill="#000000"/><text fill="#000000" font-family="sans-serif" font-size="12" font-style="italic" lengthAdjust="spacing" textLength="66.8965" x="78.4653" y="23.6016">&#171;Singleton&#187;</text><text fill="#000000" font-family="sans-serif" font-size="14" lengthAdjust="spacing" textLength="55.1113" x="84.3579" y="39.668">MyClass</text><line style="stroke:#181818;stroke-width:0.5;" x1="8" x2="183.3271" y1="47.6211" y2="47.6211"/><g data-visibility-modifier="PRIVATE_FIELD"><rect fill="none" height="6" style="stroke:#C82930;stroke-width:1;" width="6" x="15" y="58.3652"/></g><text fill="#000000" font-family="sans-serif" font-size="14" lengthAdjust="spacing" textLength="120.4697" x="27" y="65.1563">instance: MyClass</text><line style="stroke:#181818;stroke-width:0.5;" x1="8" x2="183.3271" y1="72.1094" y2="72.1094"/><g data-visibility-modifier="PUBLIC_METHOD"><ellipse cx="18" cy="85.8535" fill="#84BE84" rx="3" ry="3" style="stroke:#038048;stroke-width:1;"/></g><text fill="#000000" font-family="sans-serif" font-size="14" lengthAdjust="spacing" textLength="151.3271" x="27" y="89.6445">getInstance(): MyClass</text></g><?plantuml-src Iyv9B2vMyArq1jCsDWeQmJhARcxcvWO6cWh1cNdfEQab-NaATdOArLmA2hgPUSKbYNd9gLOmBK11xVJK4a-ek8OcGgOM0000?></g></svg>