<svg xmlns="http://www.w3.org/2000/svg" xmlns:xlink="http://www.w3.org/1999/xlink" contentStyleType="text/css" data-diagram-type="CLASS" height="84px" preserveAspectRatio="none" style="width:106px;height:84px;background:#FFFFFF;" version="1.1" viewBox="0 0 106 84" width="106px" zoomAndPan="magnify"><?plantuml 1.2026.3beta6?><defs/><g><!--class Variant--><g class="entity" data-qualified-name="Variant" data-source-line="1" id="ent0002"><rect fill="#F1F1F1" height="64.4883" rx="2.5" ry="2.5" style="stroke:#181818;stroke-width:0.5;" width="86.7852" x="7" y="7"/><ellipse cx="24.9109" cy="23" fill="#ADD1B2" rx="11" ry="11" style="stroke:#181818;stroke-width:1;"/><path d="M27.3841,29.1431 Q26.803,29.4419 26.1639,29.5913 Q25.5247,29.7407 24.8191,29.7407 Q22.3123,29.7407 20.9925,28.0889 Q19.6727,26.437 19.6727,23.3159 Q19.6727,20.1865 20.9925,18.5347 Q22.3123,16.8828 24.8191,16.8828 Q25.5247,16.8828 26.1722,17.0322 Q26.8196,17.1816 27.3841,17.4805 L27.3841,20.2031 Q26.7532,19.6221 26.1597,19.3523 Q25.5662,19.0825 24.9354,19.0825 Q23.5906,19.0825 22.9058,20.1492 Q22.221,21.2158 22.221,23.3159 Q22.221,25.4077 22.9058,26.4744 Q23.5906,27.541 24.9354,27.541 Q25.5662,27.541 26.1597,27.2712 Q26.7532,27.0015 27.3841,26.4204 Z " fill="#000000"/><text fill="#000000" font-family="sans-serif" font-size="14" lengthAdjust="spacing" textLength="48.3164" x="39.5578" y="28.291">Variant</text><line style="stroke:#181818;stroke-width:0.5;" x1="8" x2="92.7852" y1="39" y2="39"/><g data-visibility-modifier="PRIVATE_FIELD"><rect fill="none" height="6" style="stroke:#C82930;stroke-width:1;" width="6" x="15" y="49.7441"/></g><text fill="#000000" font-family="sans-serif" font-size="14" lengthAdjust="spacing" textLength="60.7852" x="27" y="56.5352">int count</text><line style="stroke:#181818;stroke-width:0.5;" x1="8" x2="92.7852" y1="63.4883" y2="63.4883"/></g><?plantuml-src Iyv9B2vM24iioapCAr6evb9GqCq4CfBpI_DAk6e1?></g></svg>