<svg xmlns="http://www.w3.org/2000/svg" xmlns:xlink="http://www.w3.org/1999/xlink" contentStyleType="text/css" data-diagram-type="DESCRIPTION" height="239px" preserveAspectRatio="none" style="width:161px;height:239px;background:#FFFFFF;" version="1.1" viewBox="0 0 161 239" width="161px" zoomAndPan="magnify"><?plantuml 1.2026.3beta6?><defs/><g><!--cluster Group--><g class="cluster" data-qualified-name="Group" data-source-line="1" id="ent0002"><polygon fill="none" points="16,16,26,6,136,6,136,204.98,126,214.98,16,214.98,16,16" style="stroke:#181818;stroke-width:1;"/><line style="stroke:#181818;stroke-width:1;" x1="126" x2="136" y1="16" y2="6"/><line style="stroke:#181818;stroke-width:1;" x1="16" x2="126" y1="16" y2="16"/><line style="stroke:#181818;stroke-width:1;" x1="126" x2="126" y1="16" y2="214.98"/><text fill="#000000" font-family="sans-serif" font-size="14" font-weight="700" lengthAdjust="spacing" textLength="44.2148" x="49.8926" y="32.5352">Group</text></g><!--entity A--><g class="entity" data-qualified-name="Group.A" data-source-line="2" id="ent0003"><rect fill="#F1F1F1" height="46.4883" rx="2.5" ry="2.5" style="stroke:#181818;stroke-width:0.5;" width="49.6592" x="51.17" y="46"/><rect fill="#F1F1F1" height="10" style="stroke:#181818;stroke-width:0.5;" width="15" x="80.8292" y="51"/><rect fill="#F1F1F1" height="2" style="stroke:#181818;stroke-width:0.5;" width="4" x="78.8292" y="53"/><rect fill="#F1F1F1" height="2" style="stroke:#181818;stroke-width:0.5;" width="4" x="78.8292" y="57"/><text fill="#000000" font-family="sans-serif" font-size="14" lengthAdjust="spacing" textLength="9.6592" x="66.17" y="79.5352">A</text></g><!--entity B--><g class="entity" data-qualified-name="Group.B" data-source-line="3" id="ent0004"><rect fill="#F1F1F1" height="46.4883" rx="2.5" ry="2.5" style="stroke:#181818;stroke-width:0.5;" width="48.0527" x="51.97" y="152.49"/><rect fill="#F1F1F1" height="10" style="stroke:#181818;stroke-width:0.5;" width="15" x="80.0227" y="157.49"/><rect fill="#F1F1F1" height="2" style="stroke:#181818;stroke-width:0.5;" width="4" x="78.0227" y="159.49"/><rect fill="#F1F1F1" height="2" style="stroke:#181818;stroke-width:0.5;" width="4" x="78.0227" y="163.49"/><text fill="#000000" font-family="sans-serif" font-size="14" lengthAdjust="spacing" textLength="8.0527" x="66.97" y="186.0252">B</text></g><!--link A to B--><g class="link" data-entity-1="ent0003" data-entity-2="ent0004" data-link-type="dependency" data-source-line="4" id="lnk5"><path d="M76,92.92 C76,110.45 76,128.59 76,146.11" fill="none" id="A-to-B" style="stroke:#181818;stroke-width:1;"/><polygon fill="#181818" points="76,152.11,80,143.11,76,147.11,72,143.11,76,152.11" style="stroke:#181818;stroke-width:1;"/></g><?plantuml-src oyjFILLmByelBL2evb9GICxFBSZFIyqhKN14uJa1UOuAkhfsG5Oj0000?></g></svg>