<svg xmlns="http://www.w3.org/2000/svg" xmlns:xlink="http://www.w3.org/1999/xlink" contentStyleType="text/css" data-diagram-type="DESCRIPTION" height="206px" preserveAspectRatio="none" style="width:129px;height:206px;background:#FFFFFF;" version="1.1" viewBox="0 0 129 206" width="129px" zoomAndPan="magnify"><?plantuml 1.2026.3beta6?><defs/><g><!--entity Foo--><g class="entity" data-qualified-name="Foo" data-source-line="1" id="ent0002"><rect fill="#F1F1F1" height="62.9766" rx="2.5" ry="2.5" style="stroke:#181818;stroke-width:0.5;" width="108.5205" x="7" y="7"/><rect fill="#F1F1F1" height="10" style="stroke:#181818;stroke-width:0.5;" width="15" x="95.5205" y="12"/><rect fill="#F1F1F1" height="2" style="stroke:#181818;stroke-width:0.5;" width="4" x="93.5205" y="14"/><rect fill="#F1F1F1" height="2" style="stroke:#181818;stroke-width:0.5;" width="4" x="93.5205" y="18"/><text fill="#000000" font-family="sans-serif" font-size="14" font-style="italic" lengthAdjust="spacing" textLength="66.5205" x="23" y="40.5352">&#171;adapter&#187;</text><text fill="#000000" font-family="sans-serif" font-size="14" lengthAdjust="spacing" textLength="24.7051" x="43.9077" y="57.0234">Foo</text></g><!--entity Bar--><g class="entity" data-qualified-name="Bar" data-source-line="2" id="ent0003"><rect fill="#F1F1F1" height="62.9766" rx="2.5" ry="2.5" style="stroke:#181818;stroke-width:0.5;" width="108.5205" x="7" y="129.97"/><rect fill="#F1F1F1" height="10" style="stroke:#181818;stroke-width:0.5;" width="15" x="95.5205" y="134.97"/><rect fill="#F1F1F1" height="2" style="stroke:#181818;stroke-width:0.5;" width="4" x="93.5205" y="136.97"/><rect fill="#F1F1F1" height="2" style="stroke:#181818;stroke-width:0.5;" width="4" x="93.5205" y="140.97"/><text fill="#000000" font-family="sans-serif" font-size="14" font-style="italic" lengthAdjust="spacing" textLength="66.5205" x="23" y="163.5052">&#171;adapter&#187;</text><text fill="#000000" font-family="sans-serif" font-size="14" lengthAdjust="spacing" textLength="21.5127" x="45.5039" y="179.9934">Bar</text></g><!--link Foo to Bar--><g class="link" data-entity-1="ent0002" data-entity-2="ent0003" data-link-type="dependency" data-source-line="3" id="lnk4"><path d="M61.26,70.33 C61.26,88.53 61.26,105.49 61.26,123.68" fill="none" id="Foo-to-Bar" style="stroke:#181818;stroke-width:1;"/><polygon fill="#181818" points="61.26,129.68,65.26,120.68,61.26,124.68,57.26,120.68,61.26,129.68" style="stroke:#181818;stroke-width:1;"/></g><?plantuml-src IyxFBSZFIyqhKN3BprUmiKbCIImeIIsoi-DAXiiu9HQXo81KwkhQWSG1?></g></svg>