<svg xmlns="http://www.w3.org/2000/svg" xmlns:xlink="http://www.w3.org/1999/xlink" contentStyleType="text/css" data-diagram-type="CLASS" height="379px" preserveAspectRatio="none" style="width:310px;height:379px;background:#FFFFFF;" version="1.1" viewBox="0 0 310 379" width="310px" zoomAndPan="magnify"><?plantuml 1.2026.3beta6?><defs/><g><!--class CheckerClnFreshHub2801--><g class="entity" data-qualified-name="CheckerClnFreshHub2801" data-source-line="2" id="ent0002"><rect fill="#F1F1F1" height="48" rx="2.5" ry="2.5" style="stroke:#181818;stroke-width:0.5;" width="197.751" x="14.0069" y="7"/><ellipse cx="29.0069" cy="23" fill="#ADD1B2" rx="11" ry="11" style="stroke:#181818;stroke-width:1;"/><path d="M31.48,29.1431 Q30.8989,29.4419 30.2598,29.5913 Q29.6206,29.7407 28.9151,29.7407 Q26.4082,29.7407 25.0884,28.0889 Q23.7686,26.437 23.7686,23.3159 Q23.7686,20.1865 25.0884,18.5347 Q26.4082,16.8828 28.9151,16.8828 Q29.6206,16.8828 30.2681,17.0322 Q30.9156,17.1816 31.48,17.4805 L31.48,20.2031 Q30.8491,19.6221 30.2556,19.3523 Q29.6621,19.0825 29.0313,19.0825 Q27.6865,19.0825 27.0017,20.1492 Q26.3169,21.2158 26.3169,23.3159 Q26.3169,25.4077 27.0017,26.4744 Q27.6865,27.541 29.0313,27.541 Q29.6621,27.541 30.2556,27.2712 Q30.8491,27.0015 31.48,26.4204 Z " fill="#000000"/><text fill="#000000" font-family="Arial" font-size="14" lengthAdjust="spacing" textLength="165.751" x="43.0069" y="28.0825">CheckerClnFreshHub2801</text><line style="stroke:#181818;stroke-width:0.5;" x1="15.0069" x2="210.7578" y1="39" y2="39"/><line style="stroke:#181818;stroke-width:0.5;" x1="15.0069" x2="210.7578" y1="47" y2="47"/></g><!--class CheckerClnFreshSpoke2811--><g class="entity" data-qualified-name="CheckerClnFreshSpoke2811" data-source-line="3" id="ent0003"><rect fill="#F1F1F1" height="48" rx="2.5" ry="2.5" style="stroke:#181818;stroke-width:0.5;" width="211.7646" x="7" y="139"/><ellipse cx="22" cy="155" fill="#ADD1B2" rx="11" ry="11" style="stroke:#181818;stroke-width:1;"/><path d="M24.4731,161.1431 Q23.8921,161.4419 23.2529,161.5913 Q22.6138,161.7407 21.9082,161.7407 Q19.4014,161.7407 18.0815,160.0889 Q16.7617,158.437 16.7617,155.3159 Q16.7617,152.1865 18.0815,150.5347 Q19.4014,148.8828 21.9082,148.8828 Q22.6138,148.8828 23.2612,149.0323 Q23.9087,149.1817 24.4731,149.4805 L24.4731,152.2031 Q23.8423,151.6221 23.2488,151.3523 Q22.6553,151.0825 22.0244,151.0825 Q20.6797,151.0825 19.9949,152.1492 Q19.3101,153.2158 19.3101,155.3159 Q19.3101,157.4077 19.9949,158.4744 Q20.6797,159.541 22.0244,159.541 Q22.6553,159.541 23.2488,159.2713 Q23.8423,159.0015 24.4731,158.4204 Z " fill="#000000"/><text fill="#000000" font-family="Arial" font-size="14" lengthAdjust="spacing" textLength="179.7646" x="36" y="160.0825">CheckerClnFreshSpoke2811</text><line style="stroke:#181818;stroke-width:0.5;" x1="8" x2="217.7646" y1="171" y2="171"/><line style="stroke:#181818;stroke-width:0.5;" x1="8" x2="217.7646" y1="179" y2="179"/></g><!--class CheckerClnFreshTail2821--><g class="entity" data-qualified-name="CheckerClnFreshTail2821" data-source-line="4" id="ent0004"><rect fill="#F1F1F1" height="48" rx="2.5" ry="2.5" style="stroke:#181818;stroke-width:0.5;" width="194.627" x="15.5689" y="316"/><ellipse cx="30.5689" cy="332" fill="#ADD1B2" rx="11" ry="11" style="stroke:#181818;stroke-width:1;"/><path d="M33.042,338.1431 Q32.461,338.4419 31.8218,338.5914 Q31.1826,338.7408 30.4771,338.7408 Q27.9702,338.7408 26.6504,337.0889 Q25.3306,335.4371 25.3306,332.316 Q25.3306,329.1866 26.6504,327.5347 Q27.9702,325.8829 30.4771,325.8829 Q31.1826,325.8829 31.8301,326.0323 Q32.4776,326.1817 33.042,326.4805 L33.042,329.2032 Q32.4111,328.6221 31.8176,328.3523 Q31.2241,328.0826 30.5933,328.0826 Q29.2486,328.0826 28.5637,329.1492 Q27.8789,330.2159 27.8789,332.316 Q27.8789,334.4078 28.5637,335.4744 Q29.2486,336.5411 30.5933,336.5411 Q31.2241,336.5411 31.8176,336.2713 Q32.4111,336.0015 33.042,335.4205 Z " fill="#000000"/><text fill="#000000" font-family="Arial" font-size="14" lengthAdjust="spacing" textLength="162.627" x="44.5689" y="337.0826">CheckerClnFreshTail2821</text><line style="stroke:#181818;stroke-width:0.5;" x1="16.5689" x2="209.1958" y1="348" y2="348"/><line style="stroke:#181818;stroke-width:0.5;" x1="16.5689" x2="209.1958" y1="356" y2="356"/></g><!--link CheckerClnFreshHub2801 to CheckerClnFreshSpoke2811--><g class="link" data-entity-1="ent0002" data-entity-2="ent0003" data-link-type="dependency" data-source-line="5" id="lnk5"><path codeLine="5" d="M112.88,55.24 C112.88,78.76 112.88,108.92 112.88,132.52" fill="none" id="CheckerClnFreshHub2801-to-CheckerClnFreshSpoke2811" style="stroke:#181818;stroke-width:1;"/><polygon fill="#181818" points="112.88,138.52,116.88,129.52,112.88,133.52,108.88,129.52,112.88,138.52" style="stroke:#181818;stroke-width:1;"/><text fill="#000000" font-family="Arial" font-size="17" lengthAdjust="spacing" textLength="34.9629" x="113.8823" y="101.9458">wide</text><text fill="#000000" font-family="Arial" font-size="13" lengthAdjust="spacing" textLength="9.3882" x="152.457" y="102.793">H</text><text fill="#000000" font-family="Arial" font-size="10" lengthAdjust="spacing" textLength="5.5615" x="161.8452" y="106.4258">2</text><text fill="#000000" font-family="Arial" font-size="13" lengthAdjust="spacing" textLength="73.7217" x="167.4068" y="102.793">O label 2817</text></g><!--link CheckerClnFreshSpoke2811 to CheckerClnFreshTail2821--><g class="link" data-entity-1="ent0003" data-entity-2="ent0004" data-link-type="dependency" data-source-line="6" id="lnk6"><path codeLine="6" d="M112.88,187.24 C112.88,220.71 112.88,276.14 112.88,309.67" fill="none" id="CheckerClnFreshSpoke2811-to-CheckerClnFreshTail2821" style="stroke:#181818;stroke-width:1;"/><polygon fill="#181818" points="112.88,315.67,116.88,306.67,112.88,310.67,108.88,306.67,112.88,315.67" style="stroke:#181818;stroke-width:1;"/><text fill="#000000" font-family="Arial" font-size="13" lengthAdjust="spacing" textLength="172.7134" x="120.781" y="230.1939">second owner label iiww 2823</text><path d="M117.8823,238.9488 L117.8823,280.9488 L295.8823,280.9488 L295.8823,248.9488 L285.8823,238.9488 L117.8823,238.9488" fill="#FEFFDD" style="stroke:#181818;stroke-width:0.5;"/><path d="M285.8823,238.9488 L285.8823,248.9488 L295.8823,248.9488 L285.8823,238.9488" fill="#FEFFDD" style="stroke:#181818;stroke-width:0.5;"/><text fill="#000000" font-family="Arial" font-size="13" lengthAdjust="spacing" textLength="157.5107" x="123.8823" y="256.1426">component row Wwm 2827</text><text fill="#000000" font-family="Arial" font-size="13" lengthAdjust="spacing" textLength="30.3354" x="123.8823" y="273.6416">small</text><text fill="#000000" font-family="Arial" font-size="10" lengthAdjust="spacing" textLength="13.9014" x="157.8296" y="274.2764">ten</text><text fill="#000000" font-family="Arial" font-size="13" lengthAdjust="spacing" textLength="70.1035" x="175.3428" y="273.6416">and super X</text><text fill="#000000" font-family="Arial" font-size="10" lengthAdjust="spacing" textLength="5.5615" x="245.4463" y="268.2734">2</text></g></g></svg>