<svg xmlns="http://www.w3.org/2000/svg" xmlns:xlink="http://www.w3.org/1999/xlink" contentStyleType="text/css" data-diagram-type="MINDMAP" height="246px" preserveAspectRatio="none" style="width:355px;height:246px;background:#FFFFFF;" version="1.1" viewBox="0 0 355 246" width="355px" zoomAndPan="magnify"><?plantuml 1.2026.3beta6?><defs/><g><rect fill="#F1F1F1" height="36.4883" rx="12.5" ry="12.5" style="stroke:#181818;stroke-width:1.5;" width="64.9395" x="10" y="104.7324"/><text fill="#000000" font-family="sans-serif" font-size="14" lengthAdjust="spacing" textLength="44.9395" x="20" y="128.2676">Center</text><rect fill="#F1F1F1" height="36.4883" rx="12.5" ry="12.5" style="stroke:#181818;stroke-width:1.5;" width="29.6592" x="124.9395" y="48.2441"/><text fill="#000000" font-family="sans-serif" font-size="14" lengthAdjust="spacing" textLength="9.6592" x="134.9395" y="71.7793">A</text><rect fill="#F1F1F1" height="36.4883" rx="12.5" ry="12.5" style="stroke:#181818;stroke-width:1.5;" width="38.5117" x="204.5986" y="20"/><text fill="#000000" font-family="sans-serif" font-size="14" lengthAdjust="spacing" textLength="18.5117" x="214.5986" y="43.5352">A1</text><path d="M154.5986,66.4883 L164.5986,66.4883 C179.5986,66.4883 179.5986,38.2441 194.5986,38.2441 L204.5986,38.2441" fill="none" style="stroke:#181818;stroke-width:1;"/><rect fill="#F1F1F1" height="36.4883" rx="12.5" ry="12.5" style="stroke:#181818;stroke-width:1.5;" width="38.5117" x="204.5986" y="76.4883"/><text fill="#000000" font-family="sans-serif" font-size="14" lengthAdjust="spacing" textLength="18.5117" x="214.5986" y="100.0234">A2</text><path d="M154.5986,66.4883 L164.5986,66.4883 C179.5986,66.4883 179.5986,94.7324 194.5986,94.7324 L204.5986,94.7324" fill="none" style="stroke:#181818;stroke-width:1;"/><path d="M74.9395,122.9766 L84.9395,122.9766 C99.9395,122.9766 99.9395,66.4883 114.9395,66.4883 L124.9395,66.4883" fill="none" style="stroke:#181818;stroke-width:1;"/><rect fill="#F1F1F1" height="36.4883" rx="12.5" ry="12.5" style="stroke:#181818;stroke-width:1.5;" width="28.0527" x="124.9395" y="132.9766"/><text fill="#000000" font-family="sans-serif" font-size="14" lengthAdjust="spacing" textLength="8.0527" x="134.9395" y="156.5117">B</text><rect fill="#F1F1F1" height="36.4883" rx="12.5" ry="12.5" style="stroke:#181818;stroke-width:1.5;" width="36.9053" x="202.9922" y="132.9766"/><text fill="#000000" font-family="sans-serif" font-size="14" lengthAdjust="spacing" textLength="16.9053" x="212.9922" y="156.5117">B1</text><rect fill="#F1F1F1" height="36.4883" rx="12.5" ry="12.5" style="stroke:#181818;stroke-width:1.5;" width="44.6367" x="289.8975" y="132.9766"/><text fill="#000000" font-family="sans-serif" font-size="14" lengthAdjust="spacing" textLength="24.6367" x="299.8975" y="156.5117">B1a</text><path d="M239.8975,151.2207 L249.8975,151.2207 C264.8975,151.2207 264.8975,151.2207 279.8975,151.2207 L289.8975,151.2207" fill="none" style="stroke:#181818;stroke-width:1;"/><path d="M152.9922,151.2207 L162.9922,151.2207 C177.9922,151.2207 177.9922,151.2207 192.9922,151.2207 L202.9922,151.2207" fill="none" style="stroke:#181818;stroke-width:1;"/><path d="M74.9395,122.9766 L84.9395,122.9766 C99.9395,122.9766 99.9395,151.2207 114.9395,151.2207 L124.9395,151.2207" fill="none" style="stroke:#181818;stroke-width:1;"/><rect fill="#F1F1F1" height="36.4883" rx="12.5" ry="12.5" style="stroke:#181818;stroke-width:1.5;" width="29.6865" x="124.9395" y="189.4648"/><text fill="#000000" font-family="sans-serif" font-size="14" lengthAdjust="spacing" textLength="9.6865" x="134.9395" y="213">C</text><path d="M74.9395,122.9766 L84.9395,122.9766 C99.9395,122.9766 99.9395,207.709 114.9395,207.709 L124.9395,207.709" fill="none" style="stroke:#181818;stroke-width:1;"/><?plantuml-src SoWkIImgoStCIybDBE3IKd1EpIj9BUBIqb9m1190qX126O64dC1i9x0GY4u42JfpEQG2TKDDu3BKCp8mCjCpJaejIJG30000?></g></svg>