<svg xmlns="http://www.w3.org/2000/svg" xmlns:xlink="http://www.w3.org/1999/xlink" contentStyleType="text/css" data-diagram-type="DESCRIPTION" height="349px" preserveAspectRatio="none" style="width:371px;height:349px;background:#FFFFFF;" version="1.1" viewBox="0 0 371 349" width="371px" zoomAndPan="magnify"><?plantuml 1.2026.3beta6?><defs/><g><!--cluster Web Tier--><g class="cluster" data-qualified-name="Web Tier" data-source-line="1" id="ent0002"><polygon fill="none" points="70,16,80,6,292,6,292,98.48,282,108.48,70,108.48,70,16" style="stroke:#181818;stroke-width:1;"/><line style="stroke:#181818;stroke-width:1;" x1="282" x2="292" y1="16" y2="6"/><line style="stroke:#181818;stroke-width:1;" x1="70" x2="282" y1="16" y2="16"/><line style="stroke:#181818;stroke-width:1;" x1="282" x2="282" y1="16" y2="108.48"/><text fill="#000000" font-family="sans-serif" font-size="14" font-weight="700" lengthAdjust="spacing" textLength="63.5264" x="145.2368" y="32.5352">Web Tier</text></g><!--cluster App Tier--><g class="cluster" data-qualified-name="App Tier" data-source-line="5" id="ent0005"><polygon fill="none" points="16,142.48,26,132.48,346,132.48,346,224.97,336,234.97,16,234.97,16,142.48" style="stroke:#181818;stroke-width:1;"/><line style="stroke:#181818;stroke-width:1;" x1="336" x2="346" y1="142.48" y2="132.48"/><line style="stroke:#181818;stroke-width:1;" x1="16" x2="336" y1="142.48" y2="142.48"/><line style="stroke:#181818;stroke-width:1;" x1="336" x2="336" y1="142.48" y2="234.97"/><text fill="#000000" font-family="sans-serif" font-size="14" font-weight="700" lengthAdjust="spacing" textLength="62.2549" x="145.8726" y="159.0152">App Tier</text></g><!--entity Web1--><g class="entity" data-qualified-name="Web Tier.Web1" data-source-line="2" id="ent0003"><polygon fill="#F1F1F1" points="86.28,56,96.28,46,163.7204,46,163.7204,82.4883,153.7204,92.4883,86.28,92.4883,86.28,56" style="stroke:#181818;stroke-width:0.5;"/><line style="stroke:#181818;stroke-width:0.5;" x1="153.7204" x2="163.7204" y1="56" y2="46"/><line style="stroke:#181818;stroke-width:0.5;" x1="86.28" x2="153.7204" y1="56" y2="56"/><line style="stroke:#181818;stroke-width:0.5;" x1="153.7204" x2="153.7204" y1="56" y2="92.4883"/><text fill="#000000" font-family="sans-serif" font-size="14" lengthAdjust="spacing" textLength="37.4404" x="101.28" y="79.5352">Web1</text></g><!--entity Web2--><g class="entity" data-qualified-name="Web Tier.Web2" data-source-line="3" id="ent0004"><polygon fill="#F1F1F1" points="198.28,56,208.28,46,275.7204,46,275.7204,82.4883,265.7204,92.4883,198.28,92.4883,198.28,56" style="stroke:#181818;stroke-width:0.5;"/><line style="stroke:#181818;stroke-width:0.5;" x1="265.7204" x2="275.7204" y1="56" y2="46"/><line style="stroke:#181818;stroke-width:0.5;" x1="198.28" x2="265.7204" y1="56" y2="56"/><line style="stroke:#181818;stroke-width:0.5;" x1="265.7204" x2="265.7204" y1="56" y2="92.4883"/><text fill="#000000" font-family="sans-serif" font-size="14" lengthAdjust="spacing" textLength="37.4404" x="213.28" y="79.5352">Web2</text></g><!--entity App1--><g class="entity" data-qualified-name="App Tier.App1" data-source-line="6" id="ent0006"><polygon fill="#F1F1F1" points="142.93,182.48,152.93,172.48,219.0648,172.48,219.0648,208.9683,209.0648,218.9683,142.93,218.9683,142.93,182.48" style="stroke:#181818;stroke-width:0.5;"/><line style="stroke:#181818;stroke-width:0.5;" x1="209.0648" x2="219.0648" y1="182.48" y2="172.48"/><line style="stroke:#181818;stroke-width:0.5;" x1="142.93" x2="209.0648" y1="182.48" y2="182.48"/><line style="stroke:#181818;stroke-width:0.5;" x1="209.0648" x2="209.0648" y1="182.48" y2="218.9683"/><text fill="#000000" font-family="sans-serif" font-size="14" lengthAdjust="spacing" textLength="36.1348" x="157.93" y="206.0152">App1</text></g><!--entity App2--><g class="entity" data-qualified-name="App Tier.App2" data-source-line="7" id="ent0007"><polygon fill="#F1F1F1" points="253.93,182.48,263.93,172.48,330.0648,172.48,330.0648,208.9683,320.0648,218.9683,253.93,218.9683,253.93,182.48" style="stroke:#181818;stroke-width:0.5;"/><line style="stroke:#181818;stroke-width:0.5;" x1="320.0648" x2="330.0648" y1="182.48" y2="172.48"/><line style="stroke:#181818;stroke-width:0.5;" x1="253.93" x2="320.0648" y1="182.48" y2="182.48"/><line style="stroke:#181818;stroke-width:0.5;" x1="320.0648" x2="320.0648" y1="182.48" y2="218.9683"/><text fill="#000000" font-family="sans-serif" font-size="14" lengthAdjust="spacing" textLength="36.1348" x="268.93" y="206.0152">App2</text></g><!--entity App3--><g class="entity" data-qualified-name="App Tier.App3" data-source-line="8" id="ent0008"><polygon fill="#F1F1F1" points="31.93,182.48,41.93,172.48,108.0648,172.48,108.0648,208.9683,98.0648,218.9683,31.93,218.9683,31.93,182.48" style="stroke:#181818;stroke-width:0.5;"/><line style="stroke:#181818;stroke-width:0.5;" x1="98.0648" x2="108.0648" y1="182.48" y2="172.48"/><line style="stroke:#181818;stroke-width:0.5;" x1="31.93" x2="98.0648" y1="182.48" y2="182.48"/><line style="stroke:#181818;stroke-width:0.5;" x1="98.0648" x2="98.0648" y1="182.48" y2="218.9683"/><text fill="#000000" font-family="sans-serif" font-size="14" lengthAdjust="spacing" textLength="36.1348" x="46.93" y="206.0152">App3</text></g><!--entity DB--><g class="entity" data-qualified-name="DB" data-source-line="10" id="ent0009"><path d="M161.73,288.97 C161.73,278.97 180.9995,278.97 180.9995,278.97 C180.9995,278.97 200.2691,278.97 200.2691,288.97 L200.2691,314.4583 C200.2691,324.4583 180.9995,324.4583 180.9995,324.4583 C180.9995,324.4583 161.73,324.4583 161.73,314.4583 L161.73,288.97" fill="#F1F1F1" style="stroke:#181818;stroke-width:0.5;"/><path d="M161.73,288.97 C161.73,298.97 180.9995,298.97 180.9995,298.97 C180.9995,298.97 200.2691,298.97 200.2691,288.97" fill="none" style="stroke:#181818;stroke-width:0.5;"/><text fill="#000000" font-family="sans-serif" font-size="14" lengthAdjust="spacing" textLength="18.5391" x="171.73" y="316.5052">DB</text></g><!--link Web1 to App1--><g class="link" data-entity-1="ent0003" data-entity-2="ent0006" data-link-type="dependency" data-source-line="11" id="lnk10"><path d="M135.14,92.78 C145.29,115.34 158.3488,144.378 168.4688,166.878" fill="none" id="Web1-to-App1" style="stroke:#181818;stroke-width:1;"/><polygon fill="#181818" points="170.93,172.35,170.8862,162.5012,168.879,167.79,163.5902,165.7828,170.93,172.35" style="stroke:#181818;stroke-width:1;"/></g><!--link Web1 to App2--><g class="link" data-entity-1="ent0003" data-entity-2="ent0007" data-link-type="dependency" data-source-line="12" id="lnk11"><path d="M146.75,92.98 C156.41,101.72 168.43,110.93 181,116.48 C204,126.65 215.23,111.9 237,124.48 C256.17,135.57 268.0491,151.0176 277.4791,167.0576" fill="none" id="Web1-to-App2" style="stroke:#181818;stroke-width:1;"/><polygon fill="#181818" points="280.52,172.23,279.407,162.4442,277.986,167.9197,272.5105,166.4987,280.52,172.23" style="stroke:#181818;stroke-width:1;"/></g><!--link Web1 to App3--><g class="link" data-entity-1="ent0003" data-entity-2="ent0008" data-link-type="dependency" data-source-line="13" id="lnk12"><path d="M115.04,92.78 C105.07,115.34 92.2546,144.3617 82.3146,166.8617" fill="none" id="Web1-to-App3" style="stroke:#181818;stroke-width:1;"/><polygon fill="#181818" points="79.89,172.35,87.1858,165.734,81.9105,167.7764,79.868,162.5012,79.89,172.35" style="stroke:#181818;stroke-width:1;"/></g><!--link Web2 to App1--><g class="link" data-entity-1="ent0004" data-entity-2="ent0006" data-link-type="dependency" data-source-line="14" id="lnk13"><path d="M226.86,92.78 C216.71,115.34 203.6512,144.378 193.5312,166.878" fill="none" id="Web2-to-App1" style="stroke:#181818;stroke-width:1;"/><polygon fill="#181818" points="191.07,172.35,198.4098,165.7828,193.121,167.79,191.1138,162.5012,191.07,172.35" style="stroke:#181818;stroke-width:1;"/></g><!--link Web2 to App2--><g class="link" data-entity-1="ent0004" data-entity-2="ent0007" data-link-type="dependency" data-source-line="15" id="lnk14"><path d="M246.96,92.78 C256.93,115.34 269.7454,144.3617 279.6854,166.8617" fill="none" id="Web2-to-App2" style="stroke:#181818;stroke-width:1;"/><polygon fill="#181818" points="282.11,172.35,282.132,162.5012,280.0895,167.7764,274.8142,165.734,282.11,172.35" style="stroke:#181818;stroke-width:1;"/></g><!--link Web2 to App3--><g class="link" data-entity-1="ent0004" data-entity-2="ent0008" data-link-type="dependency" data-source-line="16" id="lnk15"><path d="M215.25,92.98 C205.59,101.72 193.57,110.93 181,116.48 C158,126.65 146.77,111.9 125,124.48 C105.83,135.57 93.9509,151.0176 84.5209,167.0576" fill="none" id="Web2-to-App3" style="stroke:#181818;stroke-width:1;"/><polygon fill="#181818" points="81.48,172.23,89.4895,166.4987,84.014,167.9197,82.593,162.4442,81.48,172.23" style="stroke:#181818;stroke-width:1;"/></g><!--link App1 to DB--><g class="link" data-entity-1="ent0006" data-entity-2="ent0009" data-link-type="dependency" data-source-line="17" id="lnk16"><path d="M181,219.29 C181,236.85 181,255.09 181,272.55" fill="none" id="App1-to-DB" style="stroke:#181818;stroke-width:1;"/><polygon fill="#181818" points="181,278.55,185,269.55,181,273.55,177,269.55,181,278.55" style="stroke:#181818;stroke-width:1;"/></g><?plantuml-src oyjFILLG2azDKWZ9J2rIKgZcKb380ua1XGoHs4PSjLnWjf9ZGG6wMg2G8HBR28bj3DINabYIc9HOdAhWuiG5CbP1LzSEeWUPPuJ2CmRnZ51K6g6eD4Ae12a0yroS0000?></g></svg>