<svg xmlns="http://www.w3.org/2000/svg" xmlns:xlink="http://www.w3.org/1999/xlink" contentStyleType="text/css" data-diagram-type="DESCRIPTION" height="211px" preserveAspectRatio="none" style="width:160px;height:211px;background:#FFFFFF;" version="1.1" viewBox="0 0 160 211" width="160px" zoomAndPan="magnify"><?plantuml 1.2026.3beta6?><defs/><g><!--entity MyNode--><g class="entity" data-qualified-name="MyNode" data-source-line="1" id="ent0002"><polygon fill="#F1F1F1" points="16,133.48,26,123.48,115.3945,123.48,115.3945,176.4566,105.3945,186.4566,16,186.4566,16,133.48" style="stroke:#181818;stroke-width:0.5;"/><line style="stroke:#181818;stroke-width:0.5;" x1="105.3945" x2="115.3945" y1="133.48" y2="123.48"/><line style="stroke:#181818;stroke-width:0.5;" x1="16" x2="105.3945" y1="133.48" y2="133.48"/><line style="stroke:#181818;stroke-width:0.5;" x1="105.3945" x2="105.3945" y1="133.48" y2="186.4566"/><text fill="#000000" font-family="sans-serif" font-size="14" font-style="italic" lengthAdjust="spacing" textLength="57.3945" x="32" y="157.0152">&#171;virtual&#187;</text><text fill="#000000" font-family="sans-serif" font-size="14" lengthAdjust="spacing" textLength="54.9268" x="33.2339" y="173.5034">MyNode</text></g><!--entity app.jar--><g class="entity" data-qualified-name="app.jar" data-source-line="2" id="ent0003"><rect fill="#F1F1F1" height="39.4883" rx="2.5" ry="2.5" style="stroke:#181818;stroke-width:0.5;" width="77.5029" x="26.95" y="7"/><polygon fill="#F1F1F1" points="87.4529,12,87.4529,26,99.4529,26,99.4529,18,93.4529,12,87.4529,12" style="stroke:#181818;stroke-width:0.5;"/><line style="stroke:#181818;stroke-width:0.5;" x1="93.4529" x2="93.4529" y1="12" y2="18"/><line style="stroke:#181818;stroke-width:0.5;" x1="99.4529" x2="93.4529" y1="18" y2="18"/><text fill="#000000" font-family="sans-serif" font-size="14" lengthAdjust="spacing" textLength="47.5029" x="36.95" y="33.5352">app.jar</text></g><!--link app.jar to MyNode--><g class="link" data-entity-1="ent0003" data-entity-2="ent0002" data-link-type="dependency" data-source-line="3" id="lnk4"><path d="M65.7,46.91 C65.7,67.19 65.7,93.48 65.7,117.3" fill="none" id="app.jar-to-MyNode" style="stroke:#181818;stroke-width:1;"/><polygon fill="#181818" points="65.7,123.3,69.7,114.3,65.7,118.3,61.7,114.3,65.7,123.3" style="stroke:#181818;stroke-width:1;"/><text fill="#000000" font-family="sans-serif" font-size="13" lengthAdjust="spacing" textLength="77.7334" x="66.7" y="90.0484">deployed on</text></g><?plantuml-src oyjFILNmhVG3KJOsPPb59QM9ENPsN8b59PbfYSab2ea51NfPYKLSK5f1LzSEfjvA8IMr82U_CZL58JyF0000?></g></svg>