<svg xmlns="http://www.w3.org/2000/svg" xmlns:xlink="http://www.w3.org/1999/xlink" contentStyleType="text/css" data-diagram-type="DESCRIPTION" height="310px" preserveAspectRatio="none" style="width:189px;height:310px;background:#FFFFFF;" version="1.1" viewBox="0 0 189 310" width="189px" zoomAndPan="magnify"><?plantuml 1.2026.3beta6?><defs/><g><!--cluster L1--><g class="cluster" data-qualified-name="L1" data-source-line="1" id="ent0002"><polygon fill="#FFFF00" points="16,16,26,6,164,6,164,275.98,154,285.98,16,285.98,16,16" style="stroke:#181818;stroke-width:1;"/><line style="stroke:#181818;stroke-width:1;" x1="154" x2="164" y1="16" y2="6"/><line style="stroke:#181818;stroke-width:1;" x1="16" x2="154" y1="16" y2="16"/><line style="stroke:#181818;stroke-width:1;" x1="154" x2="154" y1="16" y2="285.98"/><text fill="#000000" font-family="sans-serif" font-size="14" font-weight="700" lengthAdjust="spacing" textLength="17.377" x="77.3115" y="32.5352">L1</text></g><!--cluster L2--><g class="cluster" data-qualified-name="L1.L2" data-source-line="2" id="ent0003"><polygon fill="none" points="40,64,50,54,140,54,140,251.98,130,261.98,40,261.98,40,64" style="stroke:#181818;stroke-width:1;"/><line style="stroke:#181818;stroke-width:1;" x1="130" x2="140" y1="64" y2="54"/><line style="stroke:#181818;stroke-width:1;" x1="40" x2="130" y1="64" y2="64"/><line style="stroke:#181818;stroke-width:1;" x1="130" x2="130" y1="64" y2="261.98"/><text fill="#000000" font-family="sans-serif" font-size="14" font-weight="700" lengthAdjust="spacing" textLength="17.377" x="77.3115" y="80.5352">L2</text></g><!--entity App--><g class="entity" data-qualified-name="L1.L2.App" data-source-line="3" id="ent0004"><rect fill="#F1F1F1" height="46.4883" rx="2.5" ry="2.5" style="stroke:#181818;stroke-width:0.5;" width="67.2822" x="56.36" y="94"/><rect fill="#F1F1F1" height="10" style="stroke:#181818;stroke-width:0.5;" width="15" x="103.6422" y="99"/><rect fill="#F1F1F1" height="2" style="stroke:#181818;stroke-width:0.5;" width="4" x="101.6422" y="101"/><rect fill="#F1F1F1" height="2" style="stroke:#181818;stroke-width:0.5;" width="4" x="101.6422" y="105"/><text fill="#000000" font-family="sans-serif" font-size="14" lengthAdjust="spacing" textLength="27.2822" x="71.36" y="127.5352">App</text></g><!--entity DB--><g class="entity" data-qualified-name="L1.L2.DB" data-source-line="4" id="ent0005"><path d="M70.73,210.49 C70.73,200.49 89.9995,200.49 89.9995,200.49 C89.9995,200.49 109.2691,200.49 109.2691,210.49 L109.2691,235.9783 C109.2691,245.9783 89.9995,245.9783 89.9995,245.9783 C89.9995,245.9783 70.73,245.9783 70.73,235.9783 L70.73,210.49" fill="#F1F1F1" style="stroke:#181818;stroke-width:0.5;"/><path d="M70.73,210.49 C70.73,220.49 89.9995,220.49 89.9995,220.49 C89.9995,220.49 109.2691,220.49 109.2691,210.49" fill="none" style="stroke:#181818;stroke-width:0.5;"/><text fill="#000000" font-family="sans-serif" font-size="14" lengthAdjust="spacing" textLength="18.5391" x="80.73" y="238.0252">DB</text></g><!--link App to DB--><g class="link" data-entity-1="ent0004" data-entity-2="ent0005" data-link-type="dependency" data-source-line="5" id="lnk6"><path d="M90,140.81 C90,158.37 90,176.61 90,194.07" fill="none" id="App-to-DB" style="stroke:#181818;stroke-width:1;"/><polygon fill="#181818" points="90,200.07,94,191.07,90,195.07,86,191.07,90,200.07" style="stroke:#181818;stroke-width:1;"/></g><?plantuml-src oyjFILNmCLHGZapDoSalLwZcKb380uiPWTaA2idvkGNvUQbv9GgE1GLWaPJ4aiIanE9K1HSdC1yehg2hQmVXrdBL0W00?></g></svg>