<svg xmlns="http://www.w3.org/2000/svg" xmlns:xlink="http://www.w3.org/1999/xlink" contentStyleType="text/css" data-diagram-type="DESCRIPTION" height="437px" preserveAspectRatio="none" style="width:137px;height:437px;background:#FFFFFF;" version="1.1" viewBox="0 0 137 437" width="137px" zoomAndPan="magnify"><?plantuml 1.2026.3beta6?><defs/><g><!--cluster Outer--><g class="cluster" data-qualified-name="Outer" data-source-line="1" id="ent0002"><rect fill="none" height="416.95" rx="2.5" ry="2.5" style="stroke:#181818;stroke-width:1;" width="116" x="7" y="7"/><text fill="#000000" font-family="sans-serif" font-size="14" font-weight="700" lengthAdjust="spacing" textLength="40.9609" x="44.5195" y="22.5352">Outer</text></g><!--entity Inner1--><g class="entity" data-qualified-name="Outer.Inner1" data-source-line="2" id="ent0003"><polygon fill="#F1F1F1" points="23.1,52,33.1,42,106.891,42,106.891,78.4883,96.891,88.4883,23.1,88.4883,23.1,52" style="stroke:#181818;stroke-width:0.5;"/><line style="stroke:#181818;stroke-width:0.5;" x1="96.891" x2="106.891" y1="52" y2="42"/><line style="stroke:#181818;stroke-width:0.5;" x1="23.1" x2="96.891" y1="52" y2="52"/><line style="stroke:#181818;stroke-width:0.5;" x1="96.891" x2="96.891" y1="52" y2="88.4883"/><text fill="#000000" font-family="sans-serif" font-size="14" lengthAdjust="spacing" textLength="43.791" x="38.1" y="75.5352">Inner1</text></g><!--entity Inner2--><g class="entity" data-qualified-name="Outer.Inner2" data-source-line="3" id="ent0004"><polygon fill="#F1F1F1" points="23.1,158.49,33.1,148.49,106.891,148.49,106.891,184.9783,96.891,194.9783,23.1,194.9783,23.1,158.49" style="stroke:#181818;stroke-width:0.5;"/><line style="stroke:#181818;stroke-width:0.5;" x1="96.891" x2="106.891" y1="158.49" y2="148.49"/><line style="stroke:#181818;stroke-width:0.5;" x1="23.1" x2="96.891" y1="158.49" y2="158.49"/><line style="stroke:#181818;stroke-width:0.5;" x1="96.891" x2="96.891" y1="158.49" y2="194.9783"/><text fill="#000000" font-family="sans-serif" font-size="14" lengthAdjust="spacing" textLength="43.791" x="38.1" y="182.0252">Inner2</text></g><!--entity Inner3--><g class="entity" data-qualified-name="Outer.Inner3" data-source-line="4" id="ent0005"><polygon fill="#F1F1F1" points="23.1,264.97,33.1,254.97,106.891,254.97,106.891,291.4583,96.891,301.4583,23.1,301.4583,23.1,264.97" style="stroke:#181818;stroke-width:0.5;"/><line style="stroke:#181818;stroke-width:0.5;" x1="96.891" x2="106.891" y1="264.97" y2="254.97"/><line style="stroke:#181818;stroke-width:0.5;" x1="23.1" x2="96.891" y1="264.97" y2="264.97"/><line style="stroke:#181818;stroke-width:0.5;" x1="96.891" x2="96.891" y1="264.97" y2="301.4583"/><text fill="#000000" font-family="sans-serif" font-size="14" lengthAdjust="spacing" textLength="43.791" x="38.1" y="288.5052">Inner3</text></g><!--entity Inner4--><g class="entity" data-qualified-name="Outer.Inner4" data-source-line="5" id="ent0006"><polygon fill="#F1F1F1" points="23.1,371.46,33.1,361.46,106.891,361.46,106.891,397.9483,96.891,407.9483,23.1,407.9483,23.1,371.46" style="stroke:#181818;stroke-width:0.5;"/><line style="stroke:#181818;stroke-width:0.5;" x1="96.891" x2="106.891" y1="371.46" y2="361.46"/><line style="stroke:#181818;stroke-width:0.5;" x1="23.1" x2="96.891" y1="371.46" y2="371.46"/><line style="stroke:#181818;stroke-width:0.5;" x1="96.891" x2="96.891" y1="371.46" y2="407.9483"/><text fill="#000000" font-family="sans-serif" font-size="14" lengthAdjust="spacing" textLength="43.791" x="38.1" y="394.9952">Inner4</text></g><!--link Inner1 to Inner2--><g class="link" data-entity-1="ent0003" data-entity-2="ent0004" data-link-type="dependency" data-source-line="7" id="lnk7"><path d="M65,88.91 C65,106.44 65,124.59 65,142.1" fill="none" id="Inner1-to-Inner2" style="stroke:#181818;stroke-width:1;"/><polygon fill="#181818" points="65,148.1,69,139.1,65,143.1,61,139.1,65,148.1" style="stroke:#181818;stroke-width:1;"/></g><!--link Inner2 to Inner3--><g class="link" data-entity-1="ent0004" data-entity-2="ent0005" data-link-type="dependency" data-source-line="8" id="lnk8"><path d="M65,195.4 C65,212.93 65,231.07 65,248.59" fill="none" id="Inner2-to-Inner3" style="stroke:#181818;stroke-width:1;"/><polygon fill="#181818" points="65,254.59,69,245.59,65,249.59,61,245.59,65,254.59" style="stroke:#181818;stroke-width:1;"/></g><!--link Inner3 to Inner4--><g class="link" data-entity-1="ent0005" data-entity-2="ent0006" data-link-type="dependency" data-source-line="9" id="lnk9"><path d="M65,301.89 C65,319.42 65,337.56 65,355.08" fill="none" id="Inner3-to-Inner4" style="stroke:#181818;stroke-width:1;"/><polygon fill="#181818" points="65,361.08,69,352.08,65,356.08,61,352.08,65,361.08" style="stroke:#181818;stroke-width:1;"/></g><?plantuml-src AqfDBadCIyz9LV0lBKajKgZcKb38oqz9LV3CoqijCaJX6Q7mZ55u9borN10j2hgwTZ3r40eXOWmHCKQ8c000?></g></svg>