<svg xmlns="http://www.w3.org/2000/svg" xmlns:xlink="http://www.w3.org/1999/xlink" contentStyleType="text/css" data-diagram-type="DESCRIPTION" height="280px" preserveAspectRatio="none" style="width:107px;height:280px;background:#FFFFFF;" version="1.1" viewBox="0 0 107 280" width="107px" zoomAndPan="magnify"><?plantuml 1.2026.3beta6?><defs/><g><!--entity A--><g class="entity" data-qualified-name="A" data-source-line="2" id="ent0002"><rect fill="#F1F1F1" height="46.4883" rx="2.5" ry="2.5" style="stroke:#181818;stroke-width:0.5;" width="49.6592" x="44.2" y="7"/><rect fill="#F1F1F1" height="10" style="stroke:#181818;stroke-width:0.5;" width="15" x="73.8592" y="12"/><rect fill="#F1F1F1" height="2" style="stroke:#181818;stroke-width:0.5;" width="4" x="71.8592" y="14"/><rect fill="#F1F1F1" height="2" style="stroke:#181818;stroke-width:0.5;" width="4" x="71.8592" y="18"/><text fill="#000000" font-family="sans-serif" font-size="14" lengthAdjust="spacing" textLength="9.6592" x="59.2" y="40.5352">A</text></g><!--entity B--><g class="entity" data-qualified-name="B" data-source-line="3" id="ent0003"><rect fill="#F1F1F1" height="46.4883" rx="2.5" ry="2.5" style="stroke:#181818;stroke-width:0.5;" width="48.0527" x="7" y="113.48"/><rect fill="#F1F1F1" height="10" style="stroke:#181818;stroke-width:0.5;" width="15" x="35.0527" y="118.48"/><rect fill="#F1F1F1" height="2" style="stroke:#181818;stroke-width:0.5;" width="4" x="33.0527" y="120.48"/><rect fill="#F1F1F1" height="2" style="stroke:#181818;stroke-width:0.5;" width="4" x="33.0527" y="124.48"/><text fill="#000000" font-family="sans-serif" font-size="14" lengthAdjust="spacing" textLength="8.0527" x="22" y="147.0152">B</text></g><!--entity C--><g class="entity" data-qualified-name="C" data-source-line="4" id="ent0004"><rect fill="#F1F1F1" height="46.4883" rx="2.5" ry="2.5" style="stroke:#181818;stroke-width:0.5;" width="49.6865" x="44.18" y="219.97"/><rect fill="#F1F1F1" height="10" style="stroke:#181818;stroke-width:0.5;" width="15" x="73.8665" y="224.97"/><rect fill="#F1F1F1" height="2" style="stroke:#181818;stroke-width:0.5;" width="4" x="71.8665" y="226.97"/><rect fill="#F1F1F1" height="2" style="stroke:#181818;stroke-width:0.5;" width="4" x="71.8665" y="230.97"/><text fill="#000000" font-family="sans-serif" font-size="14" lengthAdjust="spacing" textLength="9.6865" x="59.18" y="253.5052">C</text></g><!--link A to B--><g class="link" data-entity-1="ent0002" data-entity-2="ent0003" data-link-type="dependency" data-source-line="5" id="lnk5"><path d="M49.62,53.87 C49.62,71.52 49.62,89.53 49.62,107.16" fill="none" id="A-to-B" style="stroke:#181818;stroke-width:1;"/><polygon fill="#181818" points="49.62,113.16,53.62,104.16,49.62,108.16,45.62,104.16,49.62,113.16" style="stroke:#181818;stroke-width:1;"/></g><!--link B to C--><g class="link" data-entity-1="ent0003" data-entity-2="ent0004" data-link-type="dependency" data-source-line="6" id="lnk6"><path d="M49.62,160.36 C49.62,178.01 49.62,196.02 49.62,213.65" fill="none" id="B-to-C" style="stroke:#181818;stroke-width:1;"/><polygon fill="#181818" points="49.62,219.65,53.62,210.65,49.62,214.65,45.62,210.65,49.62,219.65" style="stroke:#181818;stroke-width:1;"/></g><!--link A to C--><g class="link" data-entity-1="ent0002" data-entity-2="ent0004" data-link-type="dependency" data-source-line="7" id="lnk7"><path d="M74.45,53.85 C74.45,94.78 74.45,172.49 74.45,213.5" fill="none" id="A-to-C" style="stroke:#181818;stroke-width:1;"/><polygon fill="#181818" points="74.45,219.5,78.45,210.5,74.45,214.5,70.45,210.5,74.45,219.5" style="stroke:#181818;stroke-width:1;"/></g><?plantuml-src AyxEp2j8B4hCLSZ9p4ijgIn8LSWlAid8vqhEpot8pqlDAr5mH68x8R6TkHmLT7NjW69EO1h6TmO0?></g></svg>