<svg xmlns="http://www.w3.org/2000/svg" xmlns:xlink="http://www.w3.org/1999/xlink" contentStyleType="text/css" data-diagram-type="JSON" height="83px" preserveAspectRatio="none" style="width:197px;height:83px;background:#FFFFFF;" version="1.1" viewBox="0 0 197 83" width="197px" zoomAndPan="magnify"><?plantuml 1.2026.3beta6?><defs/><g><rect fill="#F1F1F1" height="40.9766" rx="5" ry="5" style="stroke:#F1F1F1;stroke-width:1.5;" width="73.7441" x="10" y="30.2324"/><text fill="#000000" font-family="sans-serif" font-size="14" font-weight="700" lengthAdjust="spacing" textLength="39.9219" x="15" y="45.7676">items</text><text fill="#000000" font-family="sans-serif" font-size="14" lengthAdjust="spacing" textLength="13.2891" x="65.4551" y="45.7676">&#160;&#160;&#160;</text><line style="stroke:#000000;stroke-width:1;" x1="60.4551" x2="60.4551" y1="30.2324" y2="50.7207"/><line style="stroke:#000000;stroke-width:1;" x1="10" x2="83.7441" y1="50.7207" y2="50.7207"/><text fill="#000000" font-family="sans-serif" font-size="14" font-weight="700" lengthAdjust="spacing" textLength="40.4551" x="15" y="66.2559">count</text><text fill="#000000" font-family="sans-serif" font-size="14" lengthAdjust="spacing" textLength="8.8525" x="65.4551" y="66.2559">3</text><line style="stroke:#000000;stroke-width:1;" x1="60.4551" x2="60.4551" y1="50.7207" y2="71.209"/><rect fill="none" height="40.9766" rx="5" ry="5" style="stroke:#000000;stroke-width:1.5;" width="73.7441" x="10" y="30.2324"/><rect fill="#F1F1F1" height="61.4648" rx="5" ry="5" style="stroke:#F1F1F1;stroke-width:1.5;" width="64.8584" x="121" y="10"/><text fill="#000000" font-family="sans-serif" font-size="14" lengthAdjust="spacing" textLength="54.8584" x="126" y="25.5352">item_00</text><line style="stroke:#000000;stroke-width:1;" x1="121" x2="185.8584" y1="30.4883" y2="30.4883"/><text fill="#000000" font-family="sans-serif" font-size="14" lengthAdjust="spacing" textLength="54.8584" x="126" y="46.0234">item_01</text><line style="stroke:#000000;stroke-width:1;" x1="121" x2="185.8584" y1="50.9766" y2="50.9766"/><text fill="#000000" font-family="sans-serif" font-size="14" lengthAdjust="spacing" textLength="54.8584" x="126" y="66.5117">item_02</text><rect fill="none" height="61.4648" rx="5" ry="5" style="stroke:#000000;stroke-width:1.5;" width="64.8584" x="121" y="10"/><path d="M72,40.7324 L85,40.7324 C94.2231,40.7324 104.1498,40.7324 113.4918,40.7324" fill="none" style="stroke:#000000;stroke-width:1;stroke-dasharray:3,3;"/><path d="M113.4918,43.805 L115.7962,40.7324 L113.4918,37.6598 L121.1732,40.7324 L113.4918,43.805" fill="#000000"/><ellipse cx="72" cy="40.7324" fill="#000000" rx="3" ry="3" style="stroke:#000000;stroke-width:1;"/><?plantuml-src SoWkIImgoIhEp-EgLieiISqjLh9IY0QpuWqCb7GKe4n31DD8AHR8JiulpIi1gZMkvN98pKi1cy1bg6TaO6IcPvoKMf9e1W00?></g></svg>