<svg xmlns="http://www.w3.org/2000/svg" xmlns:xlink="http://www.w3.org/1999/xlink" contentStyleType="text/css" data-diagram-type="JSON" height="102px" preserveAspectRatio="none" style="width:516px;height:102px;background:#FFFFFF;" version="1.1" viewBox="0 0 516 102" width="516px" zoomAndPan="magnify"><?plantuml 1.2026.3beta6?><defs/><g><rect fill="#F1F1F1" height="40.9766" rx="5" ry="5" style="stroke:#F1F1F1;stroke-width:1.5;" width="67.1064" x="10" y="50"/><text fill="#000000" font-family="sans-serif" font-size="14" font-weight="700" lengthAdjust="spacing" textLength="25.2246" x="15" y="65.5352">key</text><text fill="#000000" font-family="sans-serif" font-size="14" lengthAdjust="spacing" textLength="13.2891" x="58.8174" y="65.5352">&#160;&#160;&#160;</text><line style="stroke:#000000;stroke-width:1;" x1="53.8174" x2="53.8174" y1="50" y2="70.4883"/><line style="stroke:#000000;stroke-width:1;" x1="10" x2="77.1064" y1="70.4883" y2="70.4883"/><text fill="#000000" font-family="sans-serif" font-size="14" font-weight="700" lengthAdjust="spacing" textLength="33.8174" x="15" y="86.0234">level</text><text fill="#000000" font-family="sans-serif" font-size="14" lengthAdjust="spacing" textLength="8.8525" x="58.8174" y="86.0234">5</text><line style="stroke:#000000;stroke-width:1;" x1="53.8174" x2="53.8174" y1="70.4883" y2="90.9766"/><rect fill="none" height="40.9766" rx="5" ry="5" style="stroke:#000000;stroke-width:1.5;" width="67.1064" x="10" y="50"/><rect fill="#F1F1F1" height="40.9766" rx="5" ry="5" style="stroke:#F1F1F1;stroke-width:1.5;" width="67.1064" x="114" y="40"/><text fill="#000000" font-family="sans-serif" font-size="14" font-weight="700" lengthAdjust="spacing" textLength="25.2246" x="119" y="55.5352">key</text><text fill="#000000" font-family="sans-serif" font-size="14" lengthAdjust="spacing" textLength="13.2891" x="162.8174" y="55.5352">&#160;&#160;&#160;</text><line style="stroke:#000000;stroke-width:1;" x1="157.8174" x2="157.8174" y1="40" y2="60.4883"/><line style="stroke:#000000;stroke-width:1;" x1="114" x2="181.1064" y1="60.4883" y2="60.4883"/><text fill="#000000" font-family="sans-serif" font-size="14" font-weight="700" lengthAdjust="spacing" textLength="33.8174" x="119" y="76.0234">level</text><text fill="#000000" font-family="sans-serif" font-size="14" lengthAdjust="spacing" textLength="8.8525" x="162.8174" y="76.0234">4</text><line style="stroke:#000000;stroke-width:1;" x1="157.8174" x2="157.8174" y1="60.4883" y2="80.9766"/><rect fill="none" height="40.9766" rx="5" ry="5" style="stroke:#000000;stroke-width:1.5;" width="67.1064" x="114" y="40"/><rect fill="#F1F1F1" height="40.9766" rx="5" ry="5" style="stroke:#F1F1F1;stroke-width:1.5;" width="67.1064" x="218" y="30"/><text fill="#000000" font-family="sans-serif" font-size="14" font-weight="700" lengthAdjust="spacing" textLength="25.2246" x="223" y="45.5352">key</text><text fill="#000000" font-family="sans-serif" font-size="14" lengthAdjust="spacing" textLength="13.2891" x="266.8174" y="45.5352">&#160;&#160;&#160;</text><line style="stroke:#000000;stroke-width:1;" x1="261.8174" x2="261.8174" y1="30" y2="50.4883"/><line style="stroke:#000000;stroke-width:1;" x1="218" x2="285.1064" y1="50.4883" y2="50.4883"/><text fill="#000000" font-family="sans-serif" font-size="14" font-weight="700" lengthAdjust="spacing" textLength="33.8174" x="223" y="66.0234">level</text><text fill="#000000" font-family="sans-serif" font-size="14" lengthAdjust="spacing" textLength="8.8525" x="266.8174" y="66.0234">3</text><line style="stroke:#000000;stroke-width:1;" x1="261.8174" x2="261.8174" y1="50.4883" y2="70.9766"/><rect fill="none" height="40.9766" rx="5" ry="5" style="stroke:#000000;stroke-width:1.5;" width="67.1064" x="218" y="30"/><rect fill="#F1F1F1" height="40.9766" rx="5" ry="5" style="stroke:#F1F1F1;stroke-width:1.5;" width="67.1064" x="322" y="20"/><text fill="#000000" font-family="sans-serif" font-size="14" font-weight="700" lengthAdjust="spacing" textLength="25.2246" x="327" y="35.5352">key</text><text fill="#000000" font-family="sans-serif" font-size="14" lengthAdjust="spacing" textLength="13.2891" x="370.8174" y="35.5352">&#160;&#160;&#160;</text><line style="stroke:#000000;stroke-width:1;" x1="365.8174" x2="365.8174" y1="20" y2="40.4883"/><line style="stroke:#000000;stroke-width:1;" x1="322" x2="389.1064" y1="40.4883" y2="40.4883"/><text fill="#000000" font-family="sans-serif" font-size="14" font-weight="700" lengthAdjust="spacing" textLength="33.8174" x="327" y="56.0234">level</text><text fill="#000000" font-family="sans-serif" font-size="14" lengthAdjust="spacing" textLength="8.8525" x="370.8174" y="56.0234">2</text><line style="stroke:#000000;stroke-width:1;" x1="365.8174" x2="365.8174" y1="40.4883" y2="60.9766"/><rect fill="none" height="40.9766" rx="5" ry="5" style="stroke:#000000;stroke-width:1.5;" width="67.1064" x="322" y="20"/><rect fill="#F1F1F1" height="40.9766" rx="5" ry="5" style="stroke:#F1F1F1;stroke-width:1.5;" width="78.543" x="426" y="10"/><text fill="#000000" font-family="sans-serif" font-size="14" font-weight="700" lengthAdjust="spacing" textLength="25.2246" x="431" y="25.5352">key</text><text fill="#000000" font-family="sans-serif" font-size="14" lengthAdjust="spacing" textLength="24.7256" x="474.8174" y="25.5352">leaf</text><line style="stroke:#000000;stroke-width:1;" x1="469.8174" x2="469.8174" y1="10" y2="30.4883"/><line style="stroke:#000000;stroke-width:1;" x1="426" x2="504.543" y1="30.4883" y2="30.4883"/><text fill="#000000" font-family="sans-serif" font-size="14" font-weight="700" lengthAdjust="spacing" textLength="33.8174" x="431" y="46.0234">level</text><text fill="#000000" font-family="sans-serif" font-size="14" lengthAdjust="spacing" textLength="8.8525" x="474.8174" y="46.0234">1</text><line style="stroke:#000000;stroke-width:1;" x1="469.8174" x2="469.8174" y1="30.4883" y2="50.9766"/><rect fill="none" height="40.9766" rx="5" ry="5" style="stroke:#000000;stroke-width:1.5;" width="78.543" x="426" y="10"/><path d="M377,30.5 L390,30.5 C399.3496,30.5 409.3547,30.5 418.9122,30.5" fill="none" style="stroke:#000000;stroke-width:1;stroke-dasharray:3,3;"/><path d="M418.9122,33.5191 L421.1765,30.5 L418.9122,27.4809 L426.46,30.5 L418.9122,33.5191" fill="#000000"/><ellipse cx="377" cy="30.5" fill="#000000" rx="3" ry="3" style="stroke:#000000;stroke-width:1;"/><path d="M273,40.5 L286,40.5 C295.2651,40.5 305.2301,40.5 314.6263,40.5" fill="none" style="stroke:#000000;stroke-width:1;stroke-dasharray:3,3;"/><path d="M314.6263,43.5925 L316.9456,40.5 L314.6263,37.4075 L322.3574,40.5 L314.6263,43.5925" fill="#000000"/><ellipse cx="273" cy="40.5" fill="#000000" rx="3" ry="3" style="stroke:#000000;stroke-width:1;"/><path d="M169,50.5 L182,50.5 C191.2651,50.5 201.2301,50.5 210.6263,50.5" fill="none" style="stroke:#000000;stroke-width:1;stroke-dasharray:3,3;"/><path d="M210.6263,53.5925 L212.9456,50.5 L210.6263,47.4075 L218.3574,50.5 L210.6263,53.5925" fill="#000000"/><ellipse cx="169" cy="50.5" fill="#000000" rx="3" ry="3" style="stroke:#000000;stroke-width:1;"/><path d="M65,60.5 L78,60.5 C87.2651,60.5 97.2301,60.5 106.6263,60.5" fill="none" style="stroke:#000000;stroke-width:1;stroke-dasharray:3,3;"/><path d="M106.6263,63.5925 L108.9456,60.5 L106.6263,57.4075 L114.3574,60.5 L106.6263,63.5925" fill="#000000"/><ellipse cx="65" cy="60.5" fill="#000000" rx="3" ry="3" style="stroke:#000000;stroke-width:1;"/><?plantuml-src SoWkIImgoIhEp-EgLifEhLIoKY14A-Ma9gOfwO3eijGSe81XBHB729bZZCmnGUQOrd8vfEQbW2tcCjGpCZ0oqpDEIYr9D0C0?></g></svg>